<svg xmlns="http://www.w3.org/2000/svg" xmlns:xlink="http://www.w3.org/1999/xlink">
  <symbol id='logo' viewBox="0 0 80.5669 84.785">
    <g>
      <path d="M25.731 34.589C11.521 34.589 0 45.826 0 59.687C0 73.548 11.521 84.785 25.731 84.785C39.9399 84.785 51.4619 73.548 51.4619 59.687C51.4619 45.826 39.9399 34.589 25.731 34.589ZM25.8379 80.356C14.5391 80.356 3.94092 70.588 3.94092 59.699C3.94092 48.809 14.5391 39.248 25.8379 39.248C37.1357 39.248 46.3999 48.797 46.3999 59.687C46.3999 70.577 37.1357 80.356 25.8379 80.356Z" fill-rule="evenodd"/>
      <path d="M40.4858 21.996C38.2329 19.756 35.0991 18.7 33.4038 18.237C34.5801 17.761 37.8828 16.276 39.4741 13.397C42.0039 8.812 37.6128 4.668 37.1201 4.218C35.5879 2.812 33.7749 1.888 32.1099 1.279C29.9961 0.504999 27.7549 0.135 25.5039 0.124001C17.002 0.0820007 8.50293 0.0429993 0 0L0 38.385L32.4917 38.385C34.2559 37.897 37.542 36.783 39.98 34.421C43.5737 30.946 44.2861 25.776 40.4858 21.996ZM4.76709 4.172L26.9707 4.172C27.8657 4.226 29.312 4.382 30.7788 4.905C34.1328 6.099 35.8188 8.565 35.2207 10.775C35.0938 11.232 34.5527 13.225 31.4131 14.443C29.0317 15.369 26.5391 15.308 25.7041 15.266L4.76709 15.266L4.76709 4.172ZM38.5117 28.633C38.374 29.183 37.7759 31.591 34.2959 33.064C31.6567 34.18 28.897 34.109 27.9678 34.063L4.76709 34.063L4.76709 20.657L29.373 20.657C30.3647 20.724 31.9668 20.913 33.5938 21.542C37.312 22.985 39.1768 25.96 38.5117 28.633Z" fill-rule="evenodd"/>
      <path d="M48.8374 47.304L48.8374 84.785L54.4136 84.785L80.5664 51.04L80.5664 47.304L48.8374 47.304ZM53.5176 78.083L53.5176 51.04L75.0005 51.023L53.5176 78.083Z" fill-rule="evenodd"/>
      <rect x="48.930664" y="25.308733" width="4.587355" height="32.058136"/>
      <path d="M35.4331 8.01401L35.9307 6.435C36.2959 5.27801 37.7979 4.986 38.5708 5.922L54.2749 24.949L50.0449 28.439L35.4331 8.01401Z" fill-rule="evenodd"/>
      <path d="M50.0571 28.439C50.7788 29.763 49.7808 28.262 50.6421 29.105C54.521 32.901 60.0591 34.402 62.2788 34.589C69.792 35.219 75.1621 30.005 75.6401 29.527C76.1719 28.994 81.6338 23.33 80.3809 15.185C79.0308 6.42002 71.106 2.60201 70.0371 2.10901C66.5151 0.486015 63.2427 0.357016 61.417 0.421015L61.417 5.08101C62.584 5.04801 64.4629 5.13701 66.5889 5.90502C69.8857 7.09701 71.7549 9.19201 72.1919 9.70101C73.103 10.764 75.123 13.482 75.209 17.294C75.291 20.939 73.6538 25.137 70.0371 27.418C67.4429 29.054 64.7949 29.099 63.5718 29.105C62.5337 29.11 59.1387 28.704 56.2451 26.574C53.418 24.493 51.6299 21.306 50.2109 21.512C49.2451 21.653 50.001 23.892 49.7798 24.465C49.7349 24.582 49.019 26.537 50.0571 28.439Z" fill-rule="evenodd"/>
      <defs/>
    </g>
  </symbol>
    <symbol id='decStar' viewBox="0 0 41.6245 41.5207">
    <g>
     <path d="M18.7163 0L23.2637 0L22.0571 19.5672L36.3745 6.20425L38.7612 9.54499L23.0117 20.5217L41.6245 24.3397L41.1475 28.1577L22.5703 22.4307L32.0796 39.6117L28.2617 41.5207L21.1025 23.3852L13.6597 41.5207L10.126 39.6117L19.1938 22.908L1.05811 28.635L0 23.6539L19.1938 20.999L3.44434 9.54499L5.83057 6.20425L20.6255 19.5672L18.7163 0Z" fill-rule="evenodd" />
    </g>
  </symbol>  
  <symbol id='decTopRight' viewBox="0 0 800 500">
    <g>
      <path d="M383.5,324.5Q336,399,247,404.5Q158,410,101.5,330Q45,250,86,144Q127,38,239,56.5Q351,75,391,162.5Q431,250,383.5,324.5Z" fill="#d1d8e0"></path>
    </g>
  </symbol>
  <symbol id='decTopRightLine' viewBox="0 0 189.206 124.767">
    <g>
      <path  data-name="Контур 6" d="M7371.594,146.268q-1.214,0-2.468-.056a80.315,80.315,0,0,1-16.178-2.592c-3.691-.936-7.4-2.044-11-3.116a148.109,148.109,0,0,0-20.361-5.039l.146-.989a148.86,148.86,0,0,1,20.5,5.07c3.582,1.069,7.285,2.174,10.956,3.1,13.022,3.3,23.093,3.479,31.695.551,11.007-3.745,18.9-13.426,19.2-23.543.282-9.569-5.652-19.168-17.637-28.53q-3.107-2.427-6.378-4.689a47.426,47.426,0,0,1,1.256,5.067c.888,4.67.763,8.478-.381,11.644a16.968,16.968,0,0,1-5.2,7.167,30.107,30.107,0,0,1-7.672,4.557c-6.754,2.863-13.889,4.183-22.523,5.285a394.655,394.655,0,0,1-49.06,2.967l-1.432,0c-10.926,0-19.952-.389-28.3-1.218a156.372,156.372,0,0,1-29.2-5.5,47.044,47.044,0,0,1-11.879-5.084,24.634,24.634,0,0,1-4.923-4.033,18.464,18.464,0,0,1-3.486-5.361,19.157,19.157,0,0,1-1.155-10.183,24.619,24.619,0,0,1,3.659-9.689,33.029,33.029,0,0,1,6.807-7.522,53.509,53.509,0,0,1,8.422-5.607,85.277,85.277,0,0,1,14.313-6.193,102.033,102.033,0,0,1,15.12-3.691,142.4,142.4,0,0,1,31.191-1.445,176.039,176.039,0,0,1,48.191,9.4,153.285,153.285,0,0,1,34.353,16.923c-6.664-17.814-23.149-30.009-36.676-37.388-15.5-8.454-32.077-16.868-48.3-21.155-19.512-5.157-34.876-3.469-46.97,5.161l-.581-.814a42.935,42.935,0,0,1,10.933-5.639,48.022,48.022,0,0,1,11.8-2.416,63.658,63.658,0,0,1,12.382.284,91.024,91.024,0,0,1,12.688,2.458,156.777,156.777,0,0,1,25.238,9.364c8.367,3.842,16.463,8.161,23.28,11.879a113.216,113.216,0,0,1,13.207,8.394,85.958,85.958,0,0,1,11.752,10.423,57.728,57.728,0,0,1,12.628,20.382q3.855,2.623,7.506,5.475a60.271,60.271,0,0,1,12.6,12.82c3.761,5.446,5.586,11.006,5.423,16.527a24.464,24.464,0,0,1-6.165,15.169,31.694,31.694,0,0,1-13.713,9.292A41.739,41.739,0,0,1,7371.594,146.268Zm-85.2-87.925c-19.939,0-37.03,3.845-50.9,11.468-6.914,3.8-11.778,7.982-14.869,12.793-3.875,6.03-4.8,13.289-2.422,18.943,2.654,6.3,8.9,10.724,19.65,13.908,19.56,5.791,39.692,6.674,57,6.674l1.638,0a393.662,393.662,0,0,0,48.936-2.959c8.553-1.091,15.611-2.4,22.26-5.214,4.47-1.894,10.236-5.365,12.326-11.144,1.082-2.992,1.192-6.628.339-11.117a47.2,47.2,0,0,0-1.611-6.167c-23.307-15.726-52.462-25.213-83.164-26.922Q7290.887,58.343,7286.39,58.343Z" transform="translate(-7215.894 -21.502)" fill="#b5bcc6"/>
    </g>
  </symbol>
  <symbol id="snowflake" viewBox="0 0 41.625 41.521">
    <g transform="translate(-5628.311 -23)">
      <path id="Контур_5" data-name="Контур 5" d="M5647.027,23h4.547l-1.207,19.567L5664.685,29.2l2.387,3.341-15.75,10.977,18.613,3.818-.477,3.818-18.577-5.727,9.509,17.181-3.818,1.909-7.159-18.135-7.443,18.135-3.534-1.909,9.068-16.7-18.136,5.727-1.058-4.981L5647.5,44l-15.75-11.454,2.386-3.341,14.795,13.363Z"/>
    </g>
  </symbol>
</svg>  