<svg width="160" height="291" viewBox="0 0 160 291" fill="none" xmlns="http://www.w3.org/2000/svg">
<path d="M167.612 277.757C146.264 291.557 131.885 291.658 122.545 288.947C88.9934 279.218 76.5332 220.54 56.3452 223.675C50.4632 224.589 48.1115 230.099 39.5615 229.892C30.9235 229.682 23.4384 223.82 19.6694 218.704C7.04343 201.564 17.0074 166.845 34.5874 159.961C49.1514 154.261 59.6344 171.305 80.2764 165.866C91.3884 162.938 104.276 153.802 104.209 144.421C104.132 134.212 88.7493 129.621 49.1953 106.502C13.3953 85.5686 8.17155 78.9066 5.06055 72.0016C-1.05245 58.4296 -1.79551 37.7593 8.47949 23.5153C23.0885 3.26229 50.9952 8.45067 59.7632 -11.9173C62.8832 -19.1653 62.1804 -26.3963 61.3174 -30.8763" stroke="#707070" stroke-width="0.2" stroke-miterlimit="10"/>
<path d="M167.338 274.584C146.916 288.323 132.821 288.935 123.453 286.472C121.081 285.836 118.783 284.952 116.595 283.837C105.131 278.056 96.1395 266.476 88.5645 254.753C77.5125 237.64 69.8563 220.923 59.2793 222.309C53.9453 223.009 51.9601 228.079 44.1021 227.773C41.6626 227.655 39.2709 227.057 37.0635 226.012C32.6542 223.902 28.9045 220.628 26.2192 216.544C16.3082 201.244 23.0924 172.209 36.5444 160.727C38.0729 159.407 39.7787 158.306 41.6123 157.458C55.3893 151.242 65.0622 166.807 84.0942 160.918C89.6632 159.115 94.7743 156.125 99.0742 152.153C102.98 148.485 105.674 144.191 105.287 139.874C104.557 131.64 93.1493 127.313 66.3213 113.574C61.3833 111.046 55.7492 108.241 49.5942 104.902C45.0752 102.45 41.011 100.175 37.394 98.0428C12.387 83.1598 8.24104 77.0624 5.56104 70.6004C-0.00496483 57.1764 -0.715664 36.9602 10.1943 22.2772C24.5713 2.92516 52.419 7.58588 61.811 -11.7111C64.4156 -17.2852 65.2198 -23.5322 64.1113 -29.5842" stroke="#707070" stroke-width="0.2" stroke-miterlimit="10"/>
<path d="M167.065 271.409C147.565 285.088 133.765 286.209 124.365 283.995C122.025 283.425 119.752 282.606 117.586 281.551C106.238 276.112 97.124 264.92 89.686 253.316C78.811 236.342 72.2641 219.923 62.2231 220.941C57.4291 221.426 55.8163 226.057 48.6523 225.653C46.4557 225.499 44.3165 224.879 42.377 223.836C38.3529 221.65 35.0263 218.375 32.7773 214.386C24.2383 199.114 31.05 170.381 43.854 158.399C45.2883 157.041 46.9 155.883 48.645 154.958C61.613 148.186 70.5184 162.317 87.9224 155.973C92.9671 154.026 97.5272 151.004 101.286 147.117C104.726 143.531 107.103 139.416 106.375 135.332C104.975 127.471 93.1574 123.465 66.8604 111.2C61.9604 108.914 56.2169 106.429 50.0029 103.313C45.4399 101.026 41.3032 98.8802 37.6592 96.8012C12.6292 82.5092 8.71605 76.1014 6.08105 69.2074C1.01805 55.9604 0.375246 36.1723 11.9272 21.0463C26.0342 2.5733 53.8659 6.72635 63.8779 -11.4977C66.6734 -16.6193 67.7424 -22.5063 66.9253 -28.2838" stroke="#707070" stroke-width="0.2" stroke-miterlimit="10"/>
<path d="M166.791 268.234C148.22 281.852 134.705 283.483 125.272 281.518C122.963 281.015 120.716 280.26 118.572 279.266C107.341 274.166 98.1019 263.365 90.7959 251.877C80.0959 235.041 74.6303 220.471 65.1553 219.569C60.8973 219.169 59.6599 224.037 53.1909 223.53C51.2339 223.339 49.3479 222.698 47.6792 221.658C44.0485 219.379 41.1501 216.105 39.3301 212.224C32.1661 196.996 39.0032 168.555 51.1602 156.065C52.503 154.672 54.0195 153.458 55.6729 152.453C67.8399 145.153 75.9891 157.825 91.7441 151.021C96.2654 148.93 100.275 145.876 103.491 142.072C106.463 138.572 108.521 134.618 107.457 130.783C105.371 123.265 93.1321 119.616 67.3931 108.813C62.5211 106.769 56.6793 104.604 50.4053 101.713C45.7983 99.5898 41.5901 97.5697 37.9131 95.5507C12.8871 81.8057 9.17484 75.1386 6.58984 67.8066C1.98984 54.7606 1.4469 35.3776 13.6499 19.8066C27.4549 2.19261 55.3091 5.85302 65.9351 -11.294C68.9034 -15.9628 70.2375 -21.4852 69.728 -26.9942" stroke="#707070" stroke-width="0.2" stroke-miterlimit="10"/>
<path d="M166.517 265.06C148.871 278.618 135.651 280.751 126.182 279.041C123.906 278.603 121.686 277.913 119.563 276.981C108.448 272.225 99.0861 261.807 91.9141 250.441C81.3931 233.741 76.8142 220.206 68.0942 218.201C64.4272 217.357 63.5088 222.022 57.7358 221.41C56.0158 221.179 54.3822 220.516 52.9868 219.484C49.7609 217.095 47.2954 213.824 45.8872 210.065C40.0962 194.9 46.9622 166.744 58.4702 153.736C59.7232 152.307 61.1448 151.036 62.7041 149.95C74.0681 142.118 81.4938 153.335 95.5688 146.075C99.5676 143.839 103.027 140.752 105.7 137.032C108.2 133.615 109.93 129.817 108.542 126.238C105.751 119.038 93.0832 115.787 67.9292 106.438C63.0832 104.638 57.145 102.79 50.811 100.122C46.16 98.1644 41.8819 96.2669 38.1699 94.3079C13.1529 81.1079 9.63103 74.1935 7.10303 66.4085C2.93503 53.5825 2.51498 34.5855 15.376 18.5735C28.851 1.79955 56.7621 4.98527 67.9951 -11.0817C71.1149 -15.3005 72.7154 -20.4511 72.5361 -25.695" stroke="#707070" stroke-width="0.2" stroke-miterlimit="10"/>
<path d="M166.248 261.885C149.528 275.385 136.605 278.019 127.095 276.566C124.851 276.193 122.658 275.566 120.556 274.696C109.556 270.283 100.073 260.251 93.0352 249.004C82.6902 232.444 79.3302 215.705 71.0352 216.834C67.8282 216.116 67.3572 220.017 62.2842 219.291C60.7973 219.013 59.4168 218.328 58.2979 217.31C55.4936 214.796 53.4632 211.535 52.4438 207.91C48.0188 192.827 54.9218 164.944 65.7778 151.41C66.9441 149.946 68.2715 148.619 69.7349 147.453C80.2949 139.096 87.0351 148.835 99.3931 141.13C102.87 138.75 105.778 135.631 107.908 131.995C109.931 128.669 111.321 125.014 109.627 121.695C106.103 114.795 93.0028 111.977 68.4648 104.053C63.6378 102.494 57.6098 100.968 51.2158 98.524C46.8634 96.9187 42.5949 95.0945 38.4268 93.0581C13.4218 80.3931 10.0798 73.2453 7.61377 65.0113C5.11136 56.9022 4.66838 48.2983 6.32471 39.9751C7.98104 31.6519 11.6848 23.8717 17.1011 17.3384C30.2201 1.38641 58.2217 4.11447 70.0537 -10.8725C74.3397 -16.3015 75.4308 -21.4559 75.3408 -24.3979" stroke="#707070" stroke-width="0.2" stroke-miterlimit="10"/>
<path d="M165.969 258.71C150.175 272.147 137.553 275.279 128 274.088C125.789 273.78 123.622 273.217 121.541 272.41C110.659 268.337 101.051 258.693 94.1455 247.566C83.9775 231.144 81.6983 214.458 73.9683 215.466C71.2963 214.422 71.1922 218.019 66.8232 217.171C65.5654 216.839 64.4404 216.128 63.6006 215.135C61.245 212.48 59.6525 209.236 58.9932 205.748C55.9222 190.769 62.8786 163.148 73.0806 149.077C74.1625 147.579 75.395 146.195 76.7593 144.948C86.5163 136.07 92.6024 144.303 103.211 136.18C106.075 133.988 108.484 130.352 110.111 126.951C111.655 123.722 112.689 120.2 110.711 117.15C106.42 110.544 92.8935 108.191 69.0005 101.674C64.1865 100.361 58.0746 99.1508 51.6226 96.9298C47.2132 95.479 42.8931 93.7699 38.6846 91.8116C13.6936 79.6806 10.5214 72.3124 8.12744 63.6124C4.72744 51.2694 4.62015 32.9936 18.8271 16.1026C31.5671 0.956631 59.6893 3.24305 72.1143 -10.6649C76.6403 -15.7309 78.0834 -20.4654 78.1484 -23.1034" stroke="#707070" stroke-width="0.2" stroke-miterlimit="10"/>
<path d="M165.695 255.535C150.826 268.912 138.506 272.535 128.908 271.61C126.731 271.366 124.59 270.867 122.529 270.124C111.764 266.393 102.029 257.137 95.2622 246.124C85.2702 229.841 84.0742 213.203 76.9072 214.089C74.7702 212.718 75.0202 216.026 71.3682 215.042C70.3377 214.639 69.4719 213.903 68.9092 212.95C67.0395 210.148 65.886 206.93 65.5493 203.579C63.8143 188.72 70.8492 161.351 80.3882 146.738C81.3886 145.204 82.5266 143.764 83.7881 142.437C92.7421 133.043 98.2082 139.714 107.034 131.225C109.459 128.892 111.184 125.226 112.316 121.904C113.38 118.783 114.041 115.388 111.788 112.595C106.697 106.282 92.7473 104.423 69.5283 99.2829C64.7203 98.2199 58.5285 97.3209 52.0195 95.3249C47.5555 94.0291 43.183 92.435 38.9321 90.5544C13.9601 78.9544 10.9443 71.3687 8.63232 62.2067C5.57932 50.1197 5.65239 32.185 20.5464 14.86C32.8884 0.506046 61.1605 2.3598 74.1675 -10.4632C78.9375 -15.1632 80.7293 -19.4887 80.9473 -21.8167" stroke="#707070" stroke-width="0.2" stroke-miterlimit="10"/>
<path d="M165.421 252.362C151.478 265.678 139.462 269.79 129.821 269.135C127.677 268.954 125.562 268.519 123.521 267.84C112.873 264.45 103.021 255.582 96.3813 244.693C86.5663 228.547 86.4511 211.961 79.8481 212.725C78.2481 211.025 78.827 214.068 75.915 212.925C75.199 212.644 74.7413 211.819 74.2153 210.778C72.8752 207.838 72.1555 204.654 72.1021 201.424C71.6811 186.695 78.8173 159.575 87.6943 144.411C88.6154 142.84 89.6597 141.344 90.8174 139.938C98.9704 130.032 103.832 135.057 110.858 126.279C112.858 123.785 113.887 120.127 114.525 116.865C115.112 113.865 115.38 110.593 112.873 108.052C106.948 102.052 92.5815 100.701 70.0645 96.9036C65.2575 96.0916 58.9963 95.5038 52.4253 93.7298C47.9091 92.5902 43.4851 91.1128 39.1904 89.3099C14.2384 78.2339 11.3651 70.4429 9.14307 60.8099C6.41507 48.9869 6.679 31.3763 22.271 13.6243C34.196 0.0483131 62.6451 1.49739 76.2261 -10.2546C81.2431 -14.5956 83.3794 -18.5002 83.7524 -20.5202" stroke="#707070" stroke-width="0.2" stroke-miterlimit="10"/>
<path d="M165.148 249.187C152.13 262.444 140.42 267.036 130.727 266.658C128.617 266.543 126.53 266.174 124.508 265.559C113.969 262.534 103.997 254.029 97.4951 243.258C87.8581 227.252 88.8242 210.716 82.7842 211.359C81.7172 209.336 82.784 211.716 80.458 210.809C79.9682 210.165 79.647 209.408 79.5239 208.609C78.7533 205.559 78.4614 202.409 78.6582 199.27C79.5262 184.682 86.8 157.809 95.002 142.086C95.8458 140.476 96.7964 138.924 97.8472 137.441C105.201 127.027 109.436 130.302 114.681 121.34C116.251 118.656 116.597 115.04 116.731 111.832C116.851 108.959 116.706 105.813 113.956 103.516C107.171 97.8457 92.3891 97.0274 70.5981 94.5304C65.7871 93.9794 59.4591 93.6927 52.8291 92.1437C48.2625 91.1596 43.7859 89.797 39.4453 88.0704C14.5163 77.5164 11.7723 69.528 9.65332 59.422C7.23232 47.869 7.69312 30.5725 23.9951 12.4015C35.4871 -0.410511 64.1372 0.646942 78.2832 -10.0341C83.5502 -14.0111 86.0292 -17.5017 86.5562 -19.2137" stroke="#707070" stroke-width="0.2" stroke-miterlimit="10"/>
<path d="M164.874 246.011C152.782 259.211 141.35 264.936 131.636 264.181C129.567 264.056 127.513 263.751 125.497 263.268C115.075 260.586 104.979 252.468 98.6108 241.817C89.1498 225.949 91.1982 209.462 85.7212 209.987C85.1892 207.637 86.632 209.671 85.002 208.687C84.86 207.944 84.803 207.187 84.832 206.43C84.6579 203.318 84.7856 200.195 85.2139 197.107C87.3459 182.66 94.789 156.041 102.314 139.755C103.082 138.104 103.939 136.495 104.881 134.937C111.441 124.017 114.981 125.437 118.509 116.387C119.64 113.487 119.328 109.958 118.943 106.788C118.611 104.053 118.031 101.032 115.043 98.9655C107.379 93.6595 92.0432 89.4392 71.1362 92.1442C66.3482 92.7632 59.9268 91.8696 53.2358 90.5446C48.6213 89.7173 44.0921 88.4702 39.7041 86.82C14.8041 76.782 12.169 68.6042 10.168 58.0202C8.03497 46.7422 8.70014 29.7467 25.7231 11.1627C36.7681 -0.895265 65.6412 -0.211484 80.3452 -9.82748C85.8642 -13.4365 88.6822 -16.5153 89.3652 -17.9193" stroke="#707070" stroke-width="0.2" stroke-miterlimit="10"/>
<path d="M164.6 242.837C153.433 255.975 142.327 262.184 132.544 261.705C130.507 261.642 128.48 261.4 126.485 260.983C116.185 258.643 105.961 250.912 99.7261 240.383C90.4421 224.653 93.5722 208.217 88.6582 208.622C88.6582 205.946 90.4829 207.63 89.5449 206.567C89.6349 206.105 89.9452 205.397 90.1382 204.256C90.5032 202.135 90.8851 198.689 91.7671 194.948C95.1411 180.635 102.786 154.276 109.615 137.424C110.344 135.624 111.135 133.959 111.905 132.434C117.673 121.012 118.842 120.034 122.326 111.434C122.443 108.161 122.044 104.891 121.144 101.742C120.378 99.1419 119.344 96.2637 116.122 94.4157C107.57 89.5057 91.575 85.8625 71.666 89.7585C66.924 90.6865 60.3862 90.0431 53.6362 88.9421C48.9756 88.2714 44.3927 87.1405 39.9551 85.5661C15.0791 76.0411 12.5428 67.6819 10.6738 56.6159C8.81483 45.6159 9.68387 28.9037 27.4429 9.9157C38.0279 -1.3983 67.1429 -1.07022 82.3989 -9.63022C88.1729 -12.8692 91.329 -15.5391 92.166 -16.6361" stroke="#707070" stroke-width="0.2" stroke-miterlimit="10"/>
<path d="M164.326 239.662C154.084 252.738 143.296 258.739 133.453 259.228C131.446 259.294 129.438 259.117 127.474 258.698C117.287 256.698 106.943 249.356 100.843 238.943C91.7358 223.351 95.9432 206.964 91.5962 207.249C92.1342 204.249 94.3358 205.585 94.0898 204.449C94.645 203.724 95.1006 202.928 95.4448 202.082C96.2628 200.003 97.0988 196.562 98.3208 192.791C102.921 178.603 110.794 152.519 116.921 135.097C117.568 133.259 118.264 131.534 118.933 129.935C123.913 118.011 125.733 115.568 126.148 106.495C126.302 103.111 124.831 99.789 123.348 96.709C122.163 94.243 120.657 91.5169 117.203 89.8769C107.76 85.3959 91.1178 82.4468 72.1978 87.3838C67.4978 88.6098 60.8471 88.2315 54.0381 87.3535C49.3334 86.8399 44.6971 85.8258 40.208 84.3271C15.361 75.3091 12.9081 66.7725 11.1821 55.2265C9.58213 44.5015 10.6551 28.0633 29.1641 8.69432C39.2781 -1.88768 68.6501 -1.89725 84.4541 -9.40625C88.1341 -11.0503 91.6535 -13.0317 94.9678 -15.3252" stroke="#707070" stroke-width="0.2" stroke-miterlimit="10"/>
<path d="M164.053 236.487C154.737 249.503 144.253 255.96 134.363 256.752C132.39 256.878 130.409 256.764 128.463 256.412C118.393 254.756 107.925 247.8 101.963 237.506C93.0334 222.052 98.3266 205.715 94.5386 205.88C95.6116 202.551 98.1922 203.541 98.6382 202.322C99.4696 201.634 100.185 200.816 100.757 199.901C102.33 196.901 103.707 193.803 104.88 190.626C110.68 176.549 118.816 150.755 124.234 132.761C124.799 130.883 125.402 129.101 125.967 127.427C130.167 115.003 130.974 110.657 129.978 101.541C129.578 97.9268 127.614 94.6769 125.562 91.6609C123.883 88.8227 121.334 86.601 118.293 85.325C107.964 81.298 91.4983 82.7589 72.7393 84.9959C67.8803 85.5749 61.3172 86.4048 54.4482 85.7508C49.7021 85.3931 45.0123 84.4946 40.4702 83.0721C15.6532 74.5561 13.2552 65.8512 11.6992 53.8192C10.3482 43.3742 11.6154 27.186 30.8994 7.44904C40.5324 -2.41096 70.1734 -2.73719 86.5234 -9.20819C92.8114 -11.6972 96.6372 -13.5602 97.7832 -14.0402" stroke="#707070" stroke-width="0.2" stroke-miterlimit="10"/>
<path d="M163.779 233.312C155.388 246.268 145.212 253.174 135.272 254.275C133.334 254.461 131.38 254.41 129.453 254.127C123.988 253.273 118.784 251.208 114.22 248.084C109.656 244.959 105.849 240.854 103.076 236.068C94.3222 220.753 100.698 204.467 97.4761 204.509C99.0841 200.854 101.883 201.334 103.183 200.201C104.224 199.473 105.19 198.644 106.065 197.724C107.775 195.672 109.523 192.286 111.436 188.464C118.436 174.483 126.845 148.992 131.542 130.428C132.027 128.51 132.535 126.671 132.997 124.922C136.416 111.997 136.154 105.822 133.797 96.5905C132.823 92.7705 130.39 89.5519 127.766 86.6179C125.576 83.9181 122.667 81.8933 119.375 80.777C108.166 77.227 91.2744 79.312 73.2744 82.612C67.2192 83.87 61.0336 84.3875 54.8535 84.153C50.0678 83.9508 45.3245 83.168 40.7275 81.822C15.9415 73.804 13.5814 64.9346 12.2114 52.4216C11.0984 42.2536 12.5481 26.2965 32.6211 6.21454C41.7641 -2.93146 71.6831 -3.55633 88.5791 -8.99933C95.1241 -11.1073 99.2854 -12.5714 100.585 -12.7454" stroke="#707070" stroke-width="0.2" stroke-miterlimit="10"/>
<path d="M163.505 230.137C156.04 243.037 146.167 250.38 136.181 251.798C134.277 252.042 132.35 252.057 130.442 251.842C125.032 251.206 119.843 249.32 115.287 246.333C110.731 243.345 106.933 239.34 104.192 234.631C95.6154 219.454 103.072 203.217 100.411 203.141C102.554 199.161 105.797 199.316 107.724 198.081C109.026 197.37 110.249 196.521 111.37 195.549C113.534 193.492 115.724 190.149 117.987 186.306C126.181 172.406 134.878 147.235 138.845 128.1C139.251 126.142 139.664 124.244 140.023 122.421C142.667 108.993 141.314 101.065 137.623 91.645C136.056 87.645 133.172 84.4166 129.976 81.5806C127.3 79.032 124.029 77.1935 120.46 76.2339C108.381 73.1779 91.0851 75.9119 73.8081 80.2339C67.7577 81.8428 61.5176 82.6257 55.2573 82.561C50.4337 82.5149 45.6361 81.8493 40.9824 80.5796C16.2304 73.0556 13.8822 64.0249 12.7212 51.0239C11.8352 41.1329 13.4552 25.381 34.3452 4.97997C42.9892 -3.46204 73.1952 -4.36858 90.6372 -8.78958C97.4372 -10.5146 101.937 -11.5828 103.389 -11.4488" stroke="#707070" stroke-width="0.2" stroke-miterlimit="10"/>
<path d="M163.226 226.964C156.686 239.8 147.114 247.58 137.085 249.322C135.214 249.622 133.315 249.701 131.425 249.557C121.709 248.902 110.866 243.131 105.302 233.194C96.9022 218.156 105.44 201.968 103.343 201.772C106.021 197.465 109.68 197.301 112.262 195.96C113.815 195.249 115.292 194.382 116.67 193.373C119.295 191.306 121.921 188 124.534 184.146C133.919 170.309 142.916 145.473 146.145 125.769C146.473 123.769 146.791 121.814 147.045 119.917C148.916 105.985 146.479 96.3723 141.436 86.6953C139.18 82.635 136.009 79.1567 132.173 76.5371C129.034 74.1448 125.399 72.4876 121.534 71.6865C108.596 69.1385 90.909 72.5436 74.334 77.8486C68.2967 79.812 62.0001 80.8605 55.6523 80.9609C50.7927 81.068 45.9404 80.5183 41.228 79.3262C16.508 72.2912 14.1581 63.1051 13.2231 49.6211C12.5561 40.0041 14.3231 24.4212 36.0601 3.73924C44.1991 -4.00576 74.6931 -5.17694 92.6851 -8.58594C99.7441 -9.92294 104.576 -10.5992 106.185 -10.1572" stroke="#707070" stroke-width="0.2" stroke-miterlimit="10"/>
<path d="M162.958 223.789C157.344 236.564 148.069 244.771 138 246.846C136.163 247.204 134.29 247.348 132.42 247.273C122.82 246.96 111.854 241.572 106.42 231.758C98.1969 216.858 107.82 200.721 106.281 200.405C109.494 195.77 113.555 195.285 116.807 193.84C118.608 193.12 120.339 192.236 121.978 191.199C125.476 188.621 128.551 185.513 131.09 181.987C141.666 168.202 150.971 143.709 153.453 123.44C153.703 121.401 153.925 119.386 154.076 117.416C155.176 102.978 151.676 91.7323 145.261 81.7493C142.467 77.5447 138.744 74.0377 134.381 71.4984C130.797 69.261 126.795 67.7795 122.618 67.1439C108.831 65.1139 90.7792 69.2061 74.8682 75.4691C68.8533 77.7901 62.498 79.108 56.0562 79.3695C51.1625 79.6314 46.2561 79.1983 41.4839 78.0833C16.7979 71.5313 14.4149 62.1938 13.7339 48.2288C13.2779 38.8818 15.1652 23.4381 37.7852 2.50911C45.4132 -4.54889 76.1982 -5.96975 94.7432 -8.37175C102.056 -9.31875 107.226 -9.60709 108.99 -8.85809" stroke="#707070" stroke-width="0.2" stroke-miterlimit="10"/>
<path d="M162.684 220.613C157.996 233.328 149.013 241.956 138.909 244.369C137.105 244.784 135.26 244.99 133.409 244.985C123.926 245.013 112.837 240.017 107.541 230.319C99.495 215.556 110.196 199.471 109.225 199.034C112.973 194.075 117.425 193.266 121.358 191.719C123.406 190.982 125.391 190.079 127.292 189.018C131.219 186.531 134.717 183.424 137.651 179.818C149.422 166.071 159.038 141.929 160.766 121.099C160.938 119.019 161.066 116.949 161.111 114.905C161.592 101.198 157.348 87.743 149.09 76.7928C146.026 72.8467 142.2 69.5564 137.84 67.1171C133.48 64.6778 128.674 63.139 123.708 62.5927C109.083 61.0867 90.6962 65.8819 75.4082 73.0829C69.4243 75.7621 63.0087 77.348 56.4658 77.7665C51.5394 78.1815 46.579 77.8659 41.7451 76.829C17.0921 70.757 14.6511 61.2661 14.2451 46.8221C13.9931 37.7421 15.9618 22.3825 39.5088 1.2655C46.6228 -5.1125 77.6982 -6.76902 96.8022 -8.17102C104.367 -8.72602 109.877 -8.62741 111.795 -7.57141" stroke="#707070" stroke-width="0.2" stroke-miterlimit="10"/>
<path d="M162.41 217.439C158.647 230.093 149.953 239.132 139.818 241.892C138.047 242.364 136.229 242.635 134.398 242.701C125.031 243.071 113.819 238.463 108.657 228.883C100.787 214.26 112.571 198.222 112.162 197.666C116.445 192.379 121.289 191.247 125.901 189.599C128.197 188.844 130.437 187.925 132.601 186.848C136.945 184.442 140.865 181.34 144.207 177.667C157.176 163.95 167.107 140.167 168.075 118.778C168.175 116.657 168.201 114.528 168.141 112.411C167.854 97.5477 162.479 83.2325 152.914 71.8524C149.048 67.3636 144.226 63.7969 138.802 61.4149C134.367 59.4741 129.624 58.3346 124.792 58.0497C109.338 57.0707 90.6516 62.572 75.9436 70.704C69.9995 73.7435 63.5224 75.6008 56.8709 76.1737C51.9136 76.74 46.8987 76.5415 42.0017 75.5848C17.3827 69.9848 14.854 60.3466 14.762 45.4266C14.708 36.6096 16.708 21.2651 41.241 0.0340576C47.841 -5.67394 79.199 -7.55513 98.867 -7.95813C106.683 -8.11913 112.534 -7.63563 114.606 -6.27063" stroke="#707070" stroke-width="0.2" stroke-miterlimit="10"/>
<path d="M162.135 214.263C159.298 226.858 150.886 236.301 140.726 239.414C138.988 239.942 137.197 240.277 135.386 240.414C126.136 241.125 114.8 236.904 109.772 227.443C102.08 212.958 114.944 196.97 115.099 196.295C119.916 190.682 125.148 189.22 130.444 187.476C132.988 186.698 135.48 185.761 137.905 184.669C142.659 182.333 147.001 179.238 150.759 175.505C164.931 161.805 175.177 138.386 175.379 116.445C175.399 114.283 175.335 112.095 175.168 109.906C173.992 93.9337 167.395 77.9697 156.735 66.9057C152.335 62.276 146.963 58.6806 141.006 56.3773C136.159 54.5765 131.043 53.6061 125.873 53.5072C109.599 53.0582 90.652 59.2616 76.473 68.3246C71.746 71.3466 64.5553 73.6685 57.2733 74.5815C52.2859 75.2936 47.2172 75.212 42.2552 74.3402C17.6782 69.1672 15.0224 59.4197 15.2704 44.0307C15.4084 35.4697 17.3763 20.0502 42.9623 -1.19882C49.0383 -6.24482 80.6842 -8.33767 100.922 -7.74667C108.987 -7.51167 115.181 -6.64724 117.408 -4.97324" stroke="#707070" stroke-width="0.2" stroke-miterlimit="10"/>
<path d="M161.863 211.09C159.631 225.721 148.922 236.683 136.376 238.13C127.242 239.184 115.783 235.35 110.889 226.008C103.373 211.661 117.32 195.724 118.038 194.928C125.777 186.341 134.068 186.428 143.214 182.495C165.814 172.788 183.413 142.981 182.686 114.116C182.055 89.1764 167.595 59.4293 143.214 51.3333C123.393 44.7503 95.3074 52.5707 77.0134 65.9407C68.9324 71.8457 52.7844 75.0411 42.5134 73.0891C17.9594 68.4271 15.1614 58.4811 15.7844 42.6301C16.1104 34.3171 17.9602 18.6968 44.6892 -2.43823C52.4662 -8.58723 111.872 -10.6184 120.217 -3.68042" stroke="#707070" stroke-width="0.2" stroke-miterlimit="10"/>
</svg>
