<svg width="1018" height="708" viewBox="0 0 1018 708" fill="none" xmlns="http://www.w3.org/2000/svg">
<path d="M0.824219 307.883C9.51208 338.799 14.9326 370.541 16.9971 402.588C19.4521 440.188 15.4891 447.229 16.9971 516.234C17.546 547.949 20.2478 579.591 25.084 610.939C29.797 640.608 33.719 650.56 38.561 655.133C44.433 660.678 51.8322 658.477 57.4302 648.821C63.2882 638.714 66.3771 621.808 65.5171 604.621C64.6838 497.386 63.8504 390.15 63.0171 282.914C62.8171 256.588 71.3222 233.362 82.5522 232.14C83.1601 232.074 83.7729 232.066 84.3823 232.116C96.5953 233.104 103.82 256.73 105.947 263.683C109.671 275.865 109.113 281.297 114.033 320.506C118.4 355.306 120.668 372.93 124.815 383.644C125.584 385.627 135.895 411.518 149.075 408.899C156.514 407.42 163.211 397.19 167.944 389.958C174.5 379.942 176.183 373.142 181.421 371.017C187.193 368.674 192.09 374.11 194.899 377.33C203.661 387.38 206.085 400.692 213.768 421.53C222.849 446.156 231.428 469.424 243.419 472.039C253.486 474.239 261.434 460.887 262.287 459.412C268.567 448.551 268.102 438.78 278.46 402.589C285.86 376.725 288.821 372.211 291.938 371.021C297.853 368.763 303.038 378.978 305.416 383.649C315.065 402.638 316.044 431.917 316.198 440.471V666.161C316.198 690.99 325.66 711.217 336.075 706.594C336.666 706.33 337.23 706.012 337.762 705.645C346.383 699.734 350.273 680.392 353.935 661.445C364.657 605.979 359.747 548.485 356.635 522.545C353.61 497.375 352.303 502.159 348.548 472.035C344.188 436.433 342.386 400.563 343.157 364.703C343.881 328.415 344.694 296.803 353.939 282.625C355.326 280.498 359.62 274.598 364.721 276.313C366.507 276.913 371.555 281.876 380.894 314.195C391.374 350.458 391.645 388.42 391.677 408.9C391.721 438.031 389.277 454.154 386.285 484.664C380.096 547.706 369.853 652.016 386.285 680.387C390.285 687.287 397.003 691.687 402.459 686.701C408.678 681.021 411.559 664.691 413.241 655.132C415.026 644.704 415.928 634.145 415.936 623.565C415.095 575.832 410.161 291.29 413.241 238.431C413.613 232.031 414.55 217.304 418.632 213.176C423.432 208.317 430.774 220 434.805 232.117C439.284 245.577 439.877 260.148 440.196 295.254C440.504 329.099 440.296 353.354 440.196 371.018C439.773 446.424 441.163 434.206 440.196 459.41C439.687 472.678 438.496 496.931 440.196 528.86C441.256 548.812 442.71 558.024 445.587 560.427C449.059 563.327 453.787 555.638 456.369 547.8C459.317 538.837 459.116 530.7 459.069 490.977C459.006 442.501 459.298 448.911 459.069 440.468C458.354 414.181 457.031 407.662 459.069 396.268C461.169 384.508 466.479 369.678 472.546 371.013C479.326 372.503 482.819 393.243 483.328 396.268C486.435 414.709 484.221 432.53 483.328 440.468C480.855 462.459 478.811 494.943 480.633 541.488C480.633 541.488 480.712 544.634 480.965 549.709C482.189 574.277 487.482 644.043 507.588 620.919C507.588 620.919 531.848 547.801 518.37 443.98C518.37 443.98 494.111 288.942 518.37 232.119C518.37 232.119 548.021 162.669 558.803 307.883C558.803 307.883 566.89 383.648 549.637 520.174C549.637 520.174 539.937 642.507 572.281 629.88C572.281 629.88 618.105 547.802 588.454 371.02C588.454 371.02 569.585 251.06 599.236 213.178C599.236 213.178 642.365 162.669 658.931 316.634C658.931 316.634 674.711 389.961 696.275 326.824C696.275 326.824 708.788 250.415 750.186 339.451C782.899 409.807 910.476 325.389 910.476 325.389C934.298 311.955 953.246 293.545 968.041 274.583C999.583 234.01 1016.97 184.222 1017.54 132.834C1018.7 47.772 991.841 1.00098 991.841 1.00098" stroke="#707070" stroke-width="0.5" stroke-miterlimit="10"/>
</svg>
