<svg width="992" height="162" viewBox="0 0 992 162" fill="none" xmlns="http://www.w3.org/2000/svg">
<path d="M0.608398 113.286C52.4594 125.451 85.6744 115.158 102.981 107.264C137.045 91.7267 171.145 57.3637 178.255 50.0547C199.855 27.8487 205.441 15.7021 223.42 10.9131C253.42 2.92009 282.302 24.9128 283.639 25.9678C307.518 44.6928 300.344 62.7486 328.804 107.268C344.691 132.117 358.287 152.746 379.991 155.444C398.849 157.789 414.731 145.465 425.155 137.379C451.098 117.251 448.368 100.712 476.342 65.1152C495.669 40.5212 508.601 24.0642 530.542 19.9512C564.605 13.5612 594.471 41.7901 596.784 44.0381C611.136 57.9901 606.943 64.2539 626.893 92.2139C642.293 113.8 652.043 127.459 669.047 134.368C690.347 143.022 707.347 132.928 732.278 128.346C796.693 116.504 827.713 164.346 871.327 160.88C903.097 158.355 946.017 128.25 991.327 0.879883" stroke="#707070" stroke-miterlimit="10"/>
</svg>
