<svg width="569" height="228" viewBox="0 0 569 228" fill="none" xmlns="http://www.w3.org/2000/svg">
<path d="M1.19141 25.8442C25.0784 -1.17576 42.4863 29.3169 42.4863 29.3169C54.9403 52.5969 71.1772 31.2554 71.1772 31.2554C92.8102 -15.8656 122.234 6.37159 122.234 6.37159C142.275 22.6716 120.934 58.5542 120.934 58.5542C88.1011 111.174 117.671 143.923 117.671 143.923C141.244 152.491 141.237 111.862 141.237 111.862C136.398 65.6198 146.994 42.4224 146.994 42.4224C163.756 -2.69663 181.915 23.7407 181.915 23.7407C196.773 45.3707 169.291 91.7612 169.291 91.7612C152.969 123.214 166.856 150.077 166.856 150.077C180.598 160.307 188.736 138.646 191.121 130.929C191.613 129.335 191.86 128.335 191.86 128.335C196.003 113.647 196.402 102.936 195.852 95.5269C195.652 92.8539 195.052 86.8264 198.486 81.3364C199.049 80.4364 202.912 74.2658 208.099 74.7368C212.742 75.1558 215.849 80.6571 216.73 84.7251C217.584 88.6661 216.2 90.5755 214.096 98.9155C213.421 101.594 214.023 99.5764 211.087 115.131C208.681 127.877 208.045 130.462 209.728 133.752C211.2 136.628 214.3 139.758 217.084 139.311C219.391 138.94 221.033 136.186 223.019 129.928C225.258 122.68 226.647 115.197 227.158 107.628C227.932 99.4014 228.249 103.519 232.425 79.2495C233.403 73.5635 234.691 65.7493 236.939 54.9243C239.271 43.6973 240.586 39.1018 244.756 35.4058C248.51 32.0778 254.723 29.3495 258.047 31.5815C260.871 33.4765 260.698 38.3359 260.597 40.4429C259.763 57.8429 239.097 148.51 235.62 163.718C234.994 167.199 235.044 170.769 235.766 174.231C236.466 177.531 237.655 183.18 241.993 185.873C245.799 188.234 251.117 187.759 254.532 186.101C268.58 179.286 267.093 144.366 266.195 123.261C265.76 113.047 264.886 107.531 266.655 98.1831C267.9 91.6131 270.365 79.4617 280.407 69.2837C289.357 60.2107 293.448 59.3214 294.827 59.3784C297.739 59.6109 300.477 60.8612 302.56 62.9097C308.667 68.7527 307.395 79.0141 305.777 90.7661C304.177 102.502 300.646 113.891 295.327 124.474C290.708 133.622 290.01 131.905 286.236 139.564C282.346 147.458 275.228 165.231 279.986 184.537C281.611 191.13 283.386 197.883 289.515 200.984C289.915 201.184 290.319 201.364 290.727 201.525C298.284 204.462 306.605 199.289 308.085 191.317L321.533 118.855C322.159 116.129 324.64 106.867 333.033 102.116C335.096 100.948 339.607 98.3919 343.921 99.9429C346.194 100.759 348.15 102.622 352.175 111.959C357.808 125.024 356.875 128.097 360.952 132.459C361.505 133.052 366.687 138.448 374.389 139.148C383.562 139.982 391.4 133.71 399.697 127.071C406.716 121.454 409.333 117.516 416.521 115.512C418.821 114.87 422.832 113.813 427.032 115.368C430.845 116.781 431.706 119.199 436.039 123.33C439.168 126.312 443.594 130.529 449.1 132.044C458.856 134.724 468.153 127.852 468.849 127.322C472.607 124.462 475.362 119.121 480.72 108.554C486.756 96.6542 486.66 94.8309 490.187 91.4409C492.201 89.5039 499.042 82.927 508.287 84.314C508.757 84.3853 509.216 84.4733 509.663 84.5786C518.035 86.5376 523.051 95.179 521.328 103.606C514.312 137.921 507.296 172.234 500.28 206.546C499.454 209.177 499.337 211.98 499.943 214.67C500.548 217.361 501.854 219.843 503.728 221.866C505.458 223.734 507.629 225.14 510.042 225.954C512.454 226.768 515.033 226.964 517.541 226.526C521.455 225.734 524.998 223.085 530.31 214.216C535.706 205.121 539.661 195.246 542.035 184.94C547.281 162.995 544.72 160.182 548.807 148.452C552.572 137.643 562.595 119.018 566.613 120.302C568.349 120.857 569.522 125.302 567.328 141.876" stroke="#707070" stroke-width="0.75" stroke-miterlimit="10"/>
</svg>
