<svg width="712" height="306" viewBox="0 0 712 306" fill="none" xmlns="http://www.w3.org/2000/svg">
<path d="M711.478 67.1746C704.749 52.4596 689.998 24.7543 669.987 22.9813C639.029 20.2363 616.669 81.4289 610.343 98.7449C585.829 165.837 593.399 216.972 568.852 256.586C565.963 261.248 550.142 285.903 529.952 281.841C505.831 276.987 489.571 233.981 467.715 174.509C439.855 98.7016 440.629 68.5472 418.444 35.6092C408.452 20.7752 389.221 -7.78017 369.173 4.04083C347.398 16.8788 344.487 65.656 304.342 193.451C276.142 283.222 266.196 295.382 257.665 300.783C232.292 316.843 206.656 281.215 198.021 269.215C179.803 243.898 178.785 224.97 153.936 180.823C153.936 180.823 134.914 147.028 115.036 124C74.7501 77.3258 28.826 90.3704 0.936035 105.058" stroke="#707070" stroke-miterlimit="10"/>
</svg>
