<svg width="658" height="160" viewBox="0 0 658 160" fill="none" xmlns="http://www.w3.org/2000/svg">
<path d="M0.379395 9.56965C6.51639 5.82065 19.6983 -0.930268 35.4473 1.39973C59.8103 5.00873 73.6422 27.8993 77.5562 34.3773C92.7202 59.4773 83.756 74.7945 100.584 91.0775C102.564 92.9935 113.462 103.204 129.484 104.829C148.627 106.769 163.901 95.3218 184.53 79.3978C210.825 59.0978 212.017 49.3055 231.322 41.9505C240.017 38.6365 256.751 32.2592 271.722 38.9622C287.979 46.2432 287.348 62.326 311.113 109.181C327.813 142.096 334.858 147.443 341.206 150.414C360.082 159.252 382.245 151.532 389.706 148.932C405.456 143.447 407.38 137.518 429.434 126.95C440.342 121.849 451.643 117.635 463.227 114.349C475.427 111.097 515.877 104.382 553.549 124.824C581.762 140.133 583.049 157.144 601.322 158.881C622.953 160.936 643.022 139.181 657.322 118.881" stroke="#707070" stroke-width="0.5" stroke-miterlimit="10"/>
</svg>
