<svg xmlns="http://www.w3.org/2000/svg" width="189.206" height="124.767" viewBox="0 0 189.206 124.767">
  <path id="Контур_6" data-name="Контур 6" d="M7371.594,146.268q-1.214,0-2.468-.056a80.315,80.315,0,0,1-16.178-2.592c-3.691-.936-7.4-2.044-11-3.116a148.109,148.109,0,0,0-20.361-5.039l.146-.989a148.86,148.86,0,0,1,20.5,5.07c3.582,1.069,7.285,2.174,10.956,3.1,13.022,3.3,23.093,3.479,31.695.551,11.007-3.745,18.9-13.426,19.2-23.543.282-9.569-5.652-19.168-17.637-28.53q-3.107-2.427-6.378-4.689a47.426,47.426,0,0,1,1.256,5.067c.888,4.67.763,8.478-.381,11.644a16.968,16.968,0,0,1-5.2,7.167,30.107,30.107,0,0,1-7.672,4.557c-6.754,2.863-13.889,4.183-22.523,5.285a394.655,394.655,0,0,1-49.06,2.967l-1.432,0c-10.926,0-19.952-.389-28.3-1.218a156.372,156.372,0,0,1-29.2-5.5,47.044,47.044,0,0,1-11.879-5.084,24.634,24.634,0,0,1-4.923-4.033,18.464,18.464,0,0,1-3.486-5.361,19.157,19.157,0,0,1-1.155-10.183,24.619,24.619,0,0,1,3.659-9.689,33.029,33.029,0,0,1,6.807-7.522,53.509,53.509,0,0,1,8.422-5.607,85.277,85.277,0,0,1,14.313-6.193,102.033,102.033,0,0,1,15.12-3.691,142.4,142.4,0,0,1,31.191-1.445,176.039,176.039,0,0,1,48.191,9.4,153.285,153.285,0,0,1,34.353,16.923c-6.664-17.814-23.149-30.009-36.676-37.388-15.5-8.454-32.077-16.868-48.3-21.155-19.512-5.157-34.876-3.469-46.97,5.161l-.581-.814a42.935,42.935,0,0,1,10.933-5.639,48.022,48.022,0,0,1,11.8-2.416,63.658,63.658,0,0,1,12.382.284,91.024,91.024,0,0,1,12.688,2.458,156.777,156.777,0,0,1,25.238,9.364c8.367,3.842,16.463,8.161,23.28,11.879a113.216,113.216,0,0,1,13.207,8.394,85.958,85.958,0,0,1,11.752,10.423,57.728,57.728,0,0,1,12.628,20.382q3.855,2.623,7.506,5.475a60.271,60.271,0,0,1,12.6,12.82c3.761,5.446,5.586,11.006,5.423,16.527a24.464,24.464,0,0,1-6.165,15.169,31.694,31.694,0,0,1-13.713,9.292A41.739,41.739,0,0,1,7371.594,146.268Zm-85.2-87.925c-19.939,0-37.03,3.845-50.9,11.468-6.914,3.8-11.778,7.982-14.869,12.793-3.875,6.03-4.8,13.289-2.422,18.943,2.654,6.3,8.9,10.724,19.65,13.908,19.56,5.791,39.692,6.674,57,6.674l1.638,0a393.662,393.662,0,0,0,48.936-2.959c8.553-1.091,15.611-2.4,22.26-5.214,4.47-1.894,10.236-5.365,12.326-11.144,1.082-2.992,1.192-6.628.339-11.117a47.2,47.2,0,0,0-1.611-6.167c-23.307-15.726-52.462-25.213-83.164-26.922Q7290.887,58.343,7286.39,58.343Z" transform="translate(-7215.894 -21.502)" fill="#b5bcc6"/>
</svg>
