<svg width="587" height="1035" viewBox="0 0 587 1035" fill="none" xmlns="http://www.w3.org/2000/svg">
<path d="M48.8242 41.3748C117.507 -3.02518 163.772 -3.33818 193.824 5.37482C301.775 36.6748 341.863 225.467 406.824 215.375C425.75 212.435 433.315 194.707 460.824 195.375C488.615 196.05 512.699 214.915 524.824 231.375C565.448 286.521 533.386 398.229 476.824 420.375C429.965 438.722 396.238 383.875 329.824 401.375C294.072 410.795 252.595 440.192 252.824 470.375C253.073 503.22 302.564 517.975 429.824 592.375C545.024 659.723 561.816 681.157 571.824 703.375C591.493 747.04 593.884 813.547 560.824 859.375C513.824 924.535 424.034 907.847 395.824 973.375C385.785 996.694 388.049 1019.96 390.824 1034.37" stroke="#707070" stroke-width="0.5" stroke-miterlimit="10"/>
<path d="M49.7051 51.5889C115.41 7.3889 160.759 5.4188 190.899 13.3428C198.531 15.3883 205.928 18.2301 212.966 21.8203C249.851 40.4203 278.78 77.6756 303.151 115.395C338.71 170.454 363.342 224.239 397.372 219.781C414.533 217.533 420.922 201.219 446.203 202.2C454.051 202.581 461.747 204.507 468.849 207.868C484.043 214.854 496.449 227.082 503.735 238.325C535.624 287.548 513.796 380.967 470.515 417.911C465.597 422.161 460.108 425.7 454.208 428.428C409.882 448.428 378.759 398.349 317.524 417.296C299.606 423.096 283.16 432.718 269.324 445.496C256.758 457.296 248.102 471.113 249.334 485.004C251.685 511.498 288.387 525.417 374.704 569.611C390.593 577.746 408.718 586.768 428.52 597.511C443.06 605.399 456.136 612.717 467.758 619.58C548.216 667.463 561.558 687.08 570.177 707.875C588.085 751.064 590.377 816.106 555.277 863.351C509.021 925.614 419.422 910.619 389.203 972.705C378.427 994.844 379.523 1016.78 381.803 1030.21" stroke="#707070" stroke-width="0.5" stroke-miterlimit="10"/>
<path d="M50.5864 61.8041C113.314 17.7941 157.735 14.1849 187.974 21.3109C195.505 23.1423 202.817 25.7781 209.784 29.1722C246.294 46.6722 275.62 82.6829 299.559 120.019C334.55 174.632 355.613 227.458 387.919 224.185C403.346 222.622 408.533 207.723 431.582 209.024C438.65 209.519 445.533 211.511 451.772 214.869C465.367 221.917 476.347 234.009 482.646 245.275C510.118 294.411 488.2 386.859 447.005 425.41C442.392 429.779 437.207 433.502 431.593 436.479C389.871 458.27 361.221 412.801 305.224 433.215C289.964 438.778 273.91 449.533 262.224 461.715C251.157 473.253 243.508 486.496 245.85 499.629C250.359 524.923 288.378 537.815 372.985 577.276C388.758 584.631 407.227 592.626 427.221 602.651C441.903 610.009 455.221 616.908 466.937 623.598C547.47 669.578 560.06 690.198 568.537 712.378C584.825 754.997 586.895 818.662 549.728 867.33C504.338 926.765 414.792 913.404 382.58 972.037C373.587 988.517 370.151 1007.46 372.78 1026.05" stroke="#707070" stroke-width="0.5" stroke-miterlimit="10"/>
<path d="M51.4673 72.0174C111.217 28.2024 154.701 22.9591 185.049 29.2811C192.477 30.8989 199.704 33.3286 206.601 36.5262C242.737 52.9262 272.46 87.6904 295.968 124.642C330.39 178.81 347.982 225.691 378.468 228.589C392.168 229.889 396.147 214.217 416.962 215.846C423.259 216.461 429.328 218.522 434.697 221.867C446.681 228.978 456.241 240.919 461.558 252.222C484.606 301.216 462.608 392.722 423.497 432.907C419.177 437.39 414.297 441.297 408.978 444.531C369.834 468.031 343.611 427.245 292.924 449.131C279.224 455.047 265.178 466.08 255.124 477.931C245.564 489.201 238.94 501.912 242.364 514.252C249.075 538.436 288.452 550.178 371.264 584.934C386.937 591.511 405.734 598.477 425.919 607.783C440.744 614.612 454.283 621.113 466.113 627.611C546.63 671.835 558.575 693.284 566.89 716.876C581.684 758.849 583.438 821.211 544.176 871.305C499.758 927.977 410.141 916.197 375.954 971.366C363.687 991.161 362.463 1010.43 363.748 1021.88" stroke="#707070" stroke-width="0.5" stroke-miterlimit="10"/>
<path d="M52.3481 82.2321C109.12 38.6101 151.656 31.7438 182.124 37.2478C189.449 38.6551 196.594 40.8785 203.424 43.8767C239.185 59.1767 269.305 92.6963 292.382 129.266C326.234 182.99 340.982 226.541 369.019 232.995C380.819 235.71 383.771 220.695 402.345 222.67C407.869 223.256 412.945 225.627 417.625 228.87C427.984 236.046 436.138 247.819 440.473 259.17C459.104 307.962 437.015 398.552 399.991 440.403C395.959 444.998 391.384 449.087 386.367 452.581C349.804 477.781 325.911 441.693 280.628 465.052C268.463 471.328 256.463 482.623 248.028 494.153C239.988 505.144 234.418 517.365 238.883 528.881C247.862 552.038 288.621 562.505 369.551 592.6C385.143 598.4 404.251 604.336 424.626 612.92C439.592 619.22 453.354 625.32 465.297 631.627C545.786 674.108 557.118 696.346 565.254 721.378C578.666 762.644 580.017 823.766 538.635 875.283C495.28 929.254 405.48 918.999 369.335 970.696C356.312 989.325 353.935 1007.25 354.727 1017.71" stroke="#707070" stroke-width="0.5" stroke-miterlimit="10"/>
<path d="M53.2241 92.4458C107.024 49.0168 148.597 40.5404 179.194 45.2154C186.413 46.4142 193.471 48.4329 200.232 51.231C235.618 65.431 266.132 97.7052 288.78 133.89C322.064 187.169 332.88 241.019 359.557 237.4C369.876 239.709 371.391 227.159 387.714 229.494C392.414 230.166 396.626 232.62 400.539 235.869C409.253 243.103 416.024 254.701 419.375 266.122C433.611 314.647 411.402 404.359 376.475 447.904C372.722 452.611 368.452 456.881 363.744 460.634C329.767 487.523 308.09 456.183 268.321 480.974C257.652 487.625 247.75 499.149 240.921 510.37C234.412 521.07 229.939 532.832 235.39 543.503C246.728 565.696 288.875 574.768 367.825 600.261C383.355 605.277 402.751 610.189 423.319 618.053C438.427 623.825 452.412 629.533 464.468 635.639C544.92 676.388 555.668 699.38 563.604 725.875C575.734 766.384 576.612 826.321 533.08 879.256C490.871 930.582 400.78 921.803 362.709 970.025C348.921 987.489 345.409 1004.08 345.699 1013.54" stroke="#707070" stroke-width="0.5" stroke-miterlimit="10"/>
<path d="M54.1104 102.661C104.927 59.426 145.54 49.3495 176.274 53.1825C183.386 54.175 190.36 55.9875 197.055 58.5829C232.066 71.6829 262.98 102.712 285.194 138.515C317.909 191.349 325.24 245.037 350.11 241.804C358.71 245.163 359.044 233.59 373.098 236.317C376.987 237.071 380.309 239.606 383.467 242.87C390.514 250.151 395.932 261.57 398.291 273.07C408.172 321.27 385.791 410.133 352.967 455.402C349.486 460.223 345.52 464.673 341.131 468.685C309.738 497.248 290.158 470.759 256.023 496.893C246.808 503.949 239.058 515.647 233.823 526.587C228.856 536.974 225.528 548.306 231.907 558.128C245.707 579.384 289.233 586.955 366.107 607.928C381.595 612.153 401.261 616.047 422.02 623.192C437.271 628.434 451.476 633.749 463.647 639.658C544.047 678.688 554.257 702.401 561.962 730.379C572.899 770.093 573.245 828.892 527.533 883.236C486.542 931.967 396.062 924.612 356.089 969.356C341.526 985.656 336.883 1000.9 336.676 1009.38" stroke="#707070" stroke-width="0.5" stroke-miterlimit="10"/>
<path d="M54.9912 112.875C102.83 69.8344 142.47 58.1758 173.349 61.1528C180.354 61.94 187.242 63.5445 193.873 65.935C228.509 77.935 259.82 107.718 281.603 143.135C313.749 195.525 317.603 249.053 340.657 246.205C347.534 250.615 346.728 239.973 358.477 243.136C361.562 243.966 363.977 246.574 366.391 249.866C371.746 257.166 375.847 268.417 377.202 280.015C382.786 327.827 360.16 415.879 329.458 462.897C326.239 467.833 322.576 472.465 318.515 476.736C289.706 506.96 272.115 485.498 243.723 512.811C235.923 520.317 230.371 532.111 226.723 542.802C223.3 552.846 221.174 563.765 228.423 572.75C244.805 593.061 289.686 599.045 364.39 615.583C379.858 619.007 399.772 621.896 420.723 628.32C436.116 633.034 450.54 637.955 462.823 643.664C543.169 680.99 552.872 705.394 560.317 734.871C570.138 773.759 569.906 831.465 521.984 887.204C482.276 933.39 391.313 927.403 349.465 968.677C334.118 983.814 328.354 997.717 327.65 1005.2" stroke="#707070" stroke-width="0.5" stroke-miterlimit="10"/>
<path d="M55.8721 123.089C100.733 80.2421 139.393 67.0164 170.424 69.1204C177.321 69.7042 184.124 71.1036 190.691 73.2893C224.952 84.1893 256.66 112.726 278.011 147.763C309.588 199.707 309.959 253.076 331.205 250.615C336.36 256.074 334.49 246.297 343.856 249.964C346.156 250.864 347.633 253.524 349.315 256.871C352.966 264.135 355.778 275.266 356.115 286.971C357.472 334.356 334.515 421.612 305.95 470.402C302.987 475.458 299.627 480.27 295.902 484.794C269.67 516.665 254.029 500.495 231.424 528.74C225.001 536.764 221.68 548.54 219.624 559.03C217.735 568.693 216.872 579.211 224.938 587.383C244.002 606.698 290.225 611.032 362.671 623.253C378.136 625.862 398.281 627.753 419.423 633.461C434.959 637.646 449.6 642.179 462.006 647.685C542.286 683.321 551.529 708.385 558.679 739.377C567.455 777.415 566.608 834.071 516.441 891.187C478.074 934.87 386.541 930.205 342.848 968.014C326.707 981.983 319.833 994.546 318.632 1001.04" stroke="#707070" stroke-width="0.5" stroke-miterlimit="10"/>
<path d="M56.7534 133.304C98.6374 90.6509 136.312 75.8741 167.5 77.0891C174.288 77.4647 181.007 78.6571 187.509 80.6409C221.416 90.3729 253.5 117.735 274.42 152.387C305.428 203.887 302.32 257.092 321.753 255.018C325.186 261.528 321.764 253.868 329.235 256.788C330.605 258.041 331.295 260.436 332.235 263.871C334.715 273.683 335.654 283.819 335.02 293.919C332.229 340.855 308.827 427.314 282.435 477.899C279.721 483.08 276.662 488.072 273.28 492.844C249.618 526.351 235.993 515.812 219.118 544.657C214.067 553.29 212.954 564.915 212.518 575.247C212.132 584.49 212.598 594.614 221.446 602.007C243.277 620.25 290.836 622.882 360.946 630.916C376.425 632.689 396.784 633.616 418.117 638.596C433.795 642.252 448.654 646.397 461.179 651.697C541.385 685.655 550.214 711.354 557.03 743.873C564.821 781.043 563.335 836.69 510.887 895.159C473.912 936.379 381.733 932.975 336.221 967.34C319.275 980.134 311.3 991.365 309.602 996.873" stroke="#707070" stroke-width="0.5" stroke-miterlimit="10"/>
<path d="M57.6343 143.517C96.5403 101.057 133.321 82.6272 164.575 85.0562C171.232 85.4582 177.841 86.4418 184.327 87.9947C217.858 96.6237 250.34 122.741 270.827 157.011C301.266 208.066 294.676 261.111 312.298 259.423C314.011 266.983 309.367 260.442 314.612 263.612C315.153 264.98 314.982 267.324 315.161 270.872C315.722 280.888 315.311 290.935 313.933 300.872C307.073 347.356 283.125 433.003 258.927 485.398C256.456 490.71 253.698 495.884 250.667 500.898C229.567 536.031 218.173 531.455 206.82 560.58C203.182 569.914 204.186 581.267 205.42 591.468C206.488 600.268 208.354 609.984 217.963 616.635C242.619 633.706 291.963 647.284 359.229 638.582C374.635 636.589 395.295 639.47 416.82 643.734C432.64 646.861 447.714 650.619 460.359 655.715C540.484 688.015 548.95 714.321 555.389 748.378C562.251 784.667 560.111 839.347 505.342 899.139C469.805 937.934 376.909 935.739 329.601 966.673C311.843 978.286 302.775 988.195 300.58 992.711" stroke="#707070" stroke-width="0.5" stroke-miterlimit="10"/>
<path d="M58.5142 153.733C94.4432 111.466 130.174 91.4869 161.65 93.0259C168.204 93.229 174.727 94.0049 181.145 95.3462C214.299 102.874 247.18 127.746 267.237 161.634C297.108 212.244 287.037 265.129 302.848 263.827C302.839 272.435 296.975 267.013 299.993 270.432C299.705 271.916 298.718 274.202 298.086 277.871C296.912 284.696 295.686 295.782 292.846 307.816C281.991 353.866 257.393 438.669 235.42 492.891C233.075 498.677 230.532 504.039 228.053 508.948C209.496 545.696 205.731 548.858 194.522 576.496C194.146 587.027 195.428 597.551 198.322 607.683C200.786 616.037 204.122 625.309 214.479 631.257C241.994 647.052 293.458 658.776 357.512 646.241C372.769 643.256 393.806 645.322 415.522 648.866C431.484 651.466 446.773 654.838 459.539 659.726C539.576 690.374 547.734 717.272 553.749 752.874C559.729 788.274 556.933 842.035 499.796 903.112C465.739 939.517 372.066 938.462 322.981 966C304.403 976.422 294.25 985.013 291.558 988.541" stroke="#707070" stroke-width="0.5" stroke-miterlimit="10"/>
<path d="M59.395 163.946C92.346 121.874 127.057 102.567 158.725 100.993C165.183 100.778 171.644 101.352 177.963 102.7C210.74 109.128 244.02 132.755 263.646 166.259C292.946 216.424 279.397 269.148 293.395 268.233C291.665 277.891 284.58 273.587 285.372 277.257C283.584 279.588 282.117 282.15 281.01 284.871C278.378 291.561 275.688 302.632 271.757 314.766C256.969 360.414 231.628 444.336 211.91 500.391C209.829 506.305 207.588 511.853 205.438 517C189.413 555.361 183.552 563.223 182.222 592.416C181.722 603.302 186.461 613.992 191.222 623.903C195.035 631.836 199.879 640.608 210.994 645.882C241.374 660.303 294.919 669.788 355.794 653.904C370.904 649.961 392.315 651.176 414.223 654.004C430.323 656.073 445.83 659.068 458.723 663.745C538.667 692.761 546.574 720.223 552.112 757.378C557.255 791.878 553.812 844.778 494.255 907.092C461.714 941.142 367.213 941.168 316.366 965.333C296.966 974.555 285.729 981.84 282.54 984.378" stroke="#707070" stroke-width="0.5" stroke-miterlimit="10"/>
<path d="M60.2764 174.161C90.2504 132.282 123.976 111.508 155.8 108.961C162.148 108.553 168.522 108.92 174.781 110.053C207.181 115.382 240.86 137.763 260.055 170.883C288.787 220.603 271.755 273.166 283.943 272.637C280.492 283.346 272.186 280.16 270.751 284.081C268.076 286.296 265.775 288.927 263.934 291.872C259.87 298.491 255.707 309.494 250.668 321.715C231.994 367.006 205.832 449.995 188.4 507.888C186.581 513.931 184.642 519.665 182.822 525.052C169.316 565.025 166.716 579.006 169.922 608.336C171.192 619.965 177.528 630.421 184.122 640.122C189.258 647.674 195.632 655.878 207.509 660.509C240.743 673.466 293.72 668.765 354.074 661.569C369.707 659.705 390.824 657.034 412.923 659.137C429.17 660.677 444.885 663.293 457.896 667.757C537.742 695.157 545.459 723.163 550.464 761.875C554.809 795.483 550.736 847.565 488.702 911.065C457.71 942.79 362.342 943.836 309.739 964.66C289.508 972.668 277.198 978.66 273.511 980.208" stroke="#707070" stroke-width="0.5" stroke-miterlimit="10"/>
<path d="M61.1572 184.375C88.1572 142.69 120.894 120.475 152.875 116.929C159.113 116.332 165.4 116.493 171.599 117.406C203.62 121.638 237.699 142.77 256.463 175.506C284.627 224.781 264.116 277.183 274.491 277.041C269.318 288.8 260.314 287.258 256.13 290.903C253.624 293.087 250.081 295.003 246.858 298.871C241.358 305.471 235.736 316.371 229.58 328.663C207.051 373.647 180.004 455.655 164.891 515.386C163.33 521.557 161.691 527.477 160.207 533.103C149.207 574.689 150.051 594.559 157.621 624.255C160.754 636.545 168.582 646.903 177.021 656.34C183.475 663.553 191.368 671.126 204.021 675.134C240.085 686.556 294.414 679.848 352.352 669.235C368.017 666.364 389.33 662.891 411.62 664.275C428.01 665.286 443.937 667.526 457.071 671.775C536.816 697.575 544.409 726.105 548.818 766.374C552.399 799.087 547.733 850.427 483.151 915.041C453.737 944.469 357.472 946.478 303.114 963.989C282.055 970.773 268.668 975.482 264.485 976.041" stroke="#707070" stroke-width="0.5" stroke-miterlimit="10"/>
<path d="M62.0381 194.589C86.0561 153.098 117.822 129.459 149.95 124.899C156.078 124.113 162.277 124.065 168.416 124.758C200.06 127.898 234.54 147.778 252.872 180.131C280.472 228.961 256.472 281.202 265.038 281.446C258.144 294.255 247.709 293.756 241.509 297.726C238.06 299.935 233.867 301.99 229.781 305.872C222.818 312.49 215.772 323.26 208.491 335.613C182.126 380.341 154.146 461.318 141.381 522.884C140.075 529.184 138.746 535.29 137.591 541.156C129.091 584.356 133.438 609.866 145.321 640.175C150.363 653.034 159.642 663.431 169.921 672.559C177.701 679.466 187.09 686.359 200.537 689.759C239.4 699.589 295.047 690.794 350.637 676.894C366.315 672.973 387.843 668.746 410.324 669.409C426.856 669.89 442.995 671.757 456.253 675.788C535.893 699.996 543.434 729.047 547.179 770.876C550.029 802.7 544.817 853.375 477.608 919.018C449.797 946.179 352.614 949.095 296.496 963.319C274.61 968.867 260.145 972.305 255.465 971.875" stroke="#707070" stroke-width="0.5" stroke-miterlimit="10"/>
<path d="M62.9243 204.803C83.9653 163.503 114.763 138.471 147.03 132.867C153.049 131.9 159.161 131.647 165.239 132.112C196.501 134.219 231.385 152.784 249.286 184.755C276.311 233.14 248.841 285.222 255.591 285.856C246.975 299.715 235.202 300.243 226.891 304.555C222.552 306.808 217.644 308.991 212.708 312.878C204.263 319.531 195.814 330.168 187.408 342.566C157.208 387.087 128.266 466.994 117.878 530.387C116.824 536.817 115.801 543.11 114.978 549.212C108.957 594.036 116.799 624.964 133.023 656.099C139.98 669.451 150.723 679.994 162.823 688.784C171.946 695.409 182.798 701.583 197.054 704.389C238.681 712.589 295.588 701.63 348.918 684.561C364.583 679.548 386.352 674.604 409.025 674.547C425.698 674.501 442.049 675.995 455.431 679.804C534.965 702.442 542.531 731.994 545.531 775.379C547.677 806.321 541.99 856.441 472.055 922.998C445.869 947.92 347.755 951.686 289.87 962.653C267.16 966.953 251.613 969.132 246.436 967.712" stroke="#707070" stroke-width="0.5" stroke-miterlimit="10"/>
<path d="M63.8003 215.017C81.8633 173.917 111.7 147.506 144.1 140.834C150.011 139.682 156.035 139.222 162.052 139.464C192.939 140.472 228.22 157.792 245.689 189.379C272.146 237.32 241.195 289.239 246.134 290.256C235.797 305.165 222.734 306.724 212.267 311.375C207.067 313.688 201.404 315.983 195.629 319.875C185.684 326.575 175.851 337.08 166.313 349.513C132.285 393.867 102.348 472.671 94.3623 537.884C93.5623 544.444 92.8443 550.921 92.3623 557.261C88.8183 603.713 100.092 639.895 120.723 672.017C129.576 685.803 141.823 696.568 155.723 705.001C167.254 712.197 180.131 716.965 193.568 719.013C237.925 725.544 296.009 712.372 347.199 692.223C366.552 684.759 386.999 680.521 407.725 679.68C424.541 679.104 441.102 680.234 454.61 683.819C534.035 704.899 541.701 734.943 543.893 779.878C545.36 809.948 539.293 859.636 466.512 926.972C441.969 949.681 342.921 954.255 283.253 961.982C259.724 965.029 243.091 965.956 237.417 963.545" stroke="#707070" stroke-width="0.5" stroke-miterlimit="10"/>
<path d="M64.6812 225.233C79.7662 184.323 108.665 156.566 141.175 148.801C146.978 147.466 152.915 146.801 158.87 146.818C189.382 146.725 225.06 162.798 242.098 194.003C267.986 241.503 233.555 293.258 236.681 294.662C224.623 310.62 210.29 313.22 197.646 318.199C191.591 320.584 185.16 322.983 178.553 326.874C167.093 333.622 155.89 344.004 145.224 356.461C107.354 400.689 76.413 478.361 70.853 545.38C70.298 552.072 69.8911 558.736 69.7451 565.312C68.6711 613.401 83.3064 654.712 108.421 687.936C118.28 700.634 130.588 711.222 144.616 719.073C158.644 726.923 174.107 731.875 190.085 733.636C237.139 738.482 296.299 723.054 345.485 699.883C361.012 692.569 383.374 686.311 406.43 684.814C423.388 683.714 440.16 684.472 453.793 687.831C533.11 707.369 540.966 737.898 542.256 784.374C543.066 813.585 536.733 863.009 460.97 930.946C438.083 951.468 338.102 956.8 276.636 961.306C252.295 963.091 234.57 962.775 228.398 959.373" stroke="#707070" stroke-width="0.5" stroke-miterlimit="10"/>
<path d="M65.5622 235.446C77.6692 194.73 105.641 165.646 138.25 156.769C143.947 155.252 149.796 154.38 155.688 154.169C185.825 152.978 221.9 167.806 238.507 198.627C263.826 245.678 225.914 297.276 227.229 299.065C213.449 316.074 197.862 319.721 183.029 325.022C176.129 327.486 168.913 329.982 161.48 333.874C148.495 340.674 135.93 350.939 124.139 363.41C82.4133 407.543 50.4613 484.066 47.3473 552.879C47.0383 559.703 46.9424 566.552 47.1334 573.364C48.5254 623.095 66.4512 669.464 96.1242 703.856C108.562 718.298 124.075 729.771 141.525 737.436C155.792 743.679 171.053 747.345 186.599 748.262C236.32 751.411 296.442 733.712 343.762 707.547C359.154 699.037 381.881 692.166 405.128 689.947C422.228 688.313 439.21 688.714 452.968 691.847C532.177 709.858 540.316 740.873 540.611 788.876C540.785 817.245 534.349 866.617 455.42 934.924C434.2 953.288 333.293 959.34 270.012 960.639C244.864 961.156 226.04 959.6 219.372 955.209" stroke="#707070" stroke-width="0.5" stroke-miterlimit="10"/>
<path d="M66.4435 245.662C75.5735 205.139 102.634 174.755 135.325 164.739C140.917 163.041 146.679 161.962 152.506 161.523C182.268 159.233 218.74 172.813 234.915 203.251C259.665 249.857 218.274 301.294 217.776 303.47C202.276 321.53 185.443 326.233 168.405 331.845C160.224 334.348 152.208 337.364 144.405 340.875C129.885 347.724 115.964 357.882 103.051 370.36C57.4514 414.424 24.4884 489.786 23.8394 560.377C23.7754 567.336 23.9801 574.371 24.5191 581.416C28.3031 632.803 49.5283 684.167 83.8253 719.777C97.98 734.672 115.262 746.243 134.425 753.657C150.021 759.45 166.482 762.57 183.115 762.888C235.476 764.332 296.436 744.371 342.045 715.211C357.254 705.486 380.39 698.023 403.828 695.084C421.071 692.922 438.26 692.991 452.148 695.86C531.221 712.504 539.768 743.859 538.968 793.374C538.523 820.919 532.192 870.533 449.868 938.899C430.318 955.133 328.5 961.865 263.386 959.965C237.438 959.209 217.509 956.42 210.344 951.04" stroke="#707070" stroke-width="0.5" stroke-miterlimit="10"/>
<path d="M67.3244 255.875C74.5054 208.801 108.959 173.531 149.324 168.875C178.711 165.485 215.58 177.821 231.324 207.875C255.505 254.036 210.634 305.313 208.324 307.875C183.424 335.5 156.751 335.234 127.324 347.875C54.6245 379.105 -2.02555 475.006 0.324451 567.875C2.35545 648.119 48.8814 743.823 127.324 769.875C191.099 791.056 281.459 765.892 340.324 722.875C366.324 703.875 418.28 693.601 451.324 699.875C530.324 714.875 539.324 746.875 537.324 797.875C536.275 824.618 530.324 874.875 444.324 942.875C419.302 962.66 228.174 969.196 201.324 946.875" stroke="#707070" stroke-width="0.5" stroke-miterlimit="10"/>
</svg>
