<?xml version="1.0" encoding="UTF-8"?><svg id="a" xmlns="http://www.w3.org/2000/svg" viewBox="0 0 749.16 616.76"><defs><style>.b{fill:none;stroke:#000;stroke-miterlimit:10;stroke-width:.25px;}</style></defs><path class="b" d="M744.39,.06c-23.41,38.96-47.38,52.23-65.95,56.68-22.28,5.33-30.27-3.62-61.51,.89-33.91,4.89-73.07,22.45-73.39,41.04-.21,12.06,16.11,13.57,20.42,30.85,5.75,23.05-14.65,54.94-37.12,58.32-12.56,1.89-25.78-5.14-37.11-11.16-15.37-8.17-18.39-14.55-27.17-13.88-10.97,.85-21.92,12.02-23.61,24.37-1.67,12.16,6.14,21.83,6.58,22.37,5.93,7.14,12.05,6.7,15.48,14.08,2.27,4.87,2.19,10.58,.7,14.78-4.5,12.77-25.37,21.31-36.82,15.29-16.38-8.61-3.79-41.97-23.76-58.02-11.14-8.95-26.77-10.49-28.64-7.17-2.46,4.38,18.99,17.18,16.38,23.33-3.06,7.22-33.57-8.4-66.97-1.15-40.28,8.74-72.05,47.95-65.58,63.45,4.07,9.74,22.16,7.52,22.85,14.34,.86,8.53-26.19,24.68-43.64,16.89-19.09-8.52-14.18-40.11-26.17-42.12-14.59-2.45-38.67,41.52-28.39,54.94,3.36,4.38,9.22,3.99,16.16,12.26,1.63,1.94,8.51,10.12,6.23,14.98-2.65,5.63-16,3.31-25.94,3.38-37.81,.28-79.15,35.65-78.47,62.99,.32,13.12,18.88,2.57,18.94,12.05,.27,44.28-55.52,23.99-82.37,42.87-45.68,32.13-40.01,130.37-22.65,135.68,11.34,3.47,33.35-31.02,42.27-47.68,19.16-35.8,16.08-60.62,33.1-66.45,11.15-3.82,26.39,2.06,32.17,11.6,7.88,12.99-5.91,25.97,1.08,38.77,7.04,12.89,24.68,6.42,44.28,16.94,31.84,17.1,25.6,55.84,43.96,60.58,30.29,7.84,7.63-80.75,63.64-69.36,43.95,8.94,50.49,51.03,68.48,53.77,11.1,1.69,26.26-16.78,31.4-35.77,10.05-37.17-22.81-59.69-11.66-87.1,7.52-18.48,32.16-32.09,53.35-30.69,32.87,2.17,37.84,39.15,95.89,87.02,27.28,22.49,51.56,41.93,82.83,39.22,21.24-1.85,48.47-14.15,54.73-34.94,7.25-24.07-19.51-39.89-15.01-62.01,3.17-15.58,21.8-34.13,89.6-47.23"/><path class="b" d="M708.34,429.95c-65.99,12.63-84.19,30.56-87.34,45.59-4.42,21.44,21.56,36.74,14.48,60.07-6.13,20.12-32.62,32.01-53.28,33.72-18.05,1.49-33.68-4.59-48.93-14.37-10.45-6.71-20.71-15.14-31.45-24.06-56.32-46.59-60.99-82.53-92.73-84.63-20.53-1.36-44.4,11.88-51.62,29.85-10.73,26.65,21.33,48.55,11.67,84.67-4.93,18.46-19.61,36.41-30.34,34.75-8.14-1.25-13.84-10.87-21.96-21.64-9.23-12.29-21.6-26.08-44.3-30.74-54.32-11.13-32.18,74.92-61.52,67.22-17.77-4.68-11.63-42.4-42.52-59.1-19.01-10.28-36.12-4.03-42.93-16.61-6.76-12.48,6.67-25.14-.96-37.81-5.6-9.31-20.39-15.06-31.2-11.39-16.5,5.59-13.45,29.64-32.03,64.36-8.63,16.13-30,49.61-40.98,46.14-16.79-5.3-22.21-101.02,22.29-132.41,26.17-18.48,80.48,1.13,80.29-42.01-.04-9.24-18.06,.99-18.35-11.79-.55-26.69,39.75-61.15,76.65-61.42,9.92-.06,23.09,2.48,25.76-2.74,2.34-4.55-4.32-12.38-5.8-14.13-6.65-7.86-12.18-7.36-15.27-11.51-9.63-12.92,14.11-55.57,28.69-53.21,11.93,1.94,7.44,32.59,26.26,40.79,17.23,7.48,43.82-8.35,43.17-16.79-.51-6.72-18.08-4.63-21.86-14.23-3.3-8.36,4.51-23.57,18.45-37.19,11.8-11.53,27.74-21.8,45.54-25.97,7.9-1.83,15.65-2.38,22.92-2.21,22.5,.53,40.14,7.83,42.54,2.32,2.65-6.09-18.12-18.66-15.58-23.01,1.95-3.34,17.29-1.93,28.27,6.69,19.76,15.42,7.88,47.75,24.1,56.11,8.67,4.44,22.62,.75,30.78-6.66,2.57-2.33,4.57-5.02,5.64-7.95,1.48-4.01,1.59-9.49-.61-14.14-3.33-7.06-8.82-6.94-15.05-13.34-.41-.42-8.04-9.67-6.42-21.36,1.64-11.79,12.29-22.46,23.04-23.11,5.52-.35,8.75,2.13,14.35,6.08,3.14,2.21,7.02,4.87,12.44,7.74,11.19,5.92,24.26,12.77,36.71,10.9,18.41-2.76,35.46-24.62,37.76-44.96,.48-4.23,.32-8.39-.6-12.3-4.05-16.97-19.83-18.62-19.57-30.54,.45-18.55,38.5-36.14,71.59-41.32,20.63-3.2,30.94-.37,42.31,.14,5.4,.26,11.03-.01,18.13-1.72,18.35-4.42,42.1-17.35,65.55-55"/><path class="b" d="M693.69,430.84c-64.18,12.17-81.99,29.45-85.08,43.95-4.41,20.74,20.86,35.54,13.95,58.13-5.99,19.46-31.75,30.92-51.83,32.51-17.54,1.38-32.72-4.6-47.5-14.16-10.12-6.57-20.05-14.79-30.44-23.47-54.59-45.32-58.95-80.22-89.58-82.24-19.86-1.31-42.97,11.55-49.9,29.01-10.32,25.89,20.94,47.16,11.69,82.24-4.73,17.93-18.92,35.35-29.28,33.72-7.86-1.23-13.36-10.58-21.21-21.05-8.89-11.96-20.85-25.39-42.82-29.94-52.64-10.88-31.02,72.65-59.41,65.08-17.18-4.6-11.15-41.32-41.09-57.61-18.43-10.03-35.01-4.01-41.58-16.28-6.54-12.16,6.54-24.51-.84-36.86-5.41-9.08-19.75-14.71-30.23-11.18-15.97,5.35-12.96,28.63-30.96,62.27-8.34,15.59-29.06,48.06-39.68,44.6-16.22-5.29-21.39-98.49,21.93-129.13,25.5-18.08,78.32,.86,78.21-41.14-.01-9-17.53,.91-17.76-11.52-.49-26.04,38.84-59.58,74.83-59.84,9.9-.05,22.88,2.7,25.58-2.09,2.4-4.25-4.04-11.72-5.37-13.27-6.36-7.45-11.54-6.85-14.37-10.76-8.97-12.43,14.42-53.75,28.98-51.49,11.87,1.87,7.8,31.59,26.36,39.45,17.02,7.17,43.14-8.33,42.71-16.69-.34-6.62-17.37-4.66-20.88-14.12-3.08-8.29,4.74-23.25,18.3-36.75,11.59-11.54,26.85-21.8,44.11-26.11,7.65-1.91,15.18-2.75,22.27-2.54,21.9,.63,39.18,7.15,41.66,1.6,2.69-6.03-17.38-18.37-14.78-22.7,2.02-3.36,17.05-2.05,27.9,6.22,19.5,14.85,8.35,46.12,24.45,54.2,8.63,4.33,22.37,.74,30.44-6.34,2.54-2.23,4.52-4.8,5.59-7.59,1.48-3.83,1.61-9.07-.51-13.49-3.22-6.75-8-7.12-14.61-12.6-.39-.32-7.83-9.12-6.27-20.35,1.58-11.24,11.94-21.39,22.46-21.85,5.4-.26,8.59,2.22,14.1,6.12,3.11,2.2,6.95,4.82,12.3,7.64,11.06,5.82,23.99,12.49,36.31,10.64,18.23-2.73,35.14-24.12,37.63-44.1,.52-4.16,.42-8.25-.44-12.1-3.74-16.67-19.06-18.45-18.72-30.23,.54-18.5,37.51-36.13,69.78-41.6,20.11-3.34,30.24-.84,41.49-.46,5.32,.18,10.88-.12,17.88-1.82,18.13-4.4,41.66-16.98,65.14-53.33"/><path class="b" d="M679.04,431.74c-62.38,11.7-79.78,28.35-82.82,42.31-4.36,20.04,20.16,34.34,13.41,56.19-5.85,18.8-30.88,29.83-50.38,31.29-17.03,1.26-31.75-4.61-46.06-13.94-9.79-6.42-19.37-14.47-29.42-22.89-52.74-44.19-56.91-77.9-86.43-79.85-19.2-1.27-41.53,11.22-48.17,28.17-9.9,25.13,20.56,45.78,11.7,79.81-4.52,17.39-18.24,34.29-28.22,32.7-7.59-1.2-12.91-10.26-20.46-20.47-8.59-11.61-20.09-24.69-41.35-29.14-50.96-10.62-29.85,70.37-57.3,62.94-16.6-4.53-10.66-40.24-39.65-56.13-17.84-9.78-33.89-3.99-40.23-15.95-6.31-11.85,6.41-23.87-.72-35.9-5.22-8.85-19.11-14.35-29.25-10.97-15.45,5.11-12.47,27.62-29.89,60.18-8.05,15.06-28.13,46.52-38.38,43.06-15.66-5.29-20.57-95.95,21.56-125.86,24.82-17.68,76.17,.59,76.13-40.27,0-8.77-16.98,.83-17.17-11.26-.39-25.4,37.94-58.02,73-58.26,9.87-.04,22.67,2.94,25.4-1.45,2.46-3.94-3.76-11.06-4.94-12.42-6.08-7.04-10.91-6.34-13.47-10.01-8.3-11.93,14.73-51.94,29.28-49.76,11.81,1.8,8.16,30.58,26.46,38.12,16.81,6.86,42.46-8.31,42.25-16.59-.17-6.52-16.66-4.7-19.89-14.02-2.85-8.22,4.97-22.94,18.15-36.31,11.38-11.55,25.98-21.78,42.67-26.25,7.4-1.98,14.7-3.03,21.63-2.87,21.31,.49,38.22,6.48,40.79,.88,2.74-5.97-16.65-18.08-13.98-22.38,2.09-3.37,16.83-2.18,27.53,5.74,19.26,14.26,8.84,44.48,24.79,52.29,8.6,4.21,22.12,.75,30.09-6.01,2.51-2.13,4.47-4.57,5.54-7.24,1.48-3.64,1.63-8.65-.41-12.85-3.1-6.44-8.71-5.69-14.17-11.87-.43-.11-7.62-8.58-6.11-19.34,1.53-10.69,11.59-20.3,21.89-20.59,5.28-.15,8.43,2.31,13.86,6.15,3.08,2.19,6.89,4.77,12.16,7.54,10.92,5.72,23.71,12.21,35.91,10.38,18.04-2.7,34.82-23.61,37.51-43.24,.56-4.08,.53-8.11-.27-11.9-3.45-16.36-18.28-18.28-17.87-29.92,.65-18.46,36.52-36.2,67.98-41.89,19.58-3.54,29.53-1.29,40.67-1.06,5.24,.11,10.72-.22,17.64-1.92,17.91-4.39,41.21-16.62,64.74-51.66"/><path class="b" d="M664.38,432.64c-60.58,11.24-77.56,27.26-80.56,40.67-4.32,19.34,19.45,33.14,12.88,54.25-5.72,18.13-30.01,28.74-48.92,30.07-16.52,1.14-30.78-4.62-44.62-13.73-9.47-6.28-18.7-14.12-28.41-22.3-50.97-42.96-54.88-75.59-83.27-77.46-18.53-1.22-40.1,10.9-46.44,27.33-9.48,24.37,20.18,44.39,11.72,77.38-4.32,16.86-17.55,33.24-27.16,31.68-7.32-1.17-12.45-9.97-19.71-19.88-8.26-11.27-19.33-23.99-39.88-28.34-49.28-10.36-28.68,68.1-55.18,60.8-16.01-4.46-10.18-39.16-38.22-54.64-17.26-9.54-32.78-3.97-38.88-15.61-6.09-11.53,6.29-23.23-.59-34.94-5.03-8.63-18.47-13.98-28.28-10.76-14.91,4.89-11.97,26.6-28.82,58.1-7.76,14.52-27.19,44.97-37.09,41.51-15.1-5.28-19.75-93.42,21.2-122.59,24.14-17.28,74.01,.31,74.05-39.4,.03-8.53-16.44,.75-16.58-11-.3-24.75,37.03-56.45,71.18-56.68,9.84-.03,22.45,3.18,25.23-.8,2.52-3.62-3.48-10.4-4.51-11.57-5.8-6.62-10.28-5.82-12.57-9.26-7.63-11.44,15.05-50.12,29.57-48.03,11.76,1.72,8.5,29.61,26.55,36.78,16.58,6.59,41.78-8.3,41.79-16.49,0-6.42-15.95-4.75-18.9-13.91-2.63-8.16,5.2-22.63,17.99-35.87,11.18-11.56,25.1-21.77,41.24-26.39,7.15-2.05,14.23-3.02,20.98-3.21,20.72-.58,37.26,5.81,39.91,.16s-15.91-17.79-13.17-22.07c2.17-3.39,16.61-2.31,27.16,5.27,19.02,13.66,9.33,42.84,25.13,50.37,8.57,4.08,21.88,.75,29.75-5.68,2.48-2.03,4.42-4.35,5.49-6.88,1.47-3.46,1.64-8.22-.32-12.21-3.01-6.12-8.43-5.28-13.73-11.13-.42,.03-7.41-8.04-5.95-18.33,1.47-10.14,11.24-19.22,21.31-19.34,5.16-.06,8.27,2.4,13.62,6.19,3.06,2.17,6.82,4.72,12.02,7.44,10.79,5.62,23.43,11.93,35.51,10.13,17.85-2.67,34.5-23.1,37.38-42.39,.6-4.01,.63-7.97-.11-11.7-3.16-16.05-17.49-18.11-17.02-29.61,.76-18.42,35.52-36.22,66.17-42.17,19.05-3.7,28.83-1.74,39.84-1.66,5.16,.04,10.57-.33,17.39-2.01,17.68-4.37,40.77-16.25,64.34-49.98"/><path class="b" d="M649.73,433.53c-58.77,10.77-75.34,26.16-78.3,39.03-4.27,18.65,18.8,31.95,12.35,52.31-5.54,17.48-29.15,27.65-47.47,28.85-16.01,1.03-29.83-4.6-43.18-13.52-9.15-6.11-18.04-13.78-27.4-21.72-49.2-41.73-52.84-73.27-80.12-75.08-17.86-1.18-38.67,10.57-44.72,26.49-9.06,23.62,19.8,43.01,11.73,74.95-4.11,16.32-16.86,32.18-26.1,30.65-7.04-1.15-11.98-9.67-18.96-19.29-7.94-10.93-18.57-23.29-38.41-27.54-47.6-10.1-27.51,65.82-53.07,58.66-15.42-4.39-9.7-38.08-36.79-53.16-16.67-9.29-31.66-3.95-37.53-15.28-5.86-11.21,6.14-22.58-.47-33.98-4.86-8.39-17.83-13.62-27.31-10.55-14.38,4.66-11.48,25.59-27.75,56.01-7.47,13.99-26.26,43.43-35.79,39.97-14.53-5.27-18.92-90.89,20.84-119.31,23.47-16.88,71.85,.04,71.97-38.53,.05-8.29-15.89,.67-15.99-10.74-.2-24.1,36.12-54.97,69.35-55.11,9.82-.04,22.23,3.44,25.05-.16,2.58-3.3-3.2-9.74-4.08-10.72-5.53-6.2-9.64-5.31-11.67-8.52-6.94-10.95,15.36-48.3,29.87-46.31,11.7,1.65,8.86,28.61,26.65,35.45,16.36,6.29,41.1-8.28,41.32-16.38,.17-6.32-15.23-4.79-17.91-13.8-2.41-8.1,5.42-22.33,17.84-35.43,10.97-11.57,24.22-21.75,39.81-26.54,6.9-2.12,13.75-3.23,20.34-3.54,20.12-.94,36.3,5.14,39.04-.56s-15.17-17.5-12.37-21.75c2.25-3.4,16.39-2.44,26.79,4.79,18.79,13.07,9.81,41.19,25.48,48.46,8.53,3.96,21.63,.76,29.4-5.35,2.45-1.93,4.37-4.13,5.44-6.53,1.47-3.28,1.66-7.8-.22-11.57-2.9-5.81-8.15-4.86-13.29-10.4-.42,.17-7.2-7.5-5.79-17.32,1.41-9.58,10.89-18.15,20.74-18.08,5.04,.03,8.11,2.49,13.37,6.23,3.03,2.16,6.75,4.68,11.88,7.34,10.66,5.53,23.15,11.65,35.11,9.87,17.67-2.64,34.18-22.59,37.26-41.53,.64-3.94,.73-7.83,.06-11.5-2.88-15.74-16.7-17.94-16.17-29.3,.87-18.37,34.53-36.23,64.37-42.45,18.53-3.86,28.12-2.39,39.02-2.27,5.07,.06,10.42-.43,17.15-2.11,17.46-4.35,40.32-15.88,63.93-48.31"/><path class="b" d="M635.08,434.43c-56.97,10.3-73.13,25.06-76.04,37.4-4.23,17.95,18.11,30.76,11.82,50.37-5.39,16.82-28.28,26.56-46.02,27.63-15.5,.91-28.87-4.61-41.75-13.31-8.83-5.97-17.37-13.44-26.38-21.13-47.43-40.5-50.8-70.96-76.96-72.69-17.2-1.14-37.2,10.25-42.99,25.65-8.59,22.88,19.42,41.62,11.74,72.52-3.91,15.79-16.17,31.12-25.04,29.63-6.77-1.12-11.51-9.37-18.21-18.71-7.61-10.6-17.81-22.59-36.93-26.74-45.91-9.84-26.36,63.61-50.95,56.52-14.85-4.28-9.21-36.99-35.35-51.67-16.08-9.04-30.52-3.94-36.18-14.95s6.01-21.94-.35-33.02c-4.68-8.16-17.19-13.26-26.34-10.34-13.85,4.43-10.99,24.58-26.67,53.92-7.18,13.45-25.33,41.89-34.49,38.43-13.97-5.27-18.1-88.36,20.48-116.04,22.79-16.47,69.62-.23,69.9-37.67,.06-8.06-15.35,.59-15.4-10.48-.11-23.46,35.21-53.42,67.53-53.53,9.79-.03,22.01,3.7,24.87,.49,2.64-2.96-2.92-9.08-3.65-9.87-5.28-5.76-9-4.79-10.77-7.77-6.24-10.47,15.67-46.52,30.17-44.58,11.64,1.55,9.21,27.61,26.74,34.11,16.15,5.99,40.42-8.26,40.86-16.28,.34-6.21-14.52-4.84-16.92-13.7-2.19-8.05,5.65-22.02,17.69-34.99,10.76-11.59,23.34-21.73,38.38-26.68,6.65-2.19,13.27-3.44,19.69-3.87,19.51-1.3,35.34,4.47,38.17-1.28s-14.43-17.21-11.57-21.44c2.32-3.42,16.17-2.57,26.42,4.32,18.56,12.47,10.3,39.55,25.82,46.55,8.5,3.83,21.38,.76,29.06-5.02,2.42-1.83,4.32-3.91,5.39-6.18,1.47-3.1,1.68-7.37-.12-10.92-2.79-5.5-7.87-4.45-12.85-9.66-.41,.31-7.02-6.96-5.64-16.31s10.53-17.07,20.16-16.82c4.92,.13,7.95,2.58,13.13,6.27,3,2.15,6.69,4.63,11.74,7.24,10.53,5.43,22.87,11.38,34.71,9.61,17.48-2.6,33.86-22.08,37.13-40.67,.68-3.87,.83-7.69,.22-11.3-2.6-15.43-15.92-17.77-15.31-28.98,.98-18.33,33.54-36.25,62.56-42.73,18-4.02,27.41-2.64,38.19-2.87,4.99-.1,10.27-.54,16.9-2.2,17.24-4.33,39.88-15.51,63.53-46.64"/><path class="b" d="M620.43,435.32c-55.16,9.84-70.91,23.96-73.78,35.76-4.19,17.25,17.41,29.56,11.28,48.43-5.25,16.16-27.41,25.47-44.57,26.42-14.99,.79-27.9-4.61-40.31-13.1-8.51-5.82-16.7-13.1-25.37-20.55-45.66-39.28-48.77-68.64-73.81-70.3-16.53-1.09-35.76,9.93-41.26,24.81-8.17,22.12,19.03,40.24,11.76,70.09-3.7,15.26-15.48,30.06-23.98,28.61-6.5-1.09-11.04-9.07-17.46-18.12-7.28-10.26-17.05-21.9-35.46-25.94-44.23-9.58-25.2,61.35-48.84,54.38-14.27-4.2-8.73-35.91-33.92-50.18-15.5-8.79-29.4-3.92-34.83-14.62s5.87-21.3-.23-32.07c-4.49-7.93-16.55-12.9-25.36-10.13-13.33,4.19-10.5,23.57-25.6,51.83-6.89,12.91-24.39,40.34-33.2,36.89-13.41-5.26-17.23-85.75,20.11-112.76,22.15-16.03,67.45-.5,67.82-36.8,.08-7.82-14.8,.51-14.81-10.22-.02-22.81,34.3-52.09,65.7-51.95,9.77,.04,21.77,3.98,24.69,1.13,2.69-2.62-2.64-8.42-3.22-9.02-5.05-5.29-8.36-4.28-9.87-7.02-5.53-9.98,15.98-44.7,30.46-42.86,11.59,1.48,9.57,26.61,26.84,32.78,15.93,5.69,39.73-8.24,40.4-16.18,.51-6.11-13.8-4.89-15.94-13.59-1.96-7.99,5.87-21.72,17.53-34.55,10.55-11.6,22.46-21.71,36.94-26.82,6.4-2.26,12.79-3.65,19.05-4.2,18.9-1.66,34.38,3.79,37.29-1.99s-13.7-16.92-10.76-21.12c2.4-3.43,15.95-2.7,26.05,3.84,18.33,11.88,10.8,37.9,26.17,44.64,8.47,3.71,21.14,.77,28.72-4.7,2.4-1.73,4.27-3.69,5.34-5.82,1.46-2.91,1.7-6.95-.02-10.28-2.68-5.18-7.59-4.03-12.41-8.93-.41,.46-6.81-6.42-5.48-15.3s10.18-16,19.58-15.56c4.8,.22,7.8,2.67,12.89,6.31,2.97,2.14,6.62,4.58,11.59,7.14,10.39,5.33,22.59,11.1,34.32,9.35,17.29-2.57,33.54-21.57,37.01-39.81,.72-3.8,.93-7.55,.38-11.1-2.31-15.11-15.13-17.6-14.46-28.67,1.1-18.29,32.55-36.26,60.76-43.01,17.47-4.18,26.7-3.09,37.37-3.47,4.91-.17,10.11-.64,16.65-2.3,17.01-4.31,39.43-15.14,63.12-44.97"/><path class="b" d="M605.78,436.22c-53.36,9.37-68.7,22.86-71.52,34.12-4.15,16.56,16.72,28.36,10.75,46.49-5.1,15.5-26.54,24.38-43.12,25.2-14.48,.68-26.94-4.62-38.87-12.89-8.18-5.67-16.04-12.75-24.36-19.97-43.89-38.05-46.73-66.33-70.65-67.91-15.87-1.05-34.33,9.6-39.54,23.97-7.74,21.37,18.65,38.85,11.77,67.66-3.5,14.72-14.79,28.99-22.92,27.58-6.22-1.08-10.58-8.78-16.71-17.53-6.96-9.92-16.29-21.2-33.99-25.14-42.55-9.32-24.03,59.08-46.73,52.24-13.68-4.13-8.25-34.83-32.48-48.7-14.91-8.54-28.28-3.9-33.48-14.28s5.74-20.66-.11-31.11c-4.31-7.7-15.91-12.54-24.39-9.92-12.8,3.96-10.01,22.55-24.53,49.74-6.6,12.38-23.46,38.8-31.9,35.35-12.85-5.25-16.4-83.2,19.75-109.49,21.48-15.62,65.28-.78,65.74-35.93,.1-7.58-14.26,.43-14.22-9.96,.08-22.16,33.39-50.56,63.88-50.37,9.74,.06,21.53,4.27,24.51,1.78,2.73-2.28-2.36-7.75-2.79-8.17-4.88-4.77-7.71-3.76-8.98-6.27-4.79-9.5,16.3-42.89,30.76-41.13,11.53,1.4,9.93,25.61,26.93,31.45,15.72,5.39,39.05-8.21,39.94-16.08,.68-6-13.08-4.95-14.95-13.48-1.74-7.95,6.09-21.42,17.38-34.11,10.34-11.62,21.58-21.68,35.51-26.96,6.15-2.33,12.31-3.85,18.41-4.53,18.29-2.02,33.41,3.12,36.42-2.71s-12.96-16.63-9.96-20.81c2.48-3.45,15.74-2.83,25.68,3.37,18.1,11.28,11.29,36.26,26.51,42.73,8.43,3.58,20.9,.77,28.37-4.37,2.37-1.63,4.22-3.47,5.29-5.47,1.46-2.73,1.72-6.53,.07-9.64-2.58-4.87-7.31-3.61-11.97-8.19-.4,.6-6.61-5.87-5.32-14.29,1.21-7.93,9.83-14.92,19.01-14.31,4.68,.31,7.64,2.77,12.64,6.35,2.94,2.12,6.55,4.53,11.45,7.04,10.26,5.23,22.32,10.82,33.92,9.1,17.11-2.54,33.22-21.06,36.88-38.96,.76-3.72,1.03-7.41,.55-10.9-2.03-14.8-14.34-17.44-13.61-28.36,1.21-18.24,31.56-36.28,58.95-43.29,16.94-4.34,25.99-3.54,36.55-4.07,4.83-.24,9.96-.75,16.41-2.39,16.79-4.29,38.99-14.77,62.72-43.29"/><path class="b" d="M591.13,437.12c-51.56,8.91-66.48,21.75-69.26,32.48-4.1,15.86,16.03,27.17,10.22,44.55-4.96,14.84-25.68,23.29-41.67,23.98-13.97,.56-25.98-4.63-37.44-12.68-7.86-5.52-15.37-12.41-23.34-19.38-42.12-36.82-44.69-64.01-67.5-65.52-15.2-1-32.89,9.27-37.81,23.13-7.32,20.61,18.27,37.47,11.79,65.23-3.3,14.19-14.1,27.93-21.86,26.56-5.95-1.05-10.11-8.48-15.97-16.94-6.63-9.59-15.53-20.5-32.51-24.34-40.87-9.06-22.87,56.82-44.61,50.1-13.1-4.05-7.76-33.75-31.05-47.21-14.32-8.29-27.16-3.88-32.13-13.95s5.61-20.02,.01-30.15c-4.13-7.47-15.27-12.18-23.42-9.71-12.27,3.73-9.52,21.54-23.46,47.65-6.31,11.84-22.53,37.25-30.6,33.81-12.3-5.25-15.57-80.66,19.39-106.22,20.8-15.21,63.11-1.05,63.66-35.06,.12-7.35-13.71,.35-13.63-9.7,.17-21.52,32.48-49.02,62.05-48.79,9.72,.08,21.26,4.57,24.33,2.42,2.76-1.92-2.08-7.09-2.36-7.32-4.86-4.04-7.06-3.23-8.08-5.53-4.01-9.02,16.61-41.08,31.06-39.41,11.47,1.33,10.29,24.61,27.03,30.11,15.5,5.09,38.36-8.19,39.47-15.98,.84-5.9-12.36-5.01-13.96-13.38-1.52-7.9,6.31-21.13,17.23-33.67,10.13-11.64,20.69-21.66,34.08-27.11,5.9-2.4,11.83-4.06,17.76-4.86,17.67-2.37,32.45,2.45,35.54-3.43s-12.22-16.34-9.16-20.49c2.55-3.46,15.52-2.96,25.3,2.89,17.87,10.69,11.78,34.61,26.85,40.81,8.4,3.46,20.65,.78,28.03-4.04,2.34-1.53,4.17-3.25,5.24-5.11,1.46-2.55,1.74-6.1,.17-8.99-2.47-4.56-7.03-3.2-11.53-7.46-.39,.74-6.4-5.33-5.16-13.28,1.15-7.38,9.47-13.85,18.43-13.05,4.56,.41,7.49,2.85,12.4,6.39,2.92,2.11,6.49,4.48,11.31,6.94,10.13,5.13,22.04,10.54,33.52,8.84,16.92-2.51,32.9-20.56,36.76-38.1,.81-3.65,1.13-7.27,.71-10.7-1.75-14.49-13.55-17.27-12.76-28.05,1.33-18.2,30.56-36.29,57.15-43.57,16.41-4.5,25.28-3.99,35.72-4.67,4.75-.31,9.81-.86,16.16-2.49,16.57-4.27,38.54-14.41,62.31-41.62"/><path class="b" d="M576.48,438.01c-49.75,8.44-64.27,20.65-67,30.84-4.06,15.16,15.34,25.97,9.69,42.61-4.81,14.18-24.81,22.2-40.21,22.76-13.46,.44-25.01-4.63-36-12.47-7.54-5.38-14.7-12.07-22.33-18.8-40.34-35.59-42.66-61.7-64.34-63.13-14.53-.96-31.45,8.95-36.08,22.3-6.89,19.86,17.89,36.08,11.8,62.8-3.09,13.65-13.41,26.87-20.8,25.53-5.68-1.03-9.64-8.18-15.22-16.36-6.31-9.25-14.77-19.84-31.04-23.53-39.16-8.89-21.71,54.55-42.5,47.96-12.52-3.97-7.28-32.67-29.62-45.73-13.74-8.05-26.03-3.86-30.78-13.62s5.48-19.38,.13-29.19c-3.94-7.24-14.64-11.83-22.45-9.5-11.74,3.49-9.03,20.53-22.39,45.56-6.02,11.31-21.6,35.71-29.31,32.26-11.74-5.25-14.74-78.12,19.02-102.94,20.13-14.8,60.94-1.32,61.58-34.2,.14-7.11-13.17,.27-13.04-9.44,.27-20.87,31.58-47.49,60.23-47.22,9.69,.09,20.68,4.2,24.15,3.07,2.4-2.09-1.76-6.48-1.92-6.47-3.86-4.36-6.4-2.7-7.18-4.78-3.2-8.53,16.92-39.26,31.35-37.68,11.41,1.25,10.64,23.61,27.12,28.78,15.29,4.79,37.67-8.16,39.01-15.87,1.01-5.79-11.63-5.07-12.97-13.27s6.53-20.84,17.07-33.23c9.92-11.66,19.81-21.64,32.64-27.25,5.65-2.47,11.34-4.27,17.12-5.19,17.04-2.71,31.49,1.78,34.67-4.15,3-5.59-11.48-16.05-8.35-20.18,2.63-3.48,15.31-3.09,24.93,2.42,17.64,10.09,12.27,32.96,27.2,38.9,8.37,3.33,20.41,.78,27.69-3.71,2.31-1.43,4.12-3.02,5.19-4.76,1.46-2.36,1.75-5.68,.27-8.35-2.36-4.24-6.75-2.78-11.09-6.72-.39,.88-6.2-4.79-5-12.27,1.09-6.83,9.12-12.78,17.86-11.79,4.44,.5,7.33,2.93,12.16,6.42,2.89,2.09,6.42,4.44,11.17,6.84,9.99,5.03,21.76,10.26,33.12,8.58,16.73-2.47,32.58-20.05,36.63-37.24,.85-3.58,1.23-7.13,.88-10.5-1.47-14.17-12.76-17.1-11.91-27.74,1.45-18.16,29.57-36.3,55.34-43.86,15.89-4.65,24.58-4.44,34.9-5.27,4.66-.38,9.66-.96,15.92-2.58,16.35-4.26,38.1-14.04,61.91-39.95"/><path class="b" d="M561.83,438.91c-47.95,7.98-62.05,19.55-64.74,29.2-4.02,14.45,14.65,24.77,9.16,40.67-4.67,13.52-23.94,21.14-38.76,21.54-12.95,.35-24.05-4.64-34.56-12.26-7.21-5.23-14.04-11.72-21.32-18.21-38.57-34.37-40.62-59.38-61.19-60.74-13.87-.92-30.01,8.62-34.36,21.46-6.46,19.1,17.51,34.7,11.82,60.37-2.89,13.12-12.72,25.81-19.74,24.51-5.4-1-9.17-7.88-14.47-15.77-5.98-8.92-14.01-19.15-29.57-22.73-37.48-8.64-20.54,52.29-40.38,45.82-11.93-3.89-6.8-31.59-28.18-44.24-13.15-7.8-24.91-3.84-29.43-13.28s5.35-18.74,.26-28.23c-3.76-7.01-14-11.47-21.47-9.29-11.21,3.26-8.54,19.52-21.32,43.47-5.73,10.77-20.67,34.16-28.01,30.72-11.19-5.24-13.91-75.58,18.66-99.67,19.46-14.39,58.77-1.59,59.5-33.33,.16-6.87-12.62,.19-12.45-9.17,.36-20.23,30.67-45.95,58.4-45.64,9.67,.11,20.41,4.4,23.97,3.72,2.41-1.81-1.48-5.82-1.49-5.62-3.55-3.97-5.73-2.16-6.28-4.03-2.35-8.02,17.23-37.45,31.65-35.95,11.36,1.18,11,22.61,27.22,27.44,15.08,4.49,36.98-8.13,38.55-15.77,1.17-5.68-10.9-5.14-11.98-13.16s6.75-20.55,16.92-32.79,18.92-21.61,31.21-27.39c5.4-2.54,10.85-4.47,16.47-5.52,16.42-3.05,30.52,1.1,33.79-4.87,3.03-5.53-10.74-15.76-7.55-19.86,2.71-3.49,15.09-3.22,24.56,1.94,17.42,9.5,12.76,31.31,27.54,36.99,8.34,3.2,20.17,.78,27.34-3.39,2.28-1.33,4.07-2.8,5.14-4.41,1.45-2.18,1.77-5.25,.36-7.71-2.25-3.93-6.46-2.37-10.66-5.98-.38,1.02-5.99-4.25-4.85-11.26,1.03-6.28,8.76-11.71,17.28-10.53,4.32,.59,7.17,3.02,11.91,6.46,2.87,2.08,6.36,4.39,11.03,6.74,9.86,4.93,21.48,9.98,32.72,8.33,16.55-2.44,32.26-19.54,36.51-36.38,.89-3.51,1.33-6.99,1.04-10.3-1.19-13.85-11.97-16.93-11.06-27.43,1.56-18.12,28.57-36.32,53.54-44.14,15.36-4.81,23.87-4.88,34.08-5.87,4.58-.45,9.5-1.07,15.67-2.68,16.12-4.24,37.65-13.67,61.5-38.28"/><path class="b" d="M547.18,439.81c-46.14,7.51-59.83,18.44-62.48,27.56-3.99,13.75,13.95,23.58,8.62,38.72-4.52,12.86-23.07,20.05-37.31,20.33-12.44,.24-23.09-4.64-33.12-12.05-6.89-5.08-13.37-11.38-20.3-17.63-36.79-33.14-38.58-57.07-58.03-58.35-13.2-.87-28.57,8.29-32.63,20.62-6.04,18.35,17.12,33.31,11.83,57.94-2.68,12.58-12.03,24.75-18.68,23.49-5.13-.98-8.71-7.59-13.72-15.18-5.66-8.58-13.25-18.45-28.09-21.93-35.79-8.39-19.38,50.03-38.27,43.68-11.35-3.82-6.31-30.51-26.75-42.76-12.57-7.55-23.79-3.81-28.08-12.95s5.22-18.1,.38-27.28c-3.57-6.78-13.36-11.11-20.5-9.08-10.68,3.03-8.05,18.5-20.25,41.39-5.44,10.24-19.75,32.62-26.72,29.18-10.63-5.24-13.08-73.04,18.3-96.4,18.79-13.99,56.6-1.87,57.42-32.46,.18-6.64-12.08,.1-11.87-8.91,.46-19.58,29.76-44.41,56.58-44.06,9.64,.12,20.15,4.59,23.79,4.36,2.42-1.54-1.19-5.17-1.06-4.76-3.25-3.58-5.45-1.57-5.38-3.28-3.08-6.97,17.54-35.63,31.95-34.23,11.3,1.1,11.36,21.61,27.32,26.11,14.86,4.19,36.28-8.11,38.09-15.67,1.33-5.57-10.16-5.21-11-13.06s6.97-20.26,16.77-32.35,18.04-21.59,29.78-27.53c5.14-2.6,10.36-4.68,15.83-5.85,15.78-3.38,29.55,.43,32.92-5.59,3.06-5.48-9.99-15.46-6.75-19.55,2.79-3.51,14.88-3.35,24.19,1.47,17.2,8.9,13.26,29.66,27.89,35.08,8.31,3.08,19.93,.79,27-3.06,2.25-1.23,4.02-2.58,5.09-4.05,1.45-2,1.79-4.83,.46-7.07-2.15-3.61-6.18-1.95-10.22-5.25-.38,1.17-5.79-3.71-4.69-10.25,.97-5.73,8.41-10.63,16.71-9.28,4.2,.69,7.01,3.11,11.67,6.5,2.84,2.07,6.29,4.34,10.89,6.64,9.73,4.83,21.2,9.71,32.32,8.07,16.36-2.41,31.93-19.03,36.38-35.52,.93-3.43,1.43-6.85,1.21-10.1-.91-13.54-11.17-16.76-10.21-27.12,1.68-18.07,27.58-36.33,51.73-44.42,14.83-4.97,23.15-5.33,33.25-6.47,4.5-.51,9.35-1.17,15.43-2.77,15.9-4.22,37.21-13.3,61.1-36.6"/><path class="b" d="M532.53,440.7c-44.34,7.05-57.62,17.34-60.22,25.92-3.95,13.05,13.26,22.38,8.09,36.78-4.38,12.2-22.21,18.97-35.86,19.11-11.93,.12-22.12-4.65-31.69-11.84-6.56-4.94-12.7-11.04-19.29-17.04-35.02-31.91-36.55-54.75-54.88-55.96-12.54-.83-27.13,7.96-30.9,19.78-5.61,17.59,16.74,31.92,11.84,55.51-2.48,12.05-11.35,23.69-17.61,22.46-4.86-.95-8.24-7.29-12.97-14.6-5.33-8.24-12.49-17.76-26.62-21.13-34.11-8.14-18.22,47.76-36.16,41.53-10.77-3.74-5.83-29.43-25.31-41.27-11.98-7.3-22.67-3.79-26.73-12.62s5.08-17.46,.5-26.32c-3.39-6.55-12.72-10.75-19.53-8.87-10.15,2.79-7.56,17.49-19.18,39.3-5.15,9.7-18.82,31.07-25.42,27.64-10.08-5.24-12.25-70.49,17.94-93.12,18.12-13.58,54.43-2.14,55.34-31.59,.2-6.4-11.53,.02-11.28-8.65,.55-18.94,28.85-42.86,54.75-42.48,9.62,.14,19.89,4.79,23.61,5.01,2.44-1.26-.91-4.51-.63-3.91-2.94-3.19-4.84-1.04-4.48-2.53-2.48-6.43,17.85-33.82,32.24-32.5,11.24,1.03,11.72,20.61,27.41,24.77,14.65,3.89,35.59-8.08,37.62-15.57,1.49-5.46-9.42-5.28-10.01-12.95s7.18-19.97,16.61-31.91,17.15-21.56,28.34-27.68c4.89-2.67,9.87-4.88,15.18-6.18,15.15-3.7,28.59-.25,32.04-6.31,3.1-5.43-9.25-15.17-5.94-19.23,2.87-3.52,14.67-3.48,23.82,.99,16.98,8.31,13.75,28.01,28.23,33.17,8.28,2.95,19.69,.79,26.65-2.73,2.23-1.13,3.98-2.36,5.04-3.7,1.45-1.82,1.81-4.41,.56-6.42-2.04-3.3-5.9-1.53-9.78-4.51-.37,1.31-5.59-3.17-4.53-9.24,.91-5.18,8.05-9.56,16.13-8.02,4.07,.78,6.86,3.2,11.42,6.54,2.81,2.05,6.22,4.29,10.75,6.54,9.59,4.73,20.93,9.43,31.92,7.81,16.17-2.38,31.61-18.52,36.26-34.67,.97-3.36,1.53-6.71,1.37-9.9-.64-13.22-10.38-16.59-9.36-26.81,1.8-18.03,26.58-36.33,49.93-44.7,14.3-5.12,22.44-5.77,32.43-7.08,4.42-.58,9.2-1.28,15.18-2.87,15.68-4.2,36.76-12.93,60.7-34.93"/><path class="b" d="M517.88,441.6c-42.54,6.58-55.4,16.23-57.96,24.28-3.91,12.34,12.57,21.19,7.56,34.84-4.23,11.54-21.34,17.88-34.41,17.89-11.42,.01-21.16-4.66-30.25-11.63-6.24-4.79-12.03-10.69-18.28-16.46-33.24-30.68-34.51-52.44-51.73-53.57-11.87-.78-25.7,7.64-29.17,18.94-5.18,16.83,16.36,30.54,11.86,53.08-2.27,11.52-10.66,22.63-16.55,21.44-4.58-.93-7.77-6.99-12.22-14.01-5.01-7.91-11.73-17.06-25.15-20.33-32.42-7.89-17.06,45.5-34.04,39.39-10.18-3.66-5.35-28.35-23.88-39.79-11.39-7.05-21.55-3.77-25.38-12.29s4.95-16.82,.62-25.36c-3.21-6.32-12.08-10.39-18.56-8.66-9.63,2.56-7.06,16.48-18.1,37.21-4.86,9.17-17.89,29.52-24.12,26.1-9.54-5.24-11.43-67.95,17.57-89.85,17.44-13.17,52.26-2.41,53.26-30.72,.22-6.16-10.98-.06-10.69-8.39,.65-18.3,27.94-41.31,52.93-40.91,9.59,.16,19.63,4.98,23.43,5.65,2.45-.98-.63-3.85-.2-3.06-2.63-2.8-4.22-.52-3.59-1.79-1.88-5.89,18.16-32,32.54-30.78,11.18,.95,12.08,19.61,27.51,23.44,14.44,3.58,34.89-8.05,37.16-15.47,1.64-5.35-8.68-5.36-9.02-12.84s7.39-19.69,16.46-31.47,16.26-21.53,26.91-27.82c4.64-2.74,9.37-5.08,14.54-6.51,14.5-4.02,27.62-.92,31.17-7.02,3.13-5.37-8.51-14.88-5.14-18.91,2.95-3.53,14.46-3.62,23.45,.52,16.76,7.71,14.25,26.35,28.57,31.25,8.25,2.82,19.45,.8,26.31-2.4,2.2-1.03,3.93-2.14,4.99-3.34,1.45-1.64,1.83-3.98,.66-5.78-1.94-2.98-5.62-1.12-9.34-3.78-.37,1.45-5.39-2.63-4.37-8.23,.84-4.63,7.7-8.49,15.55-6.76,3.95,.87,6.7,3.29,11.18,6.58,2.78,2.04,6.16,4.24,10.61,6.44,9.46,4.64,20.65,9.15,31.52,7.55,15.99-2.35,31.29-18.01,36.13-33.81,1.01-3.29,1.62-6.56,1.54-9.7-.36-12.9-9.59-16.42-8.51-26.5,1.93-17.99,25.58-36.34,48.12-44.98,13.77-5.28,21.73-6.21,31.6-7.68,4.33-.64,9.05-1.38,14.93-2.97,15.46-4.18,36.32-12.57,60.29-33.26"/><path class="b" d="M503.23,442.5c-40.73,6.11-53.19,15.12-55.7,22.65-3.88,11.63,11.88,19.99,7.03,32.9-4.09,10.88-20.47,16.79-32.96,16.67-10.91-.1-20.2-4.66-28.81-11.42-5.92-4.64-11.36-10.35-17.26-15.87-31.46-29.45-32.47-50.12-48.57-51.18-11.21-.74-24.26,7.31-27.45,18.1-4.75,16.08,15.98,29.15,11.87,50.65-2.07,10.98-9.97,21.57-15.49,20.42-4.31-.9-7.31-6.7-11.47-13.42-4.69-7.58-10.97-16.37-23.67-19.53-30.74-7.64-15.89,43.24-31.93,37.25-9.6-3.58-4.87-27.27-22.45-38.3-10.81-6.81-20.43-3.75-24.03-11.95s4.82-16.18,.74-24.4c-3.02-6.09-11.44-10.03-17.58-8.45-9.1,2.33-6.57,15.46-17.03,35.12-4.57,8.63-16.97,27.97-22.83,24.56-8.99-5.24-10.6-65.41,17.21-86.57,16.77-12.76,50.09-2.68,51.18-29.86,.24-5.93-10.44-.14-10.1-8.13,.75-17.66,27.03-39.76,51.11-39.33,9.57,.17,19.36,5.18,23.25,6.3,2.46-.71-.34-3.2,.23-2.21-2.32-2.41-3.61,0-2.69-1.04-1.28-5.35,18.47-30.19,32.83-29.05,11.13,.88,12.44,18.61,27.6,22.1,14.22,3.28,34.19-8.02,36.7-15.36,1.79-5.24-7.92-5.44-8.03-12.74-.11-7.71,7.6-19.41,16.31-31.03s15.37-21.5,25.48-27.96c4.39-2.8,8.87-5.27,13.9-6.84,13.86-4.32,26.65-1.59,30.29-7.74,3.16-5.32-7.77-14.58-4.34-18.6,3.03-3.55,14.25-3.75,23.08,.04,16.55,7.11,14.75,24.7,28.92,29.34,8.22,2.69,19.21,.8,25.97-2.08,2.17-.93,3.88-1.92,4.94-2.99,1.45-1.45,1.84-3.55,.75-5.14-1.83-2.66-5.34-.7-8.9-3.04-.36,1.59-5.19-2.09-4.21-7.22,.78-4.08,7.34-7.42,14.98-5.5,3.83,.96,6.54,3.38,10.94,6.62,2.76,2.03,6.09,4.2,10.47,6.34,9.33,4.54,20.37,8.87,31.13,7.3,15.8-2.31,30.97-17.5,36.01-32.95,1.05-3.22,1.72-6.42,1.7-9.5-.09-12.58-8.79-16.25-7.66-26.18,2.05-17.95,24.58-36.35,46.32-45.26,13.23-5.43,21.02-6.65,30.78-8.28,4.25-.71,8.89-1.49,14.69-3.06,15.23-4.16,35.87-12.2,59.89-31.58"/><path class="b" d="M488.58,443.39c-38.93,5.65-50.97,14.01-53.44,21.01-3.85,10.92,11.19,18.8,6.5,30.96-3.94,10.22-19.61,15.71-31.51,15.46-10.4-.22-19.23-4.67-27.37-11.21-5.6-4.49-10.69-10.01-16.25-15.29-29.68-28.22-30.44-47.81-45.42-48.79-10.54-.7-22.82,6.98-25.72,17.26-4.33,15.32,15.6,27.77,11.89,48.22-1.87,10.45-9.28,20.51-14.43,19.39-4.04-.88-6.84-6.4-10.72-12.83-4.36-7.24-10.21-15.68-22.2-18.73-29.05-7.39-14.73,40.97-29.81,35.11-9.02-3.51-4.38-26.18-21.01-36.81-10.22-6.56-19.31-3.73-22.67-11.62s4.69-15.54,.86-23.45c-2.84-5.86-10.8-9.67-16.61-8.24-8.57,2.1-6.08,14.45-15.96,33.03-4.28,8.1-16.05,26.42-21.53,23.01-8.45-5.25-9.77-62.87,16.85-83.3,16.1-12.36,47.92-2.96,49.1-28.99,.26-5.69-9.89-.22-9.51-7.87,.84-17.01,26.13-38.21,49.28-37.75,9.54,.19,19.1,5.37,23.07,6.94,2.47-.43-.06-2.54,.66-1.36-2.01-2.02-3,.53-1.79-.29-.68-4.82,18.79-28.37,33.13-27.33,11.07,.8,12.8,17.6,27.7,20.77,14.01,2.98,33.48-7.99,36.24-15.26,1.95-5.14-7.17-5.52-7.04-12.63,.13-7.68,7.8-19.13,16.15-30.59s14.48-21.47,24.04-28.1c4.13-2.87,8.37-5.46,13.25-7.17,13.21-4.61,25.68-2.27,29.42-8.46,3.18-5.27-7.02-14.29-3.54-18.28,3.11-3.56,14.04-3.88,22.71-.43,16.34,6.51,15.25,23.04,29.26,27.43,8.19,2.56,18.97,.81,25.62-1.75,2.15-.83,3.83-1.7,4.89-2.64,1.45-1.27,1.86-3.13,.85-4.49-1.73-2.34-5.06-.29-8.46-2.31-.35,1.73-5-1.55-4.06-6.21,.71-3.53,6.98-6.35,14.4-4.25,3.71,1.05,6.38,3.47,10.69,6.66,2.73,2.02,6.03,4.15,10.33,6.24,9.19,4.44,20.09,8.59,30.73,7.04,15.61-2.28,30.65-16.99,35.88-32.09,1.09-3.14,1.82-6.28,1.86-9.3,.18-12.26-7.99-16.08-6.8-25.87,2.18-17.9,23.58-36.35,44.51-45.54,12.7-5.58,20.31-7.09,29.96-8.88,4.17-.77,8.74-1.59,14.44-3.16,15.01-4.14,35.43-11.83,59.48-29.91"/><path class="b" d="M473.93,444.29c-37.12,5.18-48.76,12.9-51.18,19.37-3.82,10.21,10.5,17.6,5.96,29.02-3.8,9.56-18.74,14.62-30.05,14.24-9.89-.33-18.27-4.68-25.94-11-5.27-4.35-10.03-9.66-15.23-14.7-27.9-26.99-28.4-45.49-42.26-46.4-9.87-.65-21.38,6.65-23.99,16.42-3.9,14.56,15.21,26.38,11.9,45.79-1.66,9.91-8.59,19.45-13.37,18.37-3.76-.85-6.38-6.11-9.97-12.25-4.04-6.91-9.45-14.98-20.73-17.93-27.37-7.15-13.57,38.71-27.7,32.97-8.44-3.43-3.9-25.1-19.58-35.33-9.63-6.31-18.19-3.71-21.32-11.29s4.56-14.9,.99-22.49c-2.65-5.63-10.17-9.31-15.64-8.04-8.04,1.87-5.59,13.44-14.89,30.94-3.99,7.56-15.12,24.87-20.23,21.47-7.91-5.26-8.94-60.33,16.48-80.03,15.43-11.95,45.75-3.23,47.03-28.12,.28-5.45-9.34-.31-8.92-7.61,.94-16.37,25.22-36.65,47.46-36.17,9.52,.2,18.84,5.57,22.9,7.59,2.48-.16,.23-1.89,1.09-.51-1.71-1.63-2.38,1.06-.89,.46-.08-4.28,19.1-26.55,33.43-25.6,11.01,.73,13.16,16.6,27.79,19.43,13.8,2.67,32.78-7.97,35.77-15.16,2.1-5.03-6.4-5.6-6.06-12.52,.38-7.67,8.01-18.86,16-30.15,8.42-11.88,13.59-21.43,22.61-28.25,3.88-2.93,7.87-5.65,12.61-7.5,12.56-4.89,24.71-2.95,28.55-9.18,3.21-5.22-6.28-14-2.73-17.97,3.19-3.57,13.84-4.02,22.34-.9,16.13,5.91,15.74,21.39,29.61,25.52,8.16,2.43,18.73,.81,25.28-1.42,2.12-.72,3.78-1.48,4.84-2.28,1.45-1.09,1.88-2.7,.95-3.85-1.63-2.02-4.78,.13-8.02-1.57-.35,1.87-4.81-1.01-3.9-5.2,.65-2.98,6.63-5.28,13.83-2.99,3.59,1.14,6.23,3.56,10.45,6.7,2.7,2,5.96,4.1,10.19,6.14,9.06,4.34,19.81,8.31,30.33,6.78,15.43-2.25,30.33-16.49,35.76-31.24,1.13-3.07,1.92-6.14,2.03-9.11,.45-11.94-7.2-15.91-5.95-25.56,2.3-17.86,22.58-36.35,42.71-45.83,12.17-5.73,19.6-7.53,29.13-9.48,4.09-.84,8.59-1.7,14.2-3.25,14.79-4.13,34.98-11.46,59.08-28.24"/><path class="b" d="M459.28,445.19c-35.32,4.72-46.54,11.78-48.92,17.73-3.79,9.49,9.81,16.41,5.43,27.08-3.65,8.9-17.87,13.53-28.6,13.02-9.38-.45-17.31-4.68-24.5-10.79-4.95-4.2-9.36-9.32-14.22-14.12-26.11-25.76-26.36-43.18-39.11-44.01-9.21-.61-19.94,6.32-22.27,15.58-3.47,13.8,14.83,25,11.92,43.36-1.46,9.38-7.9,18.39-12.31,17.34-3.49-.83-5.91-5.81-9.22-11.66-3.72-6.58-8.69-14.29-19.26-17.13-25.68-6.9-12.41,36.45-25.59,30.83-7.86-3.35-3.42-24.02-18.14-33.84-9.05-6.06-17.07-3.69-19.97-10.96s4.43-14.27,1.11-21.53c-2.47-5.41-9.53-8.94-14.67-7.83-7.52,1.64-5.1,12.43-13.82,28.85-3.7,7.03-14.2,23.31-18.94,19.93-7.37-5.27-8.12-57.79,16.12-76.75,14.76-11.54,43.58-3.5,44.95-27.25,.3-5.22-8.79-.39-8.33-7.35,1.04-15.73,24.31-35.09,45.63-34.6,9.49,.22,18.58,5.76,22.72,8.23,2.5,.12,.51-1.23,1.52,.34-1.4-1.24-1.77,1.58,0,1.2,.52-3.74,19.41-24.74,33.72-23.88,10.95,.66,13.52,15.6,27.89,18.1,13.59,2.37,32.07-7.94,35.31-15.06,2.24-4.92-5.63-5.68-5.07-12.42,.64-7.65,8.21-18.59,15.85-29.71,8.19-11.92,12.7-21.39,21.18-28.39,3.62-2.99,7.37-5.84,11.96-7.83,11.91-5.15,23.74-3.62,27.67-9.9,3.24-5.17-5.54-13.7-1.93-17.65,3.27-3.59,13.63-4.16,21.97-1.38,15.92,5.31,16.24,19.73,29.95,23.61,8.13,2.3,18.5,.82,24.93-1.09,2.1-.62,3.74-1.26,4.79-1.93,1.45-.91,1.9-2.27,1.04-3.21-1.53-1.69-4.5,.54-7.58-.84-.34,2.02-4.63-.48-3.74-4.19,.58-2.44,6.27-4.21,13.25-1.73,3.46,1.23,6.07,3.65,10.21,6.73,2.67,1.99,5.89,4.05,10.04,6.04,8.93,4.24,19.53,8.04,29.93,6.52,15.24-2.22,30.01-15.98,35.63-30.38,1.17-3,2.01-5.99,2.19-8.91,.71-11.61-6.4-15.74-5.1-25.25,2.43-17.82,21.58-36.35,40.9-46.11,11.64-5.88,18.89-7.96,28.31-10.08,4-.9,8.44-1.8,13.95-3.35,14.57-4.11,34.54-11.09,58.67-26.57"/><path class="b" d="M444.63,446.08c-33.52,4.25-44.33,10.66-46.66,16.09-3.76,8.76,9.12,15.22,4.9,25.14-3.5,8.24-17.01,12.44-27.15,11.8-8.88-.56-16.35-4.69-23.06-10.58-4.63-4.06-8.69-8.97-13.21-13.53-24.33-24.53-24.33-40.86-35.95-41.63-8.54-.56-18.5,6-20.54,14.74-3.04,13.05,14.45,23.61,11.93,40.93-1.25,8.84-7.21,17.33-11.25,16.32-3.21-.8-5.45-5.52-8.47-11.07-3.39-6.24-7.93-13.6-17.78-16.33-24-6.65-11.25,34.18-23.47,28.69-7.28-3.27-2.93-22.94-16.71-32.36-8.46-5.81-15.95-3.67-18.62-10.62s4.3-13.63,1.23-20.57c-2.29-5.18-8.89-8.58-13.69-7.62-6.99,1.41-4.64,11.4-12.75,26.76-3.42,6.48-13.29,21.76-17.64,18.39-6.84-5.29-7.29-55.25,15.76-73.48,14.08-11.14,41.42-3.78,42.87-26.38,.32-4.98-8.24-.47-7.74-7.09,1.14-15.09,23.4-33.52,43.81-33.02,9.46,.23,18.32,5.96,22.54,8.88,2.51,.4,.79-.57,1.95,1.19-1.09-.85-1.16,2.11,.91,1.95,1.12-3.2,19.72-22.92,34.02-22.15,10.9,.59,13.89,14.59,27.98,16.76s31.35-7.91,34.85-14.96c2.39-4.81-4.86-5.77-4.08-12.31,.9-7.63,8.4-18.32,15.7-29.27,7.97-11.97,11.81-21.35,19.75-28.53,3.37-3.05,6.86-6.02,11.32-8.16,11.26-5.4,22.76-4.3,26.8-10.62,3.27-5.12-4.79-13.41-1.13-17.34,3.35-3.6,13.43-4.3,21.6-1.85,15.72,4.7,16.74,18.07,30.29,21.69,8.11,2.17,18.26,.83,24.59-.76,2.07-.52,3.69-1.04,4.74-1.57,1.45-.73,1.91-1.83,1.14-2.57-1.43-1.36-4.22,.96-7.14-.1-.34,2.16-4.46,.05-3.58-3.18,.51-1.89,5.91-3.15,12.68-.47,3.34,1.32,5.91,3.74,9.96,6.77,2.65,1.98,5.83,4,9.9,5.94,8.79,4.14,19.26,7.76,29.53,6.27,15.05-2.19,29.69-15.47,35.51-29.52,1.21-2.93,2.11-5.85,2.36-8.71,.98-11.29-5.6-15.57-4.25-24.94,2.56-17.78,20.58-36.34,39.1-46.39,11.11-6.03,18.18-8.4,27.49-10.68,3.92-.96,8.28-1.91,13.71-3.44,14.34-4.09,34.1-10.72,58.27-24.89"/><path class="b" d="M429.98,446.98c-31.71,3.79-42.11,9.53-44.4,14.45-3.74,8.03,8.43,14.02,4.37,23.2-3.36,7.59-16.14,11.36-25.7,10.58-8.37-.68-15.38-4.7-21.62-10.36-4.3-3.91-8.01-8.63-12.19-12.95-22.54-23.3-22.29-38.54-32.8-39.24-7.88-.52-17.06,5.67-18.81,13.9-2.62,12.29,14.03,22.22,11.95,38.5-1.07,8.31-6.52,16.27-10.19,15.3-2.94-.78-4.98-5.22-7.72-10.49-3.07-5.91-7.17-12.9-16.31-15.53-22.31-6.4-10.1,31.92-21.36,26.55-6.7-3.19-2.45-21.86-15.28-30.87-7.88-5.57-14.83-3.64-17.27-10.29s4.16-12.99,1.35-19.61c-2.1-4.95-8.25-8.22-12.72-7.41-6.47,1.18-4.15,10.38-11.68,24.68-3.13,5.95-12.37,20.19-16.35,16.85-6.31-5.31-6.46-52.72,15.4-70.21,13.41-10.73,39.25-4.05,40.79-25.52,.34-4.74-7.69-.56-7.15-6.82,1.24-14.46,22.49-31.95,41.98-31.44,9.44,.25,18.05,6.15,22.36,9.52,2.52,.67,1.08,.08,2.38,2.04-.78-.46-.54,2.63,1.8,2.7,1.72-2.67,20.03-21.1,34.32-20.42,10.84,.51,14.25,13.58,28.08,15.43s30.64-7.89,34.39-14.86c2.53-4.71-4.07-5.85-3.09-12.2,1.18-7.61,8.6-18.06,15.54-28.83,7.74-12.01,10.92-21.3,18.31-28.67,3.12-3.11,6.36-6.2,10.67-8.49,10.61-5.64,21.79-4.98,25.92-11.34,3.29-5.07-4.05-13.11-.32-17.02,3.44-3.61,13.23-4.44,21.23-2.33,15.52,4.09,17.24,16.41,30.64,19.78,8.08,2.04,18.03,.84,24.25-.44,2.05-.42,3.65-.82,4.69-1.22,1.46-.55,1.93-1.39,1.24-1.92-1.33-1.01-3.94,1.38-6.71,.64-.33,2.3-4.32,.57-3.42-2.17,.44-1.35,5.56-2.08,12.1,.78,3.22,1.41,5.75,3.83,9.72,6.81,2.62,1.97,5.76,3.95,9.76,5.84,8.66,4.04,18.98,7.48,29.13,6.01,14.87-2.15,29.37-14.96,35.38-28.66,1.25-2.85,2.21-5.71,2.52-8.51,1.24-10.97-4.8-15.4-3.4-24.63,2.69-17.73,19.58-36.34,37.29-46.67,10.58-6.17,17.46-8.83,26.66-11.28,3.84-1.02,8.13-2.01,13.46-3.54,14.12-4.07,33.65-10.36,57.86-23.22"/><path class="b" d="M415.33,447.88c-29.91,3.32-39.89,8.39-42.14,12.81-3.72,7.29,7.74,12.83,3.84,21.26-3.21,6.93-15.27,10.27-24.25,9.37-7.86-.79-14.42-4.71-20.19-10.15-3.98-3.76-7.34-8.28-11.18-12.37-20.74-22.07-20.25-36.23-29.64-36.85-7.21-.48-15.62,5.34-17.09,13.06-2.19,11.53,13.65,20.84,11.96,36.06-.86,7.77-5.83,15.21-9.13,14.27-2.67-.76-4.52-4.93-6.97-9.9-2.75-5.58-6.41-12.21-14.84-14.73-20.62-6.15-8.94,29.66-19.24,24.41-6.12-3.12-1.97-20.78-13.84-29.39-7.29-5.32-13.71-3.62-15.92-9.96s4.03-12.35,1.47-18.66c-1.92-4.72-7.62-7.86-11.75-7.2-5.94,.95-3.67,9.37-10.61,22.59-2.84,5.41-11.45,18.63-15.05,15.31-5.79-5.34-5.63-50.18,15.03-66.93,12.74-10.33,37.08-4.33,38.71-24.65,.36-4.51-7.14-.64-6.56-6.56,1.34-13.82,21.58-30.38,40.16-29.86,9.41,.26,17.79,6.35,22.18,10.17,2.53,.95,1.36,.74,2.81,2.89-.47-.07,.07,3.16,2.7,3.45,2.32-2.13,20.34-19.28,34.61-18.7,10.78,.44,14.61,12.58,28.17,14.1,12.95,1.45,29.92-7.87,33.92-14.75,2.68-4.6-3.28-5.93-2.1-12.1,1.45-7.6,8.79-17.79,15.39-28.39,7.51-12.06,10.03-21.25,16.88-28.82,2.87-3.17,5.85-6.37,10.03-8.82,9.97-5.85,20.82-5.65,25.05-12.06,3.32-5.02-3.3-12.82,.48-16.71,3.52-3.62,13.03-4.58,20.86-2.8,15.33,3.48,17.74,14.74,30.98,17.87,8.05,1.9,17.8,.85,23.9-.11,2.02-.32,3.6-.6,4.64-.87,1.46-.37,1.96-.94,1.34-1.28-1.22-.65-3.66,1.79-6.27,1.37-.33,2.44-3.84,1.18-3.27-1.16,.51-.75,5.2-1.02,11.52,2.04,3.1,1.5,5.59,3.92,9.48,6.85,2.59,1.95,5.69,3.91,9.62,5.74,8.53,3.94,18.7,7.2,28.73,5.75,14.68-2.12,29.05-14.45,35.25-27.81,1.3-2.78,2.3-5.56,2.69-8.31,1.49-10.64-4-15.23-2.55-24.32,2.82-17.69,18.58-36.33,35.49-46.95,10.04-6.31,16.75-9.26,25.84-11.89,3.75-1.08,7.98-2.12,13.21-3.63,13.9-4.05,33.21-9.99,57.46-21.55"/><path class="b" d="M400.68,448.77c-28.1,2.85-37.66,7.25-39.88,11.17-3.7,6.54,7.05,11.65,3.3,19.32-3.07,6.28-14.41,9.18-22.8,8.15-7.35-.91-13.46-4.71-18.75-9.94-3.66-3.62-6.67-7.94-10.17-11.78-18.94-20.83-18.22-33.91-26.49-34.46-6.55-.43-14.18,5-15.36,12.22-1.76,10.76,13.26,19.45,11.97,33.63-.66,7.24-5.14,14.15-8.07,13.25-2.39-.73-4.06-4.64-6.22-9.31-2.43-5.25-5.64-11.52-13.36-13.92-18.93-5.91-7.79,27.39-17.13,22.27-5.54-3.04-1.48-19.7-12.41-27.9-6.7-5.07-12.59-3.6-14.57-9.62s3.9-11.72,1.59-17.7c-1.73-4.49-6.98-7.49-10.78-6.99-5.42,.72-3.18,8.35-9.53,20.5-2.55,4.88-10.53,17.05-13.75,13.76-5.26-5.37-4.81-47.64,14.67-63.66,12.07-9.92,34.92-4.6,36.63-23.78,.38-4.27-6.58-.72-5.97-6.3,1.45-13.18,20.67-28.46,38.33-28.29,9.39,.09,16.92,7.29,22,10.81,2.32,1.61,1.64,1.39,3.24,3.75-.16,.32,.68,3.69,3.6,4.19,2.92-1.59,20.65-17.46,34.91-16.97,10.72,.37,14.97,11.57,28.27,12.76,12.74,1.14,29.2-7.85,33.46-14.65,2.82-4.5-2.49-6.02-1.12-11.99,1.74-7.58,8.97-17.53,15.24-27.95,7.28-12.11,9.14-21.19,15.45-28.96,2.61-3.22,5.35-6.53,9.39-9.15,9.33-6.05,19.84-6.33,24.17-12.77,3.34-4.97-2.56-12.52,1.28-16.39,3.6-3.63,12.83-4.72,20.49-3.28,15.13,2.86,18.24,13.08,31.32,15.96,8.02,1.77,17.57,.87,23.56,.22,2-.22,3.56-.38,4.59-.51,1.47-.19,2.03-.63,1.43-.64-.99-.53-3.38,2.21-5.83,2.11-.32,2.58-3.63,1.73-3.11-.15,.46-.2,4.84,.04,10.95,3.3,2.98,1.59,5.43,4.01,9.23,6.89,2.56,1.94,5.63,3.86,9.48,5.64,8.39,3.85,18.42,6.92,28.33,5.49,14.49-2.09,28.73-13.94,35.13-26.95,1.34-2.71,2.4-5.42,2.85-8.11,1.75-10.32-3.2-15.06-1.7-24.01,2.96-17.65,17.58-36.31,33.68-47.23,9.51-6.45,16.04-9.69,25.01-12.49,3.67-1.14,7.83-2.22,12.97-3.73,13.67-4.03,32.76-9.62,57.05-19.88"/><path class="b" d="M386.03,449.67c-26.3,2.39-35.44,6.1-37.62,9.54-3.67,5.78,6.36,10.46,2.77,17.38-2.92,5.63-13.54,8.09-21.34,6.93-6.84-1.02-12.5-4.72-17.31-9.73-3.34-3.47-6-7.59-9.15-11.2-17.14-19.59-16.18-31.6-23.33-32.07-5.88-.39-12.74,4.67-13.63,11.38-1.33,10,12.88,18.07,11.99,31.2-.46,6.71-4.45,13.09-7.01,12.23-2.12-.71-3.59-4.35-5.47-8.73-2.11-4.93-4.88-10.82-11.89-13.12-17.24-5.66-6.63,25.13-15.02,20.13-4.97-2.96-1-18.62-10.97-26.42-6.12-4.82-11.47-3.58-13.22-9.29s3.77-11.08,1.72-16.74c-1.55-4.27-6.35-7.13-9.8-6.78-4.9,.49-2.69,7.34-8.46,18.41-2.26,4.34-9.61,15.48-12.46,12.22-4.74-5.42-3.98-45.11,14.31-60.39,11.39-9.52,32.76-4.88,34.55-22.91,.4-4.03-6.03-.81-5.38-6.04,1.55-12.55,19.76-26.89,36.51-26.71,9.37,.1,16.67,7.4,21.82,11.46,2.33,1.84,1.93,2.05,3.67,4.6,.14,.71,1.3,4.21,4.5,4.94,3.52-1.05,20.96-15.65,35.21-15.25,10.66,.3,15.33,10.56,28.37,11.43,12.53,.83,28.48-7.83,33-14.55,2.96-4.4-1.69-6.1-.13-11.88,2.03-7.56,9.16-17.27,15.08-27.51,7.04-12.16,8.26-21.14,14.01-29.1,2.36-3.27,4.85-6.69,8.74-9.48,8.69-6.23,18.86-7.01,23.3-13.49,3.37-4.92-1.81-12.22,2.09-16.08,3.68-3.64,12.63-4.87,20.12-3.75,14.94,2.23,18.74,11.41,31.67,14.05,8,1.63,17.34,.88,23.22,.55,1.97-.11,3.52-.23,4.54-.16,1.47,.11,2.05-.21,1.53,0-.87-.22-3.1,2.62-5.39,2.84-.31,2.73-3.42,2.27-2.95,.86,.4,.35,4.49,1.11,10.37,4.56,2.86,1.67,5.28,4.1,8.99,6.93,2.53,1.93,5.56,3.81,9.34,5.54,8.26,3.75,18.14,6.64,27.94,5.24,14.31-2.06,28.41-13.43,35-26.09,1.38-2.64,2.49-5.28,3.01-7.91,2-9.99-2.4-14.89-.85-23.7,3.1-17.6,16.58-36.29,31.88-47.52,8.98-6.59,15.33-10.12,24.19-13.09,3.59-1.2,7.67-2.33,12.72-3.83,13.45-4.01,32.32-9.25,56.65-18.2"/><path class="b" d="M371.38,450.57c-24.5,1.92-32.65,5.42-35.36,7.9-2.57,5.62,5.67,9.27,2.24,15.44-2.77,4.98-12.68,7.01-19.89,5.71-6.33-1.14-11.54-4.74-15.88-9.52-3.02-3.33-5.32-7.24-8.14-10.61-15.33-18.35-14.14-29.28-20.18-29.68-5.21-.34-11.3,4.34-11.91,10.55-.9,9.24,12.5,16.68,12,28.77-.25,6.17-3.75,12.03-5.95,11.2-1.84-.69-3.13-4.06-4.72-8.14-1.79-4.6-4.12-10.13-10.42-12.32-15.55-5.41-5.49,22.86-12.9,17.99-4.4-2.89-.53-17.52-9.54-24.93-5.54-4.56-10.35-3.55-11.87-8.96s3.64-10.44,1.84-15.78c-1.36-4.04-5.71-6.76-8.83-6.57-4.38,.27-2.21,6.32-7.39,16.32-1.97,3.8-8.69,13.89-11.16,10.68-4.21-5.48-3.16-42.57,13.94-57.11,10.72-9.11,30.59-5.15,32.47-22.04,.42-3.8-5.47-.89-4.79-5.78,1.66-11.92,18.85-25.32,34.68-25.13,9.34,.11,16.43,7.51,21.64,12.1,2.34,2.07,2.51,2.52,4.1,5.45,.57,1.04,1.91,4.74,5.4,5.69,4.12-.52,21.27-13.83,35.5-13.52,10.61,.23,15.7,9.55,28.46,10.09s27.76-7.81,32.54-14.45c3.09-4.3-.88-6.18,.86-11.78,2.34-7.53,9.34-17.02,14.93-27.07,6.8-12.22,7.38-21.07,12.58-29.24,2.12-3.33,4.36-6.84,8.1-9.81,8.07-6.4,17.89-7.69,22.42-14.21,3.39-4.87-1.06-11.93,2.89-15.76s12.43-5.02,19.74-4.23c14.75,1.6,19.25,9.74,32.01,12.14,7.97,1.49,17.11,.57,22.87,.87,1.95,.1,3.47,.07,4.49,.2,1.48,.18,2.07,.22,1.63,.65-.76,.09-2.82,3.04-4.95,3.58-.31,2.87-3.21,2.81-2.79,1.87,.34,.9,4.13,2.17,9.8,5.81,2.73,1.76,5.12,4.19,8.74,6.97,2.51,1.92,5.5,3.76,9.2,5.44,8.13,3.65,17.86,6.37,27.54,4.98,14.12-2.02,28.09-12.92,34.88-25.23,1.42-2.57,2.58-5.13,3.18-7.71,2.25-9.67-1.59-14.72,0-23.38,3.24-17.56,15.59-36.27,30.07-47.8,8.46-6.73,14.62-10.54,23.37-13.69,3.51-1.26,7.52-2.43,12.48-3.92,13.23-4,31.87-8.88,56.25-16.53"/><path class="b" d="M356.73,451.46c-22.69,1.46-30.41,4.33-33.1,6.26-2.49,4.94,4.99,8.09,1.71,13.49-2.63,4.33-11.81,5.92-18.44,4.49-5.83-1.25-10.58-4.75-14.44-9.31-2.7-3.19-4.65-6.89-7.13-10.03-13.52-17.1-12.11-26.97-17.02-27.29-4.55-.3-9.86,4-10.18,9.71-.47,8.47,12.11,15.3,12.02,26.34-.05,5.64-3.06,10.97-4.89,10.18-1.56-.67-2.67-3.77-3.97-7.55-1.47-4.28-3.36-9.44-8.94-11.52-13.86-5.17-4.34,20.59-10.79,15.85-3.82-2.81-.05-16.43-8.11-23.45-4.96-4.31-9.23-3.53-10.52-8.63s3.51-9.81,1.96-14.82c-1.18-3.81-5.08-6.39-7.86-6.36-3.87,.05-1.72,5.31-6.32,14.23-1.69,3.27-7.77,12.3-9.86,9.14-3.68-5.55-2.33-40.04,13.58-53.84,10.05-8.71,28.43-5.43,30.39-21.18,.44-3.56-4.92-.98-4.2-5.52,1.77-11.29,17.94-23.75,32.86-23.55,9.32,.12,16.21,7.63,21.46,12.75,2.36,2.3,2.7,3.23,4.53,6.3,.86,1.43,2.39,5.83,6.3,6.44,4.67,.72,21.58-12.01,35.8-11.8,10.55,.16,16.06,8.54,28.56,8.76,12.11,.21,27.03-7.8,32.07-14.35,3.23-4.2-.06-6.25,1.85-11.67,2.65-7.5,9.51-16.76,14.78-26.63,6.55-12.28,6.51-21.01,11.15-29.39,1.87-3.38,3.87-6.98,7.45-10.14,7.46-6.56,16.91-8.37,21.55-14.93,3.41-4.82-.32-11.63,3.69-15.44s12.24-5.18,19.37-4.7c14.56,.97,19.75,8.07,32.36,10.22,7.94,1.36,16.88,.92,22.53,1.2,1.92,.1,3.43,.3,4.44,.55,1.48,.37,2.09,.64,1.72,1.29-.65,.4-2.54,3.46-4.51,4.31-.3,3.01-3,3.35-2.64,2.88,.29,1.45,3.78,3.23,9.22,7.07,2.61,1.85,4.96,4.28,8.5,7,2.48,1.9,5.43,3.71,9.06,5.34,7.99,3.55,17.59,6.09,27.14,4.72,13.93-1.99,27.77-12.42,34.75-24.38,1.46-2.49,2.67-4.99,3.34-7.51,2.49-9.35-.79-14.55,.86-23.07,3.38-17.51,14.59-36.24,28.27-48.08,7.93-6.86,13.92-10.97,22.54-14.29,3.43-1.32,7.37-2.54,12.23-4.02,13.01-3.98,31.43-8.51,55.84-14.86"/><path class="b" d="M342.08,452.36c-20.89,.99-28.17,3.23-30.84,4.62-2.41,4.25,4.3,6.92,1.17,11.55-2.49,3.69-10.95,4.83-16.99,3.28-5.32-1.37-9.62-4.76-13-9.1-2.37-3.05-3.97-6.53-6.11-9.44-11.69-15.84-10.07-24.65-13.87-24.9-3.88-.26-8.42,3.67-8.45,8.87-.05,7.7,11.73,13.92,12.03,23.91,.15,5.11-2.36,9.9-3.83,9.16-1.28-.65-2.21-3.49-3.22-6.96-1.16-3.97-2.59-8.75-7.47-10.72-12.16-4.93-3.2,18.32-8.67,13.71-3.26-2.74,.43-15.35-6.67-21.96-4.37-4.07-8.11-3.5-9.17-8.29s3.38-9.17,2.08-13.87c-.99-3.59-4.46-6.02-6.89-6.15-3.36-.18-1.24,4.29-5.25,12.14-1.4,2.73-6.84,10.69-8.57,7.6-3.15-5.63-1.51-37.51,13.22-50.56,9.37-8.31,26.27-5.7,28.31-20.31,.47-3.33-4.36-1.06-3.61-5.26,1.88-10.66,17.04-22.18,31.03-21.97,9.29,.14,15.99,7.75,21.28,13.39,2.39,2.54,2.93,3.92,4.97,7.15,1.15,1.83,3,6.26,7.2,7.19,5.23,1.16,21.89-10.19,36.09-10.07,10.49,.09,16.43,7.78,28.65,7.42s26.31-7.79,31.61-14.24c3.37-4.1,.75-6.32,2.84-11.56,2.97-7.47,9.68-16.51,14.62-26.19,6.29-12.34,5.64-20.94,9.71-29.53,1.63-3.43,3.38-7.12,6.81-10.47,6.86-6.7,15.93-9.06,20.68-15.65,3.44-4.78,.43-11.33,4.5-15.13s12.05-4.79,19-5.18c14.35-.81,20.25,6.4,32.7,8.31,7.92,1.22,16.64,.94,22.18,1.53,1.9,.2,3.38,.52,4.39,.9,1.49,.56,2.25,1.12,1.82,1.93s-2.26,3.87-4.07,5.05c-.3,3.15-2.79,3.9-2.48,3.89,.23,2,3.43,4.29,8.65,8.33,2.49,1.93,4.8,4.38,8.26,7.04,2.45,1.89,5.36,3.67,8.92,5.24,7.86,3.45,17.31,5.81,26.74,4.47,13.75-1.96,27.45-11.91,34.63-23.52,1.5-2.42,2.76-4.85,3.51-7.31,2.73-9.02,.02-14.38,1.71-22.76,3.52-17.47,13.61-36.21,26.46-48.36,7.4-6.99,13.21-11.39,21.72-14.89,3.35-1.38,7.22-2.64,11.99-4.11,12.78-3.96,30.98-8.15,55.44-13.18"/><path class="b" d="M327.42,453.26c-19.08,.53-25.93,2.14-28.58,2.98-2.33,3.56,3.61,5.75,.64,9.61-2.35,3.05-10.08,3.74-15.54,2.06-4.81-1.48-8.66-4.78-11.56-8.89-2.05-2.9-3.28-6.18-5.1-8.86-9.86-14.56-8.03-22.34-10.72-22.51-3.22-.21-6.98,3.33-6.73,8.03,.38,6.93,11.34,12.53,12.05,21.48,.36,4.57-1.65,8.84-2.77,8.13-.99-.63-1.74-3.21-2.47-6.38-.84-3.66-1.83-8.05-6-9.92-10.46-4.68-2.06,16.04-6.56,11.57-2.69-2.68,.91-14.27-5.24-20.47-3.79-3.82-6.99-3.48-7.82-7.96s3.25-8.54,2.2-12.91c-.81-3.36-3.84-5.65-5.91-5.94-2.87-.4-.76,3.27-4.18,10.05-1.11,2.2-5.9,9.09-7.27,6.06-2.6-5.73-.69-34.98,12.86-47.29,8.7-7.91,24.11-5.98,26.23-19.44,.49-3.09-3.79-1.15-3.02-5,2-10.03,16.13-20.61,29.21-20.4,9.27,.15,15.77,7.88,21.1,14.04,2.41,2.79,3.17,4.6,5.4,8,1.45,2.22,3.62,6.7,8.09,7.93,5.81,1.61,22.21-8.46,36.39-8.34,10.43,.09,16.79,6.51,28.75,6.09,11.69-.41,25.58-7.78,31.15-14.14,3.51-4,1.58-6.39,3.82-11.46,3.29-7.43,9.85-16.26,14.47-25.75,6.03-12.4,4.78-20.87,8.28-29.67,1.38-3.48,2.91-7.25,6.17-10.8,6.28-6.83,14.95-9.74,19.8-16.37,3.46-4.73,1.17-11.04,5.3-14.81s11.88-4.98,18.63-5.65c14.11-1.41,20.75,4.72,33.04,6.4,7.89,1.08,16.41,.96,21.84,1.86,1.87,.31,3.34,.75,4.34,1.26,1.49,.76,2.24,1.51,1.92,2.58s-1.98,4.29-3.63,5.79c-.29,3.29-2.58,4.44-2.32,4.9,.18,2.56,3.08,5.34,8.07,9.59,2.37,2.02,4.64,4.47,8.01,7.08,2.42,1.88,5.3,3.62,8.78,5.14,7.73,3.35,17.03,5.53,26.34,4.21,13.56-1.93,27.13-11.4,34.5-22.66,1.54-2.35,2.85-4.71,3.67-7.11,2.97-8.7,.82-14.21,2.56-22.45,3.66-17.42,12.62-36.18,24.66-48.64,6.88-7.12,12.5-11.81,20.9-15.49,3.27-1.43,7.06-2.75,11.74-4.21,12.56-3.94,30.54-7.78,55.03-11.51"/><path class="b" d="M312.77,454.15c-17.28,.06-23.69,1.05-26.32,1.34-2.25,2.87,2.91,4.59,.11,7.67-2.21,2.43-9.22,2.65-14.09,.84-4.31-1.6-7.69-4.79-10.13-8.68-1.73-2.77-2.6-5.81-4.09-8.27-8.02-13.27-6-20.02-7.56-20.12-2.55-.17-5.55,2.98-5,7.19,.8,6.15,10.96,11.15,12.06,19.05,.56,4.04-.94,7.78-1.71,7.11-.7-.61-1.28-2.93-1.72-5.79-.52-3.35-1.06-7.36-4.52-9.12-8.76-4.44-.93,13.75-4.45,9.43-2.13-2.62,1.39-13.19-3.8-18.99-3.2-3.57-5.87-3.45-6.47-7.63-.57-3.95,3.13-7.91,2.32-11.95-.62-3.14-3.22-5.28-4.94-5.73-2.39-.62-.28,2.25-3.11,7.97-.82,1.66-4.95,7.47-5.97,4.51-2.03-5.84,.14-32.45,12.49-44.02,8.02-7.51,21.96-6.26,24.16-18.57,.51-2.85-3.23-1.23-2.44-4.74,2.13-9.4,15.22-19.03,27.38-18.82,9.24,.16,15.56,8.02,20.92,14.68,2.44,3.03,3.43,5.27,5.83,8.85,1.75,2.62,4.25,7.15,8.99,8.68,6.4,2.07,22.52-6.54,36.69-6.62,10.38-.05,17.15,5.5,28.84,4.75s24.85-7.77,30.69-14.04c3.64-3.91,2.4-6.45,4.81-11.35,3.63-7.38,10.01-16.01,14.32-25.31,5.77-12.47,3.92-20.81,6.85-29.81,1.15-3.53,2.44-7.38,5.52-11.13,5.71-6.96,13.97-10.42,18.93-17.09,3.48-4.68,1.92-10.74,6.1-14.5s11.65-5.66,18.26-6.13c13.98-.98,21.25,3.05,33.39,4.49,7.87,.93,16.18,.99,21.5,2.18,1.85,.42,3.29,.98,4.29,1.61,1.49,.95,2.24,1.92,2.01,3.22s-1.7,4.7-3.19,6.52c-.28,3.44-2.29,4.96-2.16,5.91,.4,3.08,2.73,6.4,7.49,10.84,2.26,2.1,4.48,4.56,7.77,7.12,2.39,1.87,5.23,3.57,8.64,5.04,7.59,3.25,16.75,5.25,25.94,3.95,13.37-1.9,26.81-10.89,34.38-21.8,1.58-2.28,2.94-4.56,3.84-6.91,3.2-8.39,1.63-14.04,3.41-22.14,3.81-17.37,11.64-36.14,22.85-48.92,6.36-7.25,11.8-12.23,20.07-16.1,3.19-1.49,6.91-2.85,11.49-4.3,12.34-3.92,30.09-7.41,54.63-9.84"/><path class="b" d="M298.12,455.05c-15.48-.4-21.44-.04-24.06-.3-2.17,2.18,2.21,3.45-.42,5.73-2.09,1.82-8.36,1.56-12.64-.38-3.8-1.72-6.73-4.81-8.69-8.47-1.41-2.63-1.91-5.44-3.07-7.69-6.17-11.94-3.96-17.71-4.41-17.73-1.89-.12-4.12,2.64-3.27,6.35,1.22,5.37,10.58,9.77,12.07,16.62,.77,3.51-.34,6.81-.65,6.08-.49-.5-.81-2.67-.97-5.2-.2-3.06-.28-6.67-3.05-8.32-7.04-4.2,.21,11.44-2.33,7.29-1.57-2.57,1.87-12.11-2.37-17.5-2.62-3.32-4.76-3.42-5.12-7.3-.34-3.63,3-7.27,2.44-10.99-.43-2.92-2.62-4.92-3.97-5.52-1.93-.86,.17,1.23-2.04,5.88-.53,1.12-3.98,5.85-4.68,2.97-1.43-5.95,.95-29.93,12.13-40.74,7.35-7.11,19.8-6.53,22.08-17.71,.53-2.62-2.66-1.32-1.85-4.47,2.26-8.78,14.31-17.45,25.56-17.24,9.22,.17,15.34,8.16,20.75,15.33,2.48,3.28,3.7,5.94,6.26,9.7,2.05,3.01,4.88,7.62,9.89,9.43,7.01,2.53,22.83-4.72,36.98-4.89,10.32-.12,17.51,4.48,28.94,3.42s24.12-7.77,30.22-13.94c3.78-3.82,3.23-6.51,5.8-11.24,3.97-7.32,10.17-15.76,14.16-24.87,5.49-12.53,3.07-20.74,5.41-29.96,.91-3.58,1.99-7.5,4.88-11.46,5.17-7.08,12.99-11.1,18.05-17.8,3.5-4.64,2.67-10.44,6.91-14.18s11.45-5.83,17.89-6.6c13.79-1.65,21.75,1.37,33.73,2.58,7.84,.79,15.94,1.02,21.15,2.51,1.82,.52,3.24,1.2,4.24,1.97,1.49,1.14,2.24,2.33,2.11,3.86-.14,1.65-1.42,5.12-2.75,7.26-.28,3.58-2.1,5.52-2,6.92,.24,3.65,2.38,7.46,6.92,12.1,2.14,2.19,4.32,4.65,7.53,7.16,2.37,1.86,5.16,3.52,8.49,4.94,7.46,3.15,16.47,4.97,25.54,3.69,13.19-1.86,26.49-10.38,34.25-20.94,1.62-2.2,3.03-4.42,4-6.71,3.43-8.07,2.44-13.87,4.26-21.83,3.96-17.33,10.67-36.1,21.05-49.2,5.84-7.37,11.1-12.64,19.25-16.7,3.11-1.54,6.76-2.96,11.25-4.4,12.12-3.9,29.65-7.04,54.22-8.17"/><path class="b" d="M283.47,455.95c-13.67-.87-19.2-1.14-21.8-1.94-2.09,1.5,1.47,2.31-.95,3.79-1.99,1.22-7.49,.46-11.18-1.6-3.3-1.84-5.76-4.84-7.25-8.26-1.08-2.49-1.61-4.94-2.06-7.1-6.21-9.57-1.92-15.39-1.25-15.34-1.22-.08-2.69,2.29-1.55,5.51,1.62,4.58,10.2,8.39,12.09,14.19,.97,2.98,.35,5.75,.41,5.06-.22-.47-.33-2.41-.22-4.62,.13-2.78,.5-5.97-1.58-7.52-5.31-3.95,1.35,9.11-.22,5.15-1-2.53,2.35-11.03-.94-16.02-2.03-3.08-3.64-3.39-3.77-6.96-.12-3.3,2.88-6.64,2.57-10.04-.25-2.69-1.91-4.81-3-5.31-1.23-1.42,.57,.17-.96,3.79-.25,.59-3.01,4.24-3.38,1.43-.81-6.06,1.77-27.41,11.77-37.47,6.67-6.71,17.65-6.81,20-16.84,.56-2.38-2.08-1.41-1.26-4.21,2.4-8.15,13.4-15.88,23.74-15.66,9.19,.19,15.13,8.31,20.57,15.97,2.51,3.54,3.97,6.6,6.69,10.55,2.35,3.41,5.5,8.09,10.79,10.18,7.62,3.01,23.14-2.9,37.28-3.17,10.26-.19,17.87,3.46,29.03,2.08s23.39-7.77,29.76-13.84c3.91-3.73,4.06-6.56,6.79-11.14,4.32-7.25,10.33-15.51,14.01-24.43,5.21-12.6,2.23-20.68,3.98-30.1,.67-3.63,1.55-7.63,4.23-11.79,4.64-7.21,12.01-11.79,17.18-18.52,3.52-4.59,3.41-10.14,7.71-13.87s11.25-6,17.52-7.08c13.59-2.32,22.26-.31,34.08,.66,7.81,.64,15.71,1.05,20.81,2.84,1.8,.63,3.19,1.43,4.19,2.32,1.49,1.33,2.25,2.75,2.21,4.51-.04,1.96-1.14,5.54-2.32,7.99-.27,3.72-1.9,6.06-1.85,7.93,.12,4.21,2.03,8.51,6.34,13.36,2.02,2.27,4.17,4.74,7.28,7.2,2.34,1.84,5.1,3.47,8.35,4.84,7.33,3.06,16.19,4.7,25.14,3.44,13-1.83,26.17-9.87,34.13-20.09,1.66-2.13,3.12-4.28,4.17-6.51,3.66-7.76,3.25-13.7,5.11-21.52,4.11-17.28,9.7-36.06,19.24-49.49,5.33-7.5,10.4-13.06,18.42-17.3,3.03-1.6,6.61-3.06,11-4.49,11.89-3.88,29.2-6.67,53.82-6.49"/><path class="b" d="M268.82,456.84c-11.87-1.34-16.96-2.23-19.54-3.58-2.01,.81,.48,.73-1.49,1.85-2.03,.2-6.63-.63-9.73-2.81-2.79-1.96-4.79-4.87-5.81-8.05-.76-2.36-.96-4.59-1.05-6.52-4.48-8.29,.11-13.08,1.9-12.95-.55-.04-1.27,1.93,.18,4.67,2.01,3.79,9.82,7.01,12.1,11.76,1.18,2.45,1.04,4.7,1.47,4.04,.05-.44,.17-2.16,.53-4.03,.48-2.5,1.29-5.27-.11-6.72-3.55-3.69,2.52,6.76,1.9,3-.42-2.51,2.84-9.95,.5-14.53-1.45-2.83-2.53-3.36-2.42-6.63,.1-2.98,2.76-6.01,2.69-9.08-.05-2.47-1.27-4.45-2.02-5.1-.71-1.66,1.28-.74,.11,1.7,.08,.07-2.02,2.63-2.09-.11-.15-6.16,2.58-24.89,11.4-34.2,5.99-6.32,15.51-7.09,17.92-15.97,.58-2.15-1.5-1.49-.67-3.95,2.55-7.52,12.49-14.3,21.91-14.09s14.92,8.46,20.39,16.62c2.54,3.79,4.24,7.27,7.12,11.4,2.65,3.8,6.13,8.57,11.69,10.92,8.23,3.48,23.45-1.08,37.58-1.44,10.2-.26,18.23,2.44,29.13,.75s22.66-7.77,29.3-13.74c4.05-3.64,4.89-6.6,7.78-11.03,4.68-7.17,10.47-15.27,13.86-23.99,4.91-12.68,1.39-20.62,2.55-30.24,.44-3.68,1.13-7.75,3.59-12.12,4.13-7.34,11.03-12.48,16.3-19.24,3.55-4.55,4.16-9.84,8.51-13.55s11.04-6.18,17.15-7.55c13.38-3.01,22.76-1.99,34.42-1.25,7.79,.5,15.47,1.08,20.46,3.17,1.77,.74,3.15,1.66,4.14,2.67,1.48,1.52,2.26,3.17,2.31,5.15,.06,2.27-1.26,5.84-1.88,8.73-.81,3.78-1.7,6.61-1.69,8.94,.03,4.76,1.68,9.57,5.77,14.62,1.9,2.35,4.01,4.83,7.04,7.24,2.31,1.83,5.03,3.43,8.21,4.74,7.19,2.96,15.92,4.42,24.75,3.18,12.81-1.8,25.85-9.36,34-19.23,1.7-2.06,3.2-4.14,4.33-6.31,3.88-7.45,4.06-13.52,5.96-21.21,4.27-17.23,8.74-36.01,17.44-49.77,4.82-7.62,9.7-13.47,17.6-17.9,2.95-1.65,6.45-3.17,10.76-4.59,11.67-3.87,28.76-6.3,53.41-4.82"/><path class="b" d="M254.17,457.74c-10.06-1.8-14.72-3.32-17.28-5.21-1.92,.12-.22-.47-2.02-.09-1.9-.46-5.77-1.73-8.28-4.03-2.28-2.09-3.82-4.9-4.38-7.84-.43-2.23-.3-4.23-.03-5.94-2.76-7.01,2.15-10.78,5.06-10.56,.11,0,.13,1.59,1.91,3.83,2.39,3.01,9.44,5.63,12.12,9.33,1.38,1.91,1.81,3.73,2.53,3.01,.37-.37,.69-1.91,1.28-3.44,.85-2.23,2.1-4.53,1.37-5.92-1.77-3.36,3.74,4.4,4.01,.86,.19-2.49,3.32-8.88,1.93-13.05-.86-2.58-1.43-3.33-1.07-6.3,.32-2.66,2.64-5.39,2.81-8.12,.14-2.25-.63-4.1-1.05-4.89-.18-1.9,1.77-1.75,1.18-.39,.37-.47-1.02,1.03-.79-1.65,.54-6.24,3.39-22.38,11.04-30.92,5.31-5.93,13.38-7.36,15.84-15.1,.61-1.91-.92-1.57-.08-3.69,2.73-6.89,11.58-12.72,20.09-12.51,9.14,.23,14.71,8.62,20.21,17.26,2.58,4.05,4.51,7.93,7.55,12.26s6.76,9.06,12.59,11.67c8.85,3.97,23.76,.77,37.87,.28,10.15-.31,18.59,1.42,29.23-.58s21.93-7.78,28.84-13.63c4.19-3.55,5.72-6.64,8.76-10.92,5.04-7.09,10.62-15.02,13.7-23.55,4.61-12.75,.56-20.56,1.11-30.38,.21-3.74,.72-7.87,2.94-12.45,3.64-7.48,10.04-13.16,15.43-19.96,3.57-4.5,4.91-9.54,9.31-13.24s10.83-6.36,16.78-8.03c13.16-3.7,23.26-3.68,34.76-3.16,7.76,.35,15.22,1.11,20.12,3.49,1.74,.85,3.1,1.88,4.09,3.03,1.48,1.71,2.27,3.59,2.4,5.79,.16,2.58-.9,6.29-1.44,9.46-.67,3.95-1.5,7.15-1.53,9.95-.05,5.32,1.34,10.62,5.19,15.87,1.79,2.44,3.85,4.92,6.8,7.27,2.28,1.82,4.97,3.38,8.07,4.64,7.06,2.86,15.64,4.14,24.35,2.92,12.63-1.77,25.53-8.85,33.88-18.37,1.74-1.99,3.29-4.01,4.49-6.11,4.11-7.15,4.87-13.35,6.81-20.9,4.43-17.18,7.79-35.97,15.63-50.05,4.32-7.75,9-13.88,16.78-18.5,2.87-1.71,6.3-3.27,10.51-4.68,11.45-3.85,28.31-5.94,53.01-3.15"/><path class="b" d="M239.52,458.64c-8.26-2.27-12.48-4.42-15.02-6.85-1.84-.57-.92-1.67-2.55-2.03-1.76-1.13-4.9-2.84-6.83-5.25-1.77-2.22-2.83-4.93-2.94-7.63-.09-2.11,.36-3.88,.98-5.35-1.03-5.74,4.19-8.45,8.21-8.18,.78,.05,1.52,1.26,3.63,2.99,2.74,2.25,9.07,4.25,12.13,6.9,1.59,1.38,2.45,2.64,3.59,1.99,.62-.36,1.23-1.64,2.03-2.86,1.27-1.94,2.87-3.75,2.84-5.12-.07-2.89,4.98,2.08,6.12-1.28,.83-2.45,3.8-7.8,3.37-11.56-.27-2.34-.32-3.31,.28-5.96,.53-2.33,2.53-4.76,2.93-7.16,.34-2.03-.11-3.74-.08-4.68,.07-2.17,2.27-2.76,2.25-2.48,.66-1-.02-.56,.51-3.19,1.26-6.29,4.2-19.87,10.68-27.65,4.62-5.54,11.25-7.64,13.76-14.23,.64-1.68-.32-1.65,.51-3.43,2.93-6.25,10.67-11.14,18.26-10.93,9.12,.25,14.5,8.78,20.03,17.91,2.61,4.31,4.79,8.59,7.98,13.11s7.39,9.55,13.48,12.42c9.47,4.45,24.07,2.59,38.17,2.01,10.09-.38,18.95,.4,29.32-1.92s21.2-7.78,28.37-13.53c4.32-3.46,6.55-6.67,9.75-10.82,5.4-6.99,10.75-14.77,13.55-23.11,4.3-12.82-.27-20.51-.32-30.53-.02-3.79,.32-7.99,2.3-12.78,3.16-7.64,9.06-13.85,14.55-20.68,3.59-4.46,5.66-9.24,10.12-12.92s10.62-6.54,16.41-8.5c12.94-4.39,23.75-5.36,35.11-5.07,7.73,.2,14.98,1.14,19.78,3.82,1.71,.96,3.05,2.11,4.04,3.38,1.48,1.89,2.28,4.01,2.5,6.43,.26,2.89-.54,6.74-1,10.2-.55,4.12-1.3,7.69-1.37,10.96-.13,5.87,1,11.68,4.62,17.13,1.67,2.52,3.68,5.02,6.55,7.31,2.25,1.81,4.9,3.33,7.93,4.54,6.93,2.76,15.36,3.86,23.95,2.66,12.44-1.73,25.21-8.35,33.75-17.51,1.79-1.91,3.37-3.87,4.66-5.91,4.33-6.85,5.68-13.18,7.66-20.58,4.59-17.13,6.84-35.93,13.83-50.33,3.82-7.87,8.31-14.29,15.95-19.1,2.8-1.76,6.15-3.38,10.27-4.78,11.22-3.83,27.87-5.57,52.6-1.47"/><path class="b" d="M224.87,459.53c-6.46-2.73-9.89-5.85-12.76-8.49-1.59-1.46-1.73-2.74-3.08-3.97-1.79-1.63-4.02-3.94-5.38-6.47-1.26-2.35-1.83-4.96-1.5-7.42,.26-1.97,1.02-3.53,1.99-4.77,.7-4.46,6.22-6.13,11.37-5.79,1.44,.1,2.9,.95,5.36,2.15,3.09,1.52,8.71,2.86,12.15,4.47,1.81,.85,3.12,1.56,4.65,.97,.88-.34,1.79-1.35,2.78-2.27,1.71-1.59,3.55-2.99,4.31-4.32,1.42-2.47,6.24-.21,8.24-3.42,1.48-2.37,4.29-6.73,4.8-10.08,.32-2.1,.77-3.28,1.63-5.63,.74-2.02,2.42-4.12,3.05-6.2,.55-1.81,.58-3.41,.89-4.47,.72-2.43,2.78-3.76,3.32-4.57,1-1.51,.99-2.13,1.8-4.74,1.98-6.32,4.99-17.37,10.32-24.37,3.93-5.16,9.14-7.9,11.68-13.37,.67-1.44,.28-1.73,1.1-3.17,3.17-5.58,9.76-9.55,16.44-9.35,9.09,.27,14.29,8.94,19.85,18.55,2.64,4.57,5.06,9.25,8.41,13.96,3.55,4.99,8.01,10.05,14.38,13.17,10.09,4.95,24.38,4.41,38.46,3.74,10.03-.46,19.31-.63,29.42-3.25s20.47-7.79,27.91-13.43c4.46-3.38,7.38-6.7,10.74-10.71,5.76-6.88,10.89-14.52,13.4-22.67,3.97-12.9-1.09-20.47-1.75-30.67-.25-3.85-.07-8.12,1.66-13.11,2.71-7.81,8.07-14.54,13.68-21.4,3.61-4.41,6.4-8.94,10.92-12.61s10.41-6.72,16.04-8.98c12.71-5.1,24.25-7.05,35.45-6.98,7.7,.05,14.73,1.17,19.43,4.15,1.68,1.07,3,2.33,3.99,3.74,1.47,2.08,2.3,4.44,2.6,7.08,.37,3.2-.18,7.18-.56,10.93-.44,4.27-1.1,8.24-1.21,11.97-.2,6.42,.66,12.73,4.04,18.39,1.56,2.61,3.53,5.11,6.31,7.35,2.22,1.8,4.83,3.28,7.79,4.44,6.8,2.66,15.08,3.58,23.55,2.41,12.25-1.7,24.89-7.84,33.63-16.66,1.83-1.84,3.45-3.74,4.82-5.71,4.55-6.55,6.49-13,8.51-20.27,4.75-17.07,5.91-35.89,12.02-50.61,3.32-8,7.61-14.7,15.13-19.7,2.72-1.81,6-3.48,10.02-4.88,11-3.81,27.42-5.2,52.2,.2"/><path class="b" d="M210.22,460.43c-4.65-3.2-7.83-6.73-10.5-10.13-1.59-2.02-2.39-4.03-3.61-5.91-1.57-2.4-3.14-5.04-3.93-7.69-.73-2.47-.82-4.97-.06-7.21,.62-1.83,1.83-3.01,3.01-4.18,2.84-2.82,8.26-3.82,14.52-3.4,2.11,.14,4.31,.66,7.09,1.31,3.47,.81,8.33,1.46,12.16,2.04,2.02,.3,3.8,.48,5.71-.06,1.15-.32,2.33-1.02,3.53-1.68,2.14-1.19,4.23-2.32,5.79-3.51,2.94-2.25,7.47-2.45,10.35-5.56,2.11-2.28,4.79-5.65,6.23-8.59,.91-1.85,1.86-3.26,2.98-5.3,.94-1.7,2.33-3.48,3.17-5.25,.76-1.58,1.25-3.05,1.87-4.27,1.34-2.66,3.26-4.78,4.39-6.66,1.25-2.07,1.99-3.68,3.1-6.28,2.7-6.31,5.77-14.88,9.95-21.1,3.22-4.79,7.04-8.16,9.6-12.5,.71-1.2,.89-1.79,1.69-2.91,3.46-4.86,8.86-7.97,14.61-7.78,9.06,.31,14.07,9.11,19.67,19.2,2.68,4.83,5.33,9.92,8.84,14.81,3.84,5.39,8.64,10.54,15.28,13.92,10.71,5.44,24.7,6.22,38.76,5.46,9.97-.53,19.66-1.67,29.51-4.59,9.98-3,19.74-7.81,27.45-13.33,4.6-3.29,8.2-6.72,11.73-10.6,6.13-6.76,11.01-14.27,13.24-22.23,3.63-12.97-1.92-20.43-3.18-30.81-.48-3.91-.45-8.26,1.01-13.44,2.26-8,7.09-15.23,12.8-22.12,3.63-4.37,7.15-8.64,11.72-12.29,4.7-3.73,10.18-6.9,15.67-9.45,12.47-5.8,24.75-8.74,35.8-8.9,7.67-.11,14.48,1.2,19.09,4.48,1.65,1.18,2.94,2.56,3.94,4.09,1.47,2.27,2.31,4.86,2.69,7.72,.46,3.51,.18,7.61-.12,11.67-.33,4.42-.9,8.78-1.06,12.98-.27,6.97,.32,13.79,3.46,19.65,1.45,2.69,3.37,5.2,6.06,7.39,2.19,1.79,4.77,3.23,7.65,4.34,6.66,2.56,14.8,3.31,23.15,2.15,12.07-1.67,24.57-7.33,33.5-15.8,1.87-1.77,3.54-3.6,4.99-5.51,4.76-6.26,7.31-12.83,9.37-19.96,4.92-17.02,4.98-35.85,10.22-50.89,2.83-8.13,6.93-15.1,14.31-20.3,2.64-1.86,5.84-3.59,9.77-4.97,10.78-3.79,26.98-4.83,51.8,1.87"/><path class="b" d="M195.57,461.33c-8.99-11.57-18.6-26.79-13.49-35.52,6.44-10.99,29,.65,53.73-6.7,48.54-14.42,53.86-86.7,79.9-85.69,18.35,.71,19.33,36.75,44.94,50.17,40.8,21.38,112.08-6.92,121.46-44.25,4.51-17.96-8.6-25.12-4.25-44.72,8.7-39.25,73.81-67.26,94.64-50.74,17.35,13.76-4.98,51.31,14.81,67.54,14.49,11.88,45.47,7.36,63.64-8.8,31.2-27.75,9.3-76.2,37.26-97.04,9.65-7.19,27.03-12.44,60.92-1.52"/></svg>