<svg width="1259" height="723" viewBox="0 0 1259 723" fill="none" xmlns="http://www.w3.org/2000/svg">
<g style="mix-blend-mode:exclusion">
<path d="M784.094 222.8C784.721 229.952 785.841 237.1 785.894 244.257C786.094 274.275 785.915 304.293 786.004 334.312C786.056 352.102 786.526 369.89 786.496 387.679C786.429 426.51 786.222 465.341 785.874 504.172C785.834 508.444 784.348 512.703 783.01 516.921V222.8H784.094Z" fill="white"/>
<path d="M772.689 739.52C772.925 739.52 773.116 574.023 773.116 369.874C773.116 165.724 772.925 0.227539 772.689 0.227539C772.453 0.227539 772.262 165.724 772.262 369.874C772.262 574.023 772.453 739.52 772.689 739.52Z" fill="white"/>
<path d="M307.287 705.805C307.59 705.805 307.836 555.404 307.836 369.874C307.836 184.345 307.59 33.9434 307.287 33.9434C306.984 33.9434 306.738 184.345 306.738 369.874C306.738 555.404 306.984 705.805 307.287 705.805Z" fill="white"/>
<path d="M910.966 183.545V556.18C909.253 496.196 910.766 436.174 909.157 376.193L908.091 376.101L906.891 379.996C903.84 377.63 903.779 362.603 906.816 359.751C907.266 361.134 907.674 362.389 908.082 363.644C910.837 333.617 909.599 303.595 909.806 273.602C910.013 243.583 909.852 213.562 909.852 183.541L910.966 183.545Z" fill="white"/>
<path d="M787.957 561.65V556.65C787.957 505.44 788.057 454.23 787.903 403.021C787.852 385.726 786.796 368.43 786.858 351.137C787.058 294.694 787.566 238.251 787.968 181.809C787.917 180.504 788.232 179.211 788.877 178.075C790.329 305.939 790.285 433.784 789.551 561.63L787.957 561.65Z" fill="white"/>
<path d="M748.842 655.787C749.074 655.787 749.262 527.782 749.262 369.88C749.262 211.978 749.074 83.9727 748.842 83.9727C748.61 83.9727 748.422 211.978 748.422 369.88C748.422 527.782 748.61 655.787 748.842 655.787Z" fill="white"/>
<path d="M1086.12 543.555V374.881L1084.81 374.837V381.024C1084.81 384.41 1084.87 387.795 1084.81 391.179C1084.32 416.967 1083.81 442.754 1083.29 468.54C1083.32 469.465 1082.98 470.364 1082.35 471.04V268.64L1082.81 268.574C1083.04 269.45 1083.2 270.343 1083.28 271.244C1083.81 300.858 1084.32 330.472 1084.81 360.086C1084.84 361.695 1084.81 363.304 1084.81 364.913L1085.93 364.919V196.157L1087.12 196.164V543.546L1086.12 543.555Z" fill="white"/>
<path d="M770.361 251.665V488.165H769.222V251.614L770.361 251.665Z" fill="white"/>
<path d="M529.982 218.91V224.166C529.982 262.72 529.196 301.297 530.362 339.815C530.84 355.626 532.721 371.552 531.514 387.277C528.167 430.917 531.085 474.571 529.976 518.198C529.96 518.93 529.908 519.661 529.819 520.388C529.793 520.598 529.563 520.783 528.869 521.78V218.9L529.982 218.91Z" fill="white"/>
<path d="M518.751 612.123C518.986 612.123 519.176 503.658 519.176 369.861C519.176 236.063 518.986 127.599 518.751 127.599C518.516 127.599 518.326 236.063 518.326 369.861C518.326 503.658 518.516 612.123 518.751 612.123Z" fill="white"/>
<path d="M754.095 485.545C753.893 484.491 753.756 483.425 753.683 482.354C753.271 444.034 752.879 405.712 752.507 367.39C752.397 355.181 752.365 342.969 752.516 330.761C752.816 306.261 753.269 281.775 753.685 257.282C753.671 256.147 754.107 255.053 754.899 254.24V485.5L754.095 485.545Z" fill="white"/>
<path d="M763.473 450.729C763.122 450.341 762.838 449.899 762.632 449.418C762.511 448.693 762.467 447.957 762.503 447.224C762.103 415.095 761.492 382.966 761.403 350.835C761.35 331.206 762.103 311.574 762.523 291.943C762.53 291.414 762.652 290.891 762.882 290.414C763.112 289.937 763.444 289.515 763.854 289.18C764.947 343.013 764.864 396.8 764.704 450.588L763.473 450.729Z" fill="white"/>
<path d="M319.59 550.904C320 550.904 320.332 469.851 320.332 369.867C320.332 269.883 320 188.83 319.59 188.83C319.18 188.83 318.848 269.883 318.848 369.867C318.848 469.851 319.18 550.904 319.59 550.904Z" fill="white"/>
<path d="M791.292 549.459C791.678 549.459 791.992 469.053 791.992 369.867C791.992 270.681 791.678 190.275 791.292 190.275C790.905 190.275 790.592 270.681 790.592 369.867C790.592 469.053 790.905 549.459 791.292 549.459Z" fill="white"/>
<path d="M1136.83 444.4C1135.17 394.777 1135.25 345.15 1136.36 294.834C1138.83 297.71 1139.2 440.421 1136.83 444.4Z" fill="white"/>
<path d="M738.546 469.183V270.97L739.715 270.87C739.825 272.47 740.025 274.06 740.029 275.657C740.101 298.894 740.083 322.134 740.229 345.372C740.292 355.347 740.934 365.321 740.88 375.293C740.714 405.564 740.341 435.835 740.026 466.105C739.955 467.181 739.819 468.25 739.62 469.31L738.546 469.183Z" fill="white"/>
<path d="M1068.25 431.627C1066.08 390.443 1066.39 349.164 1069.18 308.018C1069.4 308.692 1069.55 309.388 1069.63 310.093C1070.08 338.841 1070.7 367.593 1070.85 396.338C1070.91 408.119 1069.96 419.904 1069.46 431.689L1068.25 431.627Z" fill="white"/>
<path d="M432.907 515.719C433.293 515.719 433.606 450.419 433.606 369.868C433.606 289.316 433.293 224.017 432.907 224.017C432.521 224.017 432.208 289.316 432.208 369.868C432.208 450.419 432.521 515.719 432.907 515.719Z" fill="white"/>
<path d="M533.872 658.026C534.126 658.026 534.331 529.017 534.331 369.877C534.331 210.736 534.126 81.7275 533.872 81.7275C533.619 81.7275 533.413 210.736 533.413 369.877C533.413 529.017 533.619 658.026 533.872 658.026Z" fill="white"/>
<path d="M300.732 469.165V270.988H301.508V469.222L300.732 469.165Z" fill="white"/>
<path d="M797.673 438.684C797.673 431.347 797.873 424.003 797.629 416.674C797.163 402.903 796.271 389.145 795.875 375.374C795.605 365.991 795.588 356.581 795.975 347.204C796.604 331.834 797.651 316.482 798.604 301.091V438.691L797.673 438.684Z" fill="white"/>
<path d="M1060.56 484.692C1061.08 484.692 1061.51 433.285 1061.51 369.873C1061.51 306.46 1061.08 255.054 1060.56 255.054C1060.03 255.054 1059.6 306.46 1059.6 369.873C1059.6 433.285 1060.03 484.692 1060.56 484.692Z" fill="white"/>
<path d="M413.738 405.216V375.393L412.184 375.405V426.405L411.046 426.377V313.36L412.202 313.333V364.349H413.755V334.515L414.903 334.553V405.17L413.738 405.216Z" fill="white"/>
<path d="M806.23 458.62V281.1H807.005V458.6L806.23 458.62Z" fill="white"/>
<path d="M522.395 429.14C519.825 425.57 519.837 314.118 522.395 310.628V429.14Z" fill="white"/>
<path d="M1094.35 471.078V268.532L1095.68 268.525V273.625C1095.68 299.074 1095.57 324.525 1095.77 349.971C1095.81 355.107 1096.22 360.522 1097.91 365.292C1099.93 370.992 1096.93 375.821 1096.9 381.074C1096.88 383.008 1095.74 384.933 1095.73 386.865C1095.65 413.197 1095.68 439.528 1095.68 465.865V471.029L1094.35 471.078Z" fill="white"/>
<path d="M310.471 603.1C310.783 603.1 311.035 498.676 311.035 369.862C311.035 241.048 310.783 136.624 310.471 136.624C310.16 136.624 309.907 241.048 309.907 369.862C309.907 498.676 310.16 603.1 310.471 603.1Z" fill="white"/>
<path d="M777.884 600.603C778.144 600.603 778.354 497.307 778.354 369.886C778.354 242.464 778.144 139.169 777.884 139.169C777.624 139.169 777.414 242.464 777.414 369.886C777.414 497.307 777.624 600.603 777.884 600.603Z" fill="white"/>
<path d="M172.553 568.081C172.95 568.081 173.272 479.346 173.272 369.885C173.272 260.425 172.95 171.689 172.553 171.689C172.156 171.689 171.834 260.425 171.834 369.885C171.834 479.346 172.156 568.081 172.553 568.081Z" fill="white"/>
<path d="M865.038 289.539V450.2H864.264V289.581L865.038 289.539Z" fill="white"/>
<path d="M637.146 423.159V316.721L638.446 316.404C638.873 317.712 639.163 319.061 639.311 320.429C639.384 330.573 639.352 340.715 639.352 350.859C639.352 373.497 639.343 396.135 639.324 418.773C639.222 420.33 639.015 421.878 638.704 423.407L637.146 423.159Z" fill="white"/>
<path d="M289.104 480.929C289.345 480.929 289.54 431.206 289.54 369.87C289.54 308.533 289.345 258.811 289.104 258.811C288.863 258.811 288.668 308.533 288.668 369.87C288.668 431.206 288.863 480.929 289.104 480.929Z" fill="white"/>
<path d="M420.641 480.305C420.966 480.305 421.229 430.969 421.229 370.11C421.229 309.251 420.966 259.915 420.641 259.915C420.316 259.915 420.053 309.251 420.053 370.11C420.053 430.969 420.316 480.305 420.641 480.305Z" fill="white"/>
<path d="M304.893 296.9V442.656H303.752V297.073L304.893 296.9Z" fill="white"/>
<path d="M1072.5 424.585V315.148L1073.58 315.048C1073.7 316.387 1073.9 317.726 1073.91 319.068C1073.98 327.154 1073.03 335.395 1074.28 343.291C1076.42 356.955 1076.82 370.835 1075.47 384.6C1074.21 397.537 1074.26 410.395 1073.85 423.294C1073.77 423.785 1073.62 424.263 1073.41 424.715L1072.5 424.585Z" fill="white"/>
<path d="M794.836 296.63V443.13H793.784V296.604L794.836 296.63Z" fill="white"/>
<path d="M516.478 321.422V418.312C516.004 418.407 515.529 418.5 515.055 418.593C514.693 417.09 514.451 415.561 514.331 414.02C514.281 394.594 514.27 375.168 514.298 355.742C514.298 345.588 514.271 335.432 514.331 325.278C514.45 323.888 514.684 322.51 515.031 321.158L516.478 321.422Z" fill="white"/>
<path d="M399.537 299.3V440.463H398.762V299.3H399.537Z" fill="white"/>
<path d="M896.013 253.643V486.21H894.582V253.748L896.013 253.643Z" fill="white"/>
<path d="M435.334 414.371V325.112C437.646 327.873 437.993 410.191 435.334 414.371Z" fill="white"/>
<path d="M484.485 401.82V337.974L485.273 337.832C485.555 338.764 485.726 339.726 485.783 340.698C485.368 347.975 487.573 354.658 489.483 361.583C491.348 367.926 491.056 374.709 488.651 380.868C487.101 384.717 486.495 389.004 485.894 393.156C485.483 395.99 485.815 398.931 485.815 401.825L484.485 401.82Z" fill="white"/>
<path d="M323.915 315.337V424.4L323.08 424.516C322.797 423.684 322.603 422.826 322.5 421.954C322.174 400.254 321.719 378.554 321.651 356.847C321.609 343.818 322.174 330.785 322.491 317.753C322.561 316.927 322.686 316.106 322.865 315.297L323.915 315.337Z" fill="white"/>
<path d="M291.256 412.1V327.662C293.699 330.534 294.095 407.637 291.256 412.1Z" fill="white"/>
<path d="M586.192 482.972C586.741 482.972 587.185 432.291 587.185 369.773C587.185 307.255 586.741 256.574 586.192 256.574C585.644 256.574 585.199 307.255 585.199 369.773C585.199 432.291 585.644 482.972 586.192 482.972Z" fill="white"/>
<path d="M280.378 411.523C277.811 407.954 277.815 331.763 280.378 328.223V411.523Z" fill="white"/>
<path d="M96.7639 328.564V411.164C93.9729 408.313 93.9709 331.427 96.7639 328.564Z" fill="white"/>
<path d="M882.102 426.385V313.385H883.381V426.373L882.102 426.385Z" fill="white"/>
<path d="M510.526 338.718C511.126 341.156 512.212 343.589 512.236 346.032C512.392 361.917 512.392 377.803 512.236 393.69C512.212 396.137 511.127 398.576 510.536 401.018L508.982 400.772V339.072L510.526 338.718Z" fill="white"/>
<path d="M537.133 453.831C537.517 453.831 537.828 416.24 537.828 369.869C537.828 323.498 537.517 285.907 537.133 285.907C536.749 285.907 536.438 323.498 536.438 369.869C536.438 416.24 536.749 453.831 537.133 453.831Z" fill="white"/>
<path d="M554.887 429.051V310.69L555.696 310.683V429L554.887 429.051Z" fill="white"/>
<path d="M383.797 424.062C384.257 424.062 384.63 399.818 384.63 369.913C384.63 340.007 384.257 315.764 383.797 315.764C383.337 315.764 382.964 340.007 382.964 369.913C382.964 399.818 383.337 424.062 383.797 424.062Z" fill="white"/>
<path d="M720.901 450.029C721.234 450.029 721.505 414.141 721.505 369.87C721.505 325.599 721.234 289.711 720.901 289.711C720.567 289.711 720.297 325.599 720.297 369.87C720.297 414.141 720.567 450.029 720.901 450.029Z" fill="white"/>
<path d="M564.681 448.439C564.914 448.439 565.104 413.257 565.104 369.858C565.104 326.459 564.914 291.277 564.681 291.277C564.447 291.277 564.258 326.459 564.258 369.858C564.258 413.257 564.447 448.439 564.681 448.439Z" fill="white"/>
<path d="M1127.94 438.325C1128.49 438.325 1128.94 407.675 1128.94 369.867C1128.94 332.059 1128.49 301.409 1127.94 301.409C1127.39 301.409 1126.94 332.059 1126.94 369.867C1126.94 407.675 1127.39 438.325 1127.94 438.325Z" fill="white"/>
<path d="M498.326 348.169V364.926H499.499V319.951L500.687 319.963V419.756L499.76 419.787V374.838L498.445 374.819V391.471L497.183 391.506V375.141L495.789 375.096V386.328L494.711 386.287V353.381L495.467 353.362V364.569L496.716 364.64V348.212L498.326 348.169Z" fill="white"/>
<path d="M604.33 443.447C604.616 443.447 604.848 410.507 604.848 369.873C604.848 329.239 604.616 296.299 604.33 296.299C604.044 296.299 603.812 329.239 603.812 369.873C603.812 410.507 604.044 443.447 604.33 443.447Z" fill="white"/>
<path d="M358.682 418.321C358.551 416.841 358.311 415.361 358.307 413.88C358.274 403.144 358.383 392.406 358.23 381.671C358.185 378.528 357.412 375.399 357.03 372.255C356.918 371.232 356.885 370.202 356.93 369.174C357.374 354.565 357.832 339.957 358.304 325.35C358.347 324.029 358.597 322.713 358.75 321.394L359.961 321.486V418.243L358.682 418.321Z" fill="white"/>
<path d="M166.43 516.884C166.687 516.884 166.896 451.066 166.896 369.876C166.896 288.686 166.687 222.868 166.43 222.868C166.173 222.868 165.964 288.686 165.964 369.876C165.964 451.066 166.173 516.884 166.43 516.884Z" fill="white"/>
<path d="M850.03 396.84C849.949 395.863 849.868 394.885 849.787 393.905C849.259 387.582 848.414 381.262 848.311 374.932C848.239 370.519 849.346 366.099 849.627 361.664C849.886 357.559 849.755 353.429 849.783 349.31C849.798 347.176 849.783 345.042 849.783 342.675C850.54 343.032 850.964 343.107 851 343.267C854 356.867 853.4 370.689 853.124 384.449C853.043 388.557 851.424 392.637 850.515 396.73L850.03 396.84Z" fill="white"/>
<path d="M349.399 335.854C352.059 338.799 352.169 400.524 349.399 404.16V335.854Z" fill="white"/>
<path d="M809.138 457.808V282.2L810.116 282.192V286.863C810.116 309.079 810.044 331.296 810.18 353.51C810.205 357.658 811.333 361.794 811.447 365.949C811.537 369.219 810.84 372.51 810.514 375.794C810.355 377.389 810.135 378.994 810.133 380.587C810.109 404.716 810.104 428.844 810.116 452.974V457.718L809.138 457.808Z" fill="white"/>
<path d="M830.86 417.96V321.76H831.704V418.017L830.86 417.96Z" fill="white"/>
<path d="M816.701 398.894C812.201 379.79 812.201 359.903 816.701 340.8V398.894Z" fill="white"/>
<path d="M1122.87 329.109V410.625L1121.52 410.632V329.113L1122.87 329.109Z" fill="white"/>
<path d="M134.567 338.5C135.056 339.581 135.967 340.66 135.973 341.744C136.06 360.555 136.066 379.366 135.99 398.178C135.815 399.271 135.475 400.333 134.984 401.325L133.659 401.069V338.856L134.567 338.5Z" fill="white"/>
<path d="M312.754 278.218V461.469H311.968V278.269L312.754 278.218Z" fill="white"/>
<path d="M889.481 279.737V460.165H888.802V279.585L889.481 279.737Z" fill="white"/>
<path d="M467.277 423.52C467.775 423.52 468.179 399.503 468.179 369.875C468.179 340.248 467.775 316.23 467.277 316.23C466.779 316.23 466.375 340.248 466.375 369.875C466.375 399.503 466.779 423.52 467.277 423.52Z" fill="white"/>
<path d="M938.271 430.973C938.543 430.973 938.763 403.618 938.763 369.872C938.763 336.127 938.543 308.771 938.271 308.771C937.999 308.771 937.779 336.127 937.779 369.872C937.779 403.618 937.999 430.973 938.271 430.973Z" fill="white"/>
<path d="M480.762 404.2V335.452C483.469 358.288 483.469 381.364 480.762 404.2Z" fill="white"/>
<path d="M150.503 412V328.2H151.591V412H150.503Z" fill="white"/>
<path d="M126.748 468.022C127.155 468.022 127.486 424.157 127.486 370.045C127.486 315.934 127.155 272.068 126.748 272.068C126.34 272.068 126.01 315.934 126.01 370.045C126.01 424.157 126.34 468.022 126.748 468.022Z" fill="white"/>
<path d="M885.727 410.448V329.284H886.571V410.42L885.727 410.448Z" fill="white"/>
<path d="M913.68 483.2C913.944 483.2 914.158 432.461 914.158 369.871C914.158 307.281 913.944 256.542 913.68 256.542C913.416 256.542 913.202 307.281 913.202 369.871C913.202 432.461 913.416 483.2 913.68 483.2Z" fill="white"/>
<path d="M141.514 409.185V330.532L142.358 330.526V409.157L141.514 409.185Z" fill="white"/>
<path d="M745.203 481.88C745.459 481.88 745.666 431.734 745.666 369.876C745.666 308.018 745.459 257.872 745.203 257.872C744.948 257.872 744.74 308.018 744.74 369.876C744.74 431.734 744.948 481.88 745.203 481.88Z" fill="white"/>
<path d="M1088.97 408.809V330.959L1089.87 330.696C1090.4 331.935 1090.76 333.239 1090.94 334.572C1091.01 358.088 1091.01 381.604 1090.95 405.121C1090.81 406.469 1090.52 407.798 1090.1 409.086L1088.97 408.809Z" fill="white"/>
<path d="M401.411 396.635V343.783C404.138 345.933 404.446 392.7 401.411 396.635Z" fill="white"/>
<path d="M62.3179 406.47C62.7564 406.47 63.1119 390.082 63.1119 369.868C63.1119 349.653 62.7564 333.266 62.3179 333.266C61.8794 333.266 61.5239 349.653 61.5239 369.868C61.5239 390.082 61.8794 406.47 62.3179 406.47Z" fill="white"/>
<path d="M331.682 421.32C332.133 421.32 332.499 398.423 332.499 370.179C332.499 341.935 332.133 319.038 331.682 319.038C331.231 319.038 330.865 341.935 330.865 370.179C330.865 398.423 331.231 421.32 331.682 421.32Z" fill="white"/>
<path d="M821.036 337.446V402.289L820.043 402.377C819.943 401.038 819.774 399.699 819.768 398.36C819.739 391.898 819.939 385.428 819.685 378.977C819.534 375.167 818.175 371.377 818.262 367.591C818.448 359.529 819.247 351.483 819.737 343.426C819.858 341.432 819.755 339.426 819.755 337.426L821.036 337.446Z" fill="white"/>
<path d="M252.938 345.3V394.78C250.692 393.018 250.131 349.66 252.938 345.3Z" fill="white"/>
<path d="M1101.34 332.677V407.059L1100.22 407.066V332.681L1101.34 332.677Z" fill="white"/>
<path d="M325.959 296.895V442.858H325.28V297.087L325.959 296.895Z" fill="white"/>
<path d="M1161.49 379.828L1159.81 377.385L1159.02 377.607V388.352H1157.94V351.388L1158.71 351.34V362.358L1159.59 362.622L1162.35 358.83V379.639L1161.49 379.828Z" fill="white"/>
<path d="M285.901 470.709C286.165 470.709 286.38 425.562 286.38 369.87C286.38 314.178 286.165 269.031 285.901 269.031C285.636 269.031 285.422 314.178 285.422 369.87C285.422 425.562 285.636 470.709 285.901 470.709Z" fill="white"/>
<path d="M188.646 393.836C185.908 390.573 185.9 349.191 188.646 345.878V393.836Z" fill="white"/>
<path d="M946.77 428.564V310.952H947.823V428.729L946.77 428.564Z" fill="white"/>
<path d="M99.0951 418.493C99.3569 418.493 99.5691 396.728 99.5691 369.88C99.5691 343.031 99.3569 321.267 99.0951 321.267C98.8333 321.267 98.6211 343.031 98.6211 369.88C98.6211 396.728 98.8333 418.493 99.0951 418.493Z" fill="white"/>
<path d="M837.261 418.521C837.63 418.521 837.929 396.735 837.929 369.861C837.929 342.987 837.63 321.201 837.261 321.201C836.892 321.201 836.593 342.987 836.593 369.861C836.593 396.735 836.892 418.521 837.261 418.521Z" fill="white"/>
<path d="M450.803 387.349C450.19 386.54 449.053 385.739 449.043 384.921C448.919 374.921 448.913 364.919 449.026 354.914C449.033 354.185 449.993 353.467 450.509 352.744C451.023 353.303 451.981 353.858 451.986 354.421C452.075 365.237 452.052 376.054 452.052 386.87C451.634 387.03 451.218 387.189 450.803 387.349Z" fill="white"/>
<path d="M129.246 396.831V342.166C132.265 348.885 132.564 384.711 129.246 396.831Z" fill="white"/>
<path d="M552.783 336.5V403.228L551.731 403.234V336.526L552.783 336.5Z" fill="white"/>
<path d="M702.462 416.624C702.693 416.624 702.881 395.677 702.881 369.838C702.881 343.999 702.693 323.052 702.462 323.052C702.231 323.052 702.043 343.999 702.043 369.838C702.043 395.677 702.231 416.624 702.462 416.624Z" fill="white"/>
<path d="M113.696 345.179V394.701C113.196 394.456 112.765 394.357 112.754 394.222C111.977 384.622 110.697 375.022 110.67 365.422C110.65 358.703 112.345 351.98 113.27 345.259L113.696 345.179Z" fill="white"/>
<path d="M712.219 324.7V415.331H711.385V324.712L712.219 324.7Z" fill="white"/>
<path d="M1142.49 336.911C1142.49 340.821 1142.26 344.746 1142.53 348.637C1143.13 357.194 1144.71 365.749 1144.52 374.274C1144.3 383.785 1142.56 393.261 1141.35 403.974V336.962L1142.49 336.911Z" fill="white"/>
<path d="M118.017 337.918V402.164C115.975 399.7 115.356 343.452 118.017 337.918Z" fill="white"/>
<path d="M295.592 337.943V401.858H294.602V337.941L295.592 337.943Z" fill="white"/>
<path d="M632.789 349.214V391.478C630.455 388.614 630.156 353.04 632.789 349.214Z" fill="white"/>
<path d="M315.789 400.876V338.276C317.846 341.4 318.239 396.307 315.789 400.876Z" fill="white"/>
<path d="M680.791 413.501C681.176 413.501 681.489 393.97 681.489 369.877C681.489 345.784 681.176 326.253 680.791 326.253C680.405 326.253 680.093 345.784 680.093 369.877C680.093 393.97 680.405 413.501 680.791 413.501Z" fill="white"/>
<path d="M80.5311 413.717C80.942 413.717 81.2751 394.083 81.2751 369.864C81.2751 345.644 80.942 326.011 80.5311 326.011C80.1202 326.011 79.7871 345.644 79.7871 369.864C79.7871 394.083 80.1202 413.717 80.5311 413.717Z" fill="white"/>
<path d="M340.682 350.343C344.232 363.128 344.232 376.639 340.682 389.424V350.343Z" fill="white"/>
<path d="M925.732 404.872V334.835C928.559 358.095 928.559 381.612 925.732 404.872Z" fill="white"/>
<path d="M390.822 339.225C390.822 342.848 390.609 346.488 390.865 350.093C391.423 357.945 392.922 365.793 392.734 373.615C392.518 382.58 390.892 391.515 389.693 400.502V339.2L390.822 339.225Z" fill="white"/>
<path d="M274.271 340.777V398.96L273.427 398.967V340.74L274.271 340.777Z" fill="white"/>
<path d="M803.213 393.274C801.709 377.704 801.711 362.024 803.219 346.453H804.372V393.174L803.213 393.274Z" fill="white"/>
<path d="M208.64 391.881V347.847C212.364 362.288 212.364 377.439 208.64 391.881Z" fill="white"/>
<path d="M546.238 449.478C546.5 449.478 546.712 413.839 546.712 369.876C546.712 325.913 546.5 290.274 546.238 290.274C545.976 290.274 545.764 325.913 545.764 369.876C545.764 413.839 545.976 449.478 546.238 449.478Z" fill="white"/>
<path d="M1052.13 350.143V388.626C1050.01 385.9 1049.75 355.079 1052.13 350.143Z" fill="white"/>
<path d="M438.456 390.862V348.594C441.39 353.98 441.682 382.519 438.456 390.862Z" fill="white"/>
<path d="M194.04 444.463C194.303 444.463 194.517 411.068 194.517 369.872C194.517 328.677 194.303 295.281 194.04 295.281C193.777 295.281 193.563 328.677 193.563 369.872C193.563 411.068 193.777 444.463 194.04 444.463Z" fill="white"/>
<path d="M1109.47 380.822C1109.29 379.906 1109.12 378.99 1109.02 378.471C1108.81 380.25 1108.56 382.454 1108.31 384.658L1107.42 384.636V355.106L1108.27 354.989C1108.54 357.189 1108.81 359.383 1109.01 361.089C1109.1 360.704 1109.31 359.797 1109.51 358.889L1110.43 358.983V380.744L1109.47 380.822Z" fill="white"/>
<path d="M105.672 345.395V394.667L104.862 394.68V345.4L105.672 345.395Z" fill="white"/>
<path d="M582.787 404.645C583.032 404.645 583.23 389.161 583.23 370.062C583.23 350.962 583.032 335.479 582.787 335.479C582.543 335.479 582.344 350.962 582.344 370.062C582.344 389.161 582.543 404.645 582.787 404.645Z" fill="white"/>
<path d="M160.628 320.973V418.991H159.949V320.824L160.628 320.973Z" fill="white"/>
<path d="M920.259 320.863V418.943H919.58V320.813L920.259 320.863Z" fill="white"/>
<path d="M958.306 346.449V393.329H957.331V346.429L958.306 346.449Z" fill="white"/>
<path d="M246.846 347.145C246.846 349.995 246.833 352.845 246.846 355.693C246.866 358.993 247.046 361.939 249.11 365.114C250.61 367.426 250.67 372.296 249.169 374.572C246.793 378.172 246.897 381.625 246.848 385.352C246.816 387.768 246.842 390.184 245.795 392.582V347.162L246.846 347.145Z" fill="white"/>
<path d="M181.675 435.709C181.938 435.709 182.15 406.235 182.15 369.877C182.15 333.519 181.938 304.045 181.675 304.045C181.413 304.045 181.2 333.519 181.2 369.877C181.2 406.235 181.413 435.709 181.675 435.709Z" fill="white"/>
<path d="M692.546 392.834V346.9L693.598 346.892V392.792L692.546 392.834Z" fill="white"/>
<path d="M163.089 346.943V392.793L162.412 392.803V346.955L163.089 346.943Z" fill="white"/>
<path d="M1056.67 402.212C1056.9 402.212 1057.09 387.729 1057.09 369.863C1057.09 351.997 1056.9 337.514 1056.67 337.514C1056.43 337.514 1056.24 351.997 1056.24 369.863C1056.24 387.729 1056.43 402.212 1056.67 402.212Z" fill="white"/>
<path d="M543.039 402.274C543.272 402.274 543.461 387.768 543.461 369.875C543.461 351.981 543.272 337.476 543.039 337.476C542.806 337.476 542.617 351.981 542.617 369.875C542.617 387.768 542.806 402.274 543.039 402.274Z" fill="white"/>
<path d="M378.199 333.433V406.473H377.079V333.1L378.199 333.433Z" fill="white"/>
<path d="M570.705 401.233C571.091 401.233 571.405 387.192 571.405 369.872C571.405 352.552 571.091 338.511 570.705 338.511C570.318 338.511 570.005 352.552 570.005 369.872C570.005 387.192 570.318 401.233 570.705 401.233Z" fill="white"/>
<path d="M729.958 431.978C730.222 431.978 730.436 404.169 730.436 369.864C730.436 335.559 730.222 307.75 729.958 307.75C729.694 307.75 729.48 335.559 729.48 369.864C729.48 404.169 729.694 431.978 729.958 431.978Z" fill="white"/>
<path d="M457.026 349.132V390.57L456.355 390.589V349.089L457.026 349.132Z" fill="white"/>
<path d="M1045.28 394.921C1045.86 394.921 1046.33 383.773 1046.33 370.021C1046.33 356.269 1045.86 345.121 1045.28 345.121C1044.7 345.121 1044.23 356.269 1044.23 370.021C1044.23 383.773 1044.7 394.921 1045.28 394.921Z" fill="white"/>
<path d="M972.495 349.757V390.394C968.961 377.078 968.961 363.072 972.495 349.757Z" fill="white"/>
<path d="M622.281 385.843V353.36C625.132 359.117 625.383 373.779 622.281 385.843Z" fill="white"/>
<path d="M828.003 426.95C828.262 426.95 828.471 401.397 828.471 369.877C828.471 338.356 828.262 312.804 828.003 312.804C827.745 312.804 827.535 338.356 827.535 369.877C827.535 401.397 827.745 426.95 828.003 426.95Z" fill="white"/>
<path d="M876.628 355.823C879.633 364.963 879.633 374.824 876.628 383.964V355.823Z" fill="white"/>
<path d="M227.626 407.634C228.036 407.634 228.369 390.727 228.369 369.87C228.369 349.014 228.036 332.106 227.626 332.106C227.215 332.106 226.883 349.014 226.883 369.87C226.883 390.727 227.215 407.634 227.626 407.634Z" fill="white"/>
<path d="M953.705 350.86V388.878L952.951 388.892V350.926L953.705 350.86Z" fill="white"/>
<path d="M190.246 389.258V349.924C192.471 353 192.833 384.785 190.246 389.258Z" fill="white"/>
<path d="M1245.17 350.847V388.88L1244.44 388.898V350.933L1245.17 350.847Z" fill="white"/>
<path d="M417.094 389.426V350.307L418.147 350.296V389.421L417.094 389.426Z" fill="white"/>
<path d="M959.166 392.4V346.692C961.76 353.367 961.946 381.246 959.166 392.4Z" fill="white"/>
<path d="M234.514 382.724C231.164 379.574 231.233 359.951 234.514 357.149V382.724Z" fill="white"/>
<path d="M715.872 387.9V351.755L716.647 351.761V387.961L715.872 387.9Z" fill="white"/>
<path d="M261.961 350.5V388.4C259.759 385.953 259.446 355.261 261.961 350.5Z" fill="white"/>
<path d="M88.0708 355.756V383.999L86.4771 384.017V355.824L88.0708 355.756Z" fill="white"/>
<path d="M597.827 390.29V349.757L598.88 349.763V390.481L597.827 390.29Z" fill="white"/>
<path d="M263.813 387.115V352.673L264.578 352.66V387.102L263.813 387.115Z" fill="white"/>
<path d="M44.6458 355.532V384.632C42.1328 381.068 41.7608 361.849 44.6458 355.532Z" fill="white"/>
<path d="M71.0659 386.61V353.164L71.6758 353.151V386.594L71.0659 386.61Z" fill="white"/>
<path d="M478.563 386.585V353.142H479.339V386.625L478.563 386.585Z" fill="white"/>
<path d="M594.678 386.6V353.226L595.447 353.21V386.591L594.678 386.6Z" fill="white"/>
<path d="M1004.98 380.662V358.436C1007.16 361.442 1007.45 376.536 1004.98 380.662Z" fill="white"/>
<path d="M825.377 354.439V385.278L824.654 385.296V354.396L825.377 354.439Z" fill="white"/>
<path d="M77.6519 392.226C77.9518 392.226 78.1949 382.215 78.1949 369.866C78.1949 357.517 77.9518 347.506 77.6519 347.506C77.352 347.506 77.1089 357.517 77.1089 369.866C77.1089 382.215 77.352 392.226 77.6519 392.226Z" fill="white"/>
<path d="M230.704 392.479C231.115 392.479 231.448 382.353 231.448 369.861C231.448 357.37 231.115 347.243 230.704 347.243C230.293 347.243 229.96 357.37 229.96 369.861C229.96 382.353 230.293 392.479 230.704 392.479Z" fill="white"/>
<path d="M460.399 392.5C460.775 392.5 461.081 382.37 461.081 369.873C461.081 357.377 460.775 347.246 460.399 347.246C460.022 347.246 459.717 357.377 459.717 369.873C459.717 382.37 460.022 392.5 460.399 392.5Z" fill="white"/>
<path d="M49.7529 387.741V352.066H51.0161V387.742L49.7529 387.741Z" fill="white"/>
<path d="M12.0459 378.6C10.0387 376.11 8.94434 373.009 8.94434 369.812C8.94434 366.614 10.0387 363.514 12.0459 361.024V378.6Z" fill="white"/>
<path d="M220.671 349.855V389.663C217.804 376.408 218.435 363.136 220.671 349.855Z" fill="white"/>
<path d="M154.874 354.905V384.838L154.098 384.844V354.917L154.874 354.905Z" fill="white"/>
<path d="M1034.1 359.99V379.957C1031.34 378.427 1031.3 378.426 1031.5 365.011C1031.68 363.205 1032.03 361.421 1032.55 359.68L1034.1 359.99Z" fill="white"/>
<path d="M463.831 341.172V398.659H463.152V341.059L463.831 341.172Z" fill="white"/>
<path d="M1018.38 359.244V380.064C1015.25 377.617 1015.07 362.762 1018.38 359.244Z" fill="white"/>
<path d="M184.393 383.948V355.782L185.169 355.775V383.925L184.393 383.948Z" fill="white"/>
<path d="M672.626 362.846V377.022L671.598 377.513C670.988 376.564 669.757 375.529 669.874 374.678C670.428 370.643 667.941 365.989 671.446 362.522L672.626 362.846Z" fill="white"/>
<path d="M472.006 358.411V381.795H470.592V358.33L472.006 358.411Z" fill="white"/>
<path d="M567.707 407.472C567.924 407.472 568.1 390.599 568.1 369.786C568.1 348.972 567.924 332.1 567.707 332.1C567.49 332.1 567.314 348.972 567.314 369.786C567.314 390.599 567.49 407.472 567.707 407.472Z" fill="white"/>
<path d="M855.739 400.673C856.095 400.673 856.384 386.876 856.384 369.857C856.384 352.838 856.095 339.041 855.739 339.041C855.383 339.041 855.094 352.838 855.094 369.857C855.094 386.876 855.383 400.673 855.739 400.673Z" fill="white"/>
<path d="M368.037 383.008V356.708H368.812V383.061L368.037 383.008Z" fill="white"/>
<path d="M445.695 356.455V383.262L444.628 383.288V356.473L445.695 356.455Z" fill="white"/>
<path d="M981.402 355.918V383.637C977.965 374.1 978.318 365.535 981.402 355.918Z" fill="white"/>
<path d="M996.974 356.645V383.074L996.249 383.091V356.726L996.974 356.645Z" fill="white"/>
<path d="M145.758 396.122V343.656L146.547 343.65V396.075L145.758 396.122Z" fill="white"/>
<path d="M696.176 394.658V345.112L696.838 345.106V394.758L696.176 394.658Z" fill="white"/>
<path d="M336.594 379.734V360.586C340.165 363.488 340.346 375.163 336.594 379.734Z" fill="white"/>
<path d="M678.179 354.918V384.328C674.996 374.509 675.306 365.261 678.179 354.918Z" fill="white"/>
<path d="M663.276 357.674V382.064L662.156 382.083V357.683L663.276 357.674Z" fill="white"/>
<path d="M26.1909 357.68V382.062L25.0698 382.074V357.686L26.1909 357.68Z" fill="white"/>
<path d="M203.657 357.78V381.98L202.804 381.974V357.763L203.657 357.78Z" fill="white"/>
<path d="M347.571 358V381.771H346.731V357.943L347.571 358Z" fill="white"/>
<path d="M611.034 357.668V382.056L609.966 382.065V357.676L611.034 357.668Z" fill="white"/>
<path d="M15.8101 378.184V361.653L16.8672 361.636V378.166L15.8101 378.184Z" fill="white"/>
<path d="M922.467 358.424V381.798L921.623 381.811V358.389L922.467 358.424Z" fill="white"/>
<path d="M198.917 378.86C194.787 375.428 195.017 363.86 198.917 361.26V378.86Z" fill="white"/>
<path d="M108.075 358.837V380.899L107.3 380.91V358.91L108.075 358.837Z" fill="white"/>
<path d="M423.691 402.006C423.955 402.006 424.169 387.619 424.169 369.871C424.169 352.124 423.955 337.736 423.691 337.736C423.427 337.736 423.213 352.124 423.213 369.871C423.213 387.619 423.427 402.006 423.691 402.006Z" fill="white"/>
<path d="M659.162 386.168V353.353H660.07V386.344L659.162 386.168Z" fill="white"/>
<path d="M239.146 378.43V361.156C242.429 367.227 242.56 372.508 239.146 378.43Z" fill="white"/>
<path d="M652.384 378.993V362.016C655.717 365.231 656.029 373.143 652.384 378.993Z" fill="white"/>
<path d="M123.964 359.344V380.397L123.189 380.407V359.37L123.964 359.344Z" fill="white"/>
<path d="M225.067 359.29V380.455L224.223 380.465V359.341L225.067 359.29Z" fill="white"/>
<path d="M269.868 380.576V359.126H270.92V380.587L269.868 380.576Z" fill="white"/>
<path d="M934.013 380.391V359.341H934.789V380.365L934.013 380.391Z" fill="white"/>
<path d="M990.865 359.115V380.625H989.744V359.125L990.865 359.115Z" fill="white"/>
<path d="M1027.5 359.32V380.434H1026.65V359.277L1027.5 359.32Z" fill="white"/>
<path d="M698.953 390.258V349.835H699.632V390.326L698.953 390.258Z" fill="white"/>
<path d="M900.668 380.061V360.213L901.339 360.192V380.036L900.668 380.061Z" fill="white"/>
<path d="M31.186 379.673V360.051L32.2388 360.044V379.67L31.186 379.673Z" fill="white"/>
<path d="M37.3799 379.683V360.051L38.3442 360.039V379.67L37.3799 379.683Z" fill="white"/>
<path d="M380.519 379.489V360.218H381.363V379.527L380.519 379.489Z" fill="white"/>
<path d="M943.117 360.2V379.54L942.347 379.562V360.262L943.117 360.2Z" fill="white"/>
<path d="M1036.83 360.037V379.691L1035.76 379.718V360.057L1036.83 360.037Z" fill="white"/>
<path d="M1041.16 379.5V360.221L1041.94 360.21V379.455L1041.16 379.5Z" fill="white"/>
<path d="M647.915 360.051V379.677L646.946 379.706V360.079L647.915 360.051Z" fill="white"/>
<path d="M1173.48 379.683V360.062L1174.47 360.036V379.658L1173.48 379.683Z" fill="white"/>
<path d="M974.963 361.914V377.824L973.548 377.839V361.939L974.963 361.914Z" fill="white"/>
<path d="M707.854 379.689V360.033L709.046 360.025C710.302 366.559 709.611 373.125 709.422 379.68L707.854 379.689Z" fill="white"/>
<path d="M561.479 396.94C561.731 396.94 561.936 384.823 561.936 369.876C561.936 354.928 561.731 342.812 561.479 342.812C561.227 342.812 561.022 354.928 561.022 369.876C561.022 384.823 561.227 396.94 561.479 396.94Z" fill="white"/>
<path d="M607.027 388.949V350.955L607.656 350.944V388.809L607.027 388.949Z" fill="white"/>
<path d="M56.2119 395.167C56.4416 395.167 56.6279 383.871 56.6279 369.936C56.6279 356.001 56.4416 344.705 56.2119 344.705C55.9821 344.705 55.7959 356.001 55.7959 369.936C55.7959 383.871 55.9821 395.167 56.2119 395.167Z" fill="white"/>
<path d="M213.472 395.752C213.737 395.752 213.951 384.167 213.951 369.877C213.951 355.587 213.737 344.002 213.472 344.002C213.208 344.002 212.993 355.587 212.993 369.877C212.993 384.167 213.208 395.752 213.472 395.752Z" fill="white"/>
<path d="M57.563 378.512V361.219L58.563 361.179V378.485L57.563 378.512Z" fill="white"/>
<path d="M572.958 381.779C573.284 381.779 573.548 376.441 573.548 369.857C573.548 363.272 573.284 357.935 572.958 357.935C572.632 357.935 572.368 363.272 572.368 369.857C572.368 376.441 572.632 381.779 572.958 381.779Z" fill="white"/>
<path d="M1048.71 361.086V378.669H1047.94V361.038L1048.71 361.086Z" fill="white"/>
<path d="M725.199 352.852V386.703L724.658 386.714V352.861L725.199 352.852Z" fill="white"/>
<path d="M931.878 352.879V386.679L931.354 386.693V352.885L931.878 352.879Z" fill="white"/>
<path d="M362.355 389.496C362.731 389.496 363.036 380.718 363.036 369.889C363.036 359.061 362.731 350.282 362.355 350.282C361.979 350.282 361.674 359.061 361.674 369.889C361.674 380.718 361.979 389.496 362.355 389.496Z" fill="white"/>
<path d="M1214.52 353.936V385.973L1213.85 385.967V353.778L1214.52 353.936Z" fill="white"/>
<path d="M734.086 353.773V385.929L733.432 385.939V353.932L734.086 353.773Z" fill="white"/>
<path d="M872.019 377.7V362.043L872.795 362.023V377.717L872.019 377.7Z" fill="white"/>
<path d="M579.129 361.982V377.738L578.509 377.763V362.005L579.129 361.982Z" fill="white"/>
<path d="M635.622 361.709V378.054H634.501V361.71L635.622 361.709Z" fill="white"/>
<path d="M862.415 364.111V376.155C859.496 371.954 858.737 368.251 862.415 364.111Z" fill="white"/>
<path d="M1145.89 378.017V361.728L1146.86 361.692V377.992L1145.89 378.017Z" fill="white"/>
<path d="M387.384 361.766V377.978H386.53V361.769L387.384 361.766Z" fill="white"/>
<path d="M1238.38 354.81V385.101L1237.7 385.094V354.67L1238.38 354.81Z" fill="white"/>
<path d="M984.162 359.174V380.765H983.319V359.047L984.162 359.174Z" fill="white"/>
<path d="M139.422 362.682V377.088L138.301 377.106V362.7L139.422 362.682Z" fill="white"/>
<path d="M642.851 376.843V362.854H643.627V376.882L642.851 376.843Z" fill="white"/>
<path d="M1186.81 362.693V377.052L1185.98 377.115V362.733C1186.25 362.72 1186.53 362.707 1186.81 362.693Z" fill="white"/>
<path d="M843.925 376.456V363.721L844.925 363.707V376.513L843.925 376.456Z" fill="white"/>
<path d="M1258.07 363.705V376.455L1257.36 376.487V363.727L1258.07 363.705Z" fill="white"/>
<path d="M0.222168 364.73C3.36917 368.239 3.32217 371.997 0.222168 374.83V364.73Z" fill="white"/>
<path d="M629.275 364.143V375.562L628.587 375.617V364.107L629.275 364.143Z" fill="white"/>
<path d="M395.7 381.756V357.856H396.379V381.917L395.7 381.756Z" fill="white"/>
<path d="M899.046 358.05V381.909H898.367V357.909L899.046 358.05Z" fill="white"/>
<path d="M503.151 386.343C503.393 386.343 503.589 379.11 503.589 370.188C503.589 361.266 503.393 354.033 503.151 354.033C502.909 354.033 502.713 361.266 502.713 370.188C502.713 379.11 502.909 386.343 503.151 386.343Z" fill="white"/>
<path d="M67.4521 375.63V364.582L68.208 364.547V375.554L67.4521 375.63Z" fill="white"/>
<path d="M668.403 364.584V375.63L667.627 375.651V364.643L668.403 364.584Z" fill="white"/>
<path d="M1179.86 364.575V375.638L1179.02 375.656V364.629L1179.86 364.575Z" fill="white"/>
<path d="M507.956 359.067V380.744L507.146 380.752V359L507.956 359.067Z" fill="white"/>
<path d="M1152.93 380.731V359.476L1153.39 359.45V380.705L1152.93 380.731Z" fill="white"/>
<path d="M1030.88 359.091V380.652L1030.2 380.662V359.228L1030.88 359.091Z" fill="white"/>
<path d="M842.746 374.716C839.346 371.102 839.446 368.147 842.746 365.405V374.716Z" fill="white"/>
<path d="M353.969 364.96V374.76L353.193 374.781V365.052L353.969 364.96Z" fill="white"/>
<path d="M993.403 384.436C993.655 384.436 993.86 377.91 993.86 369.859C993.86 361.809 993.655 355.282 993.403 355.282C993.15 355.282 992.946 361.809 992.946 369.859C992.946 377.91 993.15 384.436 993.403 384.436Z" fill="white"/>
</g>
</svg>
